M48
;Layer_Color=9474304
;FILE_FORMAT=2:5
INCH,TZ
;TYPE=PLATED
T01F00S00C0.01181
T02F00S00C0.03000
T03F00S00C0.03543
T04F00S00C0.03937
T05F00S00C0.04000
T06F00S00C0.04331
T07F00S00C0.04724
T10F00S00C0.12598
;TYPE=NON_PLATED
T11F00S00C0.03937
T12F00S00C0.11024
%
T01
X6299Y6299
X18110
X29921
X41732
X53543
X47638Y18110
X35827
X24016
X29921Y29921
X18110
X6299
X12205Y41732
X24016
X29921Y53543
X41732
X18110
X6299
X65354
X88976
X94882Y41732
X106693
X118504
X130315
X142126
X153937
X159842Y29921
X148031
X136220
X124409
X112598
X100787
X88976
X77165
X83071Y41732
Y18110
X94882
X106693
X118504
X130315
X142126
X153937
X165748
X177559
X189370
X201181
X207086Y29921
Y53543
Y6299
X195275
X183465
X171653
X159842
X148031
X136220
X124409
X112598
X100787
X88976
X77165
X65354
X71260Y18110
X59449
X183465Y29921
X218898
X230709
X242520
X254331
X266142
X277953
X289764
X295669Y18110
X307480
X319291
X331102
X342913
X354724
X360630Y6299
X348819
X337008
X325197
X313386
X301575
X289764
X277953
X266142
X254331
X242520
X230709
X218898
X224803Y18110
X236614
X248425
X260236
X272047
X283858
X289764Y53543
X277953
X254331
X242520
X230709
X218898
X212992Y18110
X354724Y41732
X348819Y53543
X372441
Y29921
Y6299
Y77165
Y100787
Y124409
Y148031
Y171653
Y195275
X360630
X366535Y207086
Y183465
X360630Y171653
X366535Y159842
X354724
Y136220
X366535
X360630Y124409
X348819Y100787
X331102Y112598
Y136220
X319291
X313386Y124409
Y100787
X319291Y88976
X307480
X295669
X283858
X272047
X260236
X266142Y100787
X289764
X295669Y112598
X283858
X289764Y124409
Y148031
X295669Y159842
X307480
X313386Y171653
X325197
X337008
X331102Y159842
X337008Y148031
X331102Y207086
X319291
X295669
X293000Y198000
X291500Y194500
X295669Y183465
X289764Y171653
X283858Y159842
X260236
X248425
X236614
X242520Y171653
X254331
X266142
X260236Y183465
X248425
X230709Y195275
Y171653
Y148031
X236614Y136220
X248425
X254331Y148031
X266142
Y124409
X248425Y112598
X236614
X242520Y100787
X230709
X218898
X230709Y124409
Y77165
X236614Y65354
X224803
X260236
X272047
X283858
X295669
X307480
X289764Y77165
X277953
X212992Y183465
X201181
X189370
X177559
X171653Y195275
X159842
X142126Y183465
X136220Y171653
X124409
X112598
X118504Y183465
X112598Y195275
X88976
X94882Y207086
X83071
Y183465
X71260
X77165Y171653
X88976
X94882Y159842
X83071
X71260
X77165Y148031
X88976
X112598
X124409
X136220
X148031
X159842
X171653
X183465
X195275
X207086
X201181Y159842
X189370
X177559
X165748
X142126
X130315
X118504
X130315Y136220
X142126
X153937
X159842Y124409
X171653
X183465
X195275
X207086
X201181Y136220
X189370
Y112598
X201181
X207086Y100787
X195275
Y77165
X207086
X183465
X159842
Y100787
X148031
X136220
X124409
X130315Y112598
X142126
X153937
X118504
X100787Y124409
X83000Y128000
X83071Y112598
X88976Y100787
X100787
X106693Y88976
X83071
X88976Y77165
X83071Y65354
X130315
X136220Y77165
X65354Y100787
Y171653
Y195275
X59449Y207086
X130315
X189370
X201181
X53543Y195275
X41732
X35827Y207086
X12205
X18110Y195275
X6299
X12205Y183465
X18110Y171653
X6299
X12205Y159842
X6299Y148031
X12205Y136220
X24016
X29921Y124409
X18110
X6299
X12205Y112598
X24016
X29921Y100787
X41732
Y77165
X18110
X6299
X12205Y88976
X24016
X18110Y100787
X6299
X12205Y65354
X53543Y148031
X47638Y159842
X53543Y171653
X41732
X35827Y230709
X12205
X18110Y242520
X6299
X12205Y254331
X18110Y266142
X6299
X12205Y277953
X13318Y288807
X18110Y289764
X6299
Y313386
X18110
X24016Y325197
X29921Y337008
X18110
X6299
X12205Y348819
X24016
X35827
X47638
X53543Y360630
X29921
X6299
X41732Y313386
X40588Y305120
X35827Y301575
X47638
Y277953
X47618Y269607
X53168Y261818
X47262Y255912
X18110Y218898
X6299
X65354
X77165
X88976
X100787
X106693Y230709
X94882
X83071
X71260
X59449
X56500Y253000
X59618Y264907
X59449Y277953
X71018Y279007
X72300Y285200
X76818Y273207
X81000Y276500
X78500Y266100
X89000Y266000
X94500Y250000
X106693Y254331
X130315
Y277953
X125500Y285500
X145500Y286039
X152500Y289000
X165500Y286000
X159842Y266142
Y242520
X170900Y231900
X172100Y225800
X180800Y222900
X189100Y231300
X202800Y227600
X159842Y218898
X130315Y230709
X106693Y277953
X71260Y301575
X59449
X76000Y311000
X80500Y315500
X83071Y348819
X211518Y304707
X209289Y296950
X201181Y277953
X218218Y298207
X220218Y306107
X214018Y312107
X235200Y306200
X250174Y308400
X246118Y323307
X237000Y326000
X218898Y360630
X295669Y348819
X289764Y337008
X295669Y325197
X289764Y313386
X295669Y301575
X289764Y289764
X295669Y277953
X289764Y266142
X295669Y254331
X289764Y242520
X295669Y230709
X289764Y218898
X313386
X325197
X331102Y230709
X342913
X337008Y242520
X325197
X313386
X319291Y254331
X331102
X342913
X337008Y266142
X325197
X313386
X319291Y277953
X331102
X342913
X337008Y289764
X325197
X313386
X319291Y301575
X313386Y313386
X337008
X348819
X348018Y305107
X354724Y301575
X366535
X360630Y313386
X366535Y325197
X354724
X356038Y331834
X360630Y337008
X348819
X354724Y348819
X366535
X368580Y341772
X343496Y350528
X331102Y348819
X317466Y347925
X313386Y337008
X325197
X324565Y329467
X331102Y325197
X342913
X348819Y360630
X345418Y365407
X337008Y360630
X325197
X324565Y366856
X313386Y360630
X360630Y289764
X366535Y277953
X360630Y266142
X366535Y254331
X360630Y242520
X366535Y230709
X360630Y218898
X319291Y230709
X260236
Y254331
X262000Y289500
X248200Y283900
X230709Y266142
Y242520
X220700Y231300
X372441Y242520
Y266142
Y289764
Y313386
Y337008
Y218898
X354724Y372441
X342913
X331102
X319291
X307480
X295669
X47638
X35827
X24016
T02
X215500Y189000
X205500
X195500
X185500
X175500
X165500
X155500
X145500
X135500
X125500
X115500
X44000Y360500
X64000
X54000Y370500
T03
X225500Y189000
X235500
X245500
X255500
X265500
X324500Y107000
X334500
X344500
X56500
X46500
X36500
X89263Y351937
X99263
X109263
X119263
X129263
Y361937
X119263
X109263
X99263
X89263
X164763Y362437
Y352437
X174763
Y362437
X184763
Y352437
X194763
Y362437
X204763
Y352437
X240263Y352937
Y362937
X250263
Y352937
X260263
Y362937
X270263
Y352937
X280263
Y362937
T04
X169705Y30142
Y47858
X195295
Y30142
X217426Y61642
Y79358
X243017
Y61642
Y124642
Y142358
X217426
Y124642
X145185
Y142358
X119595
Y124642
X119605Y79358
Y61642
X145195
Y79358
T05
X66016Y335524
X76016
X86016
X96016
X106016
X116016
X126016
X136016
X146016
X156016
X166016
X176016
X186016
X196016
X206016
X216016
T06
X323158Y122456
X342843
Y179543
X333000
X323158
X56843
Y122456
X37158
Y179543
X47001
T07
X37157Y42736
X47000
X56842
X323657
X333500
X343342
T10
X14500Y18500
X364500Y16500
X16000Y364500
X364500Y364000
T11
X11433Y271012
X11443Y302508
T12
X44362Y213476
Y335524
X339638
Y213476
M30
