G04*
G04 #@! TF.GenerationSoftware,Altium Limited,Altium Designer,20.2.4 (192)*
G04*
G04 Layer_Color=16711935*
%FSLAX25Y25*%
%MOIN*%
G70*
G04*
G04 #@! TF.SameCoordinates,044C43E0-6038-46BE-8CBF-5B013F79F5C9*
G04*
G04*
G04 #@! TF.FilePolarity,Negative*
G04*
G01*
G75*
%ADD17R,0.06312X0.04737*%
%ADD18C,0.06400*%
%ADD19R,0.06706X0.06706*%
%ADD20C,0.06706*%
%ADD21C,0.04737*%
%ADD22C,0.06800*%
%ADD23C,0.11824*%
%ADD24R,0.08200X0.08200*%
%ADD25O,0.09849X0.14179*%
%ADD26O,0.06699X0.07093*%
%ADD27O,0.07093X0.06699*%
%ADD28C,0.07093*%
%ADD29O,0.11424X0.11424*%
%ADD30C,0.08274*%
%ADD31R,0.06102X0.06102*%
%ADD32C,0.06102*%
%ADD33C,0.12611*%
%ADD54R,0.01499X0.06517*%
G04:AMPARAMS|DCode=55|XSize=65.17mil|YSize=14.99mil|CornerRadius=7.5mil|HoleSize=0mil|Usage=FLASHONLY|Rotation=270.000|XOffset=0mil|YOffset=0mil|HoleType=Round|Shape=RoundedRectangle|*
%AMROUNDEDRECTD55*
21,1,0.06517,0.00000,0,0,270.0*
21,1,0.05018,0.01499,0,0,270.0*
1,1,0.01499,0.00000,-0.02509*
1,1,0.01499,0.00000,0.02509*
1,1,0.01499,0.00000,0.02509*
1,1,0.01499,0.00000,-0.02509*
%
%ADD55ROUNDEDRECTD55*%
%ADD66R,0.07185X0.09941*%
%ADD67R,0.09941X0.07185*%
%ADD68R,0.07099X0.03950*%
G04:AMPARAMS|DCode=69|XSize=51.31mil|YSize=47.37mil|CornerRadius=0mil|HoleSize=0mil|Usage=FLASHONLY|Rotation=135.000|XOffset=0mil|YOffset=0mil|HoleType=Round|Shape=Rectangle|*
%AMROTATEDRECTD69*
4,1,4,0.03489,-0.00139,0.00139,-0.03489,-0.03489,0.00139,-0.00139,0.03489,0.03489,-0.00139,0.0*
%
%ADD69ROTATEDRECTD69*%

G04:AMPARAMS|DCode=70|XSize=51.31mil|YSize=47.37mil|CornerRadius=0mil|HoleSize=0mil|Usage=FLASHONLY|Rotation=45.000|XOffset=0mil|YOffset=0mil|HoleType=Round|Shape=Rectangle|*
%AMROTATEDRECTD70*
4,1,4,-0.00139,-0.03489,-0.03489,-0.00139,0.00139,0.03489,0.03489,0.00139,-0.00139,-0.03489,0.0*
%
%ADD70ROTATEDRECTD70*%

G04:AMPARAMS|DCode=71|XSize=63.12mil|YSize=47.37mil|CornerRadius=0mil|HoleSize=0mil|Usage=FLASHONLY|Rotation=315.000|XOffset=0mil|YOffset=0mil|HoleType=Round|Shape=Rectangle|*
%AMROTATEDRECTD71*
4,1,4,-0.03906,0.00557,-0.00557,0.03906,0.03906,-0.00557,0.00557,-0.03906,-0.03906,0.00557,0.0*
%
%ADD71ROTATEDRECTD71*%

%ADD72R,0.04737X0.06312*%
G04:AMPARAMS|DCode=73|XSize=46.13mil|YSize=27.62mil|CornerRadius=0mil|HoleSize=0mil|Usage=FLASHONLY|Rotation=45.000|XOffset=0mil|YOffset=0mil|HoleType=Round|Shape=Rectangle|*
%AMROTATEDRECTD73*
4,1,4,-0.00654,-0.02607,-0.02607,-0.00654,0.00654,0.02607,0.02607,0.00654,-0.00654,-0.02607,0.0*
%
%ADD73ROTATEDRECTD73*%

%ADD74R,0.02900X0.08904*%
%ADD75R,0.03950X0.07099*%
%ADD76R,0.05918X0.03162*%
%ADD77R,0.06312X0.05524*%
%ADD78R,0.08674X0.05524*%
%ADD79R,0.04737X0.05131*%
%ADD80R,0.05131X0.04737*%
D17*
X85000Y262606D02*
D03*
Y254732D02*
D03*
X95000Y262874D02*
D03*
Y255000D02*
D03*
X83500Y303394D02*
D03*
Y311268D02*
D03*
X92000Y303394D02*
D03*
Y311268D02*
D03*
D18*
X44000Y360500D02*
D03*
X54000Y370500D02*
D03*
X64000Y360500D02*
D03*
D19*
X89263Y361937D02*
D03*
X265500Y189000D02*
D03*
X344500Y107000D02*
D03*
X56500D02*
D03*
X164763Y362437D02*
D03*
X240263Y362937D02*
D03*
D20*
X89263Y351937D02*
D03*
X99263Y361937D02*
D03*
Y351937D02*
D03*
X109263Y361937D02*
D03*
Y351937D02*
D03*
X119263Y361937D02*
D03*
Y351937D02*
D03*
X129263Y361937D02*
D03*
Y351937D02*
D03*
X225500Y189000D02*
D03*
X235500D02*
D03*
X245500D02*
D03*
X255500D02*
D03*
X216016Y335524D02*
D03*
X206016D02*
D03*
X196016D02*
D03*
X186016D02*
D03*
X176016D02*
D03*
X166016D02*
D03*
X156016D02*
D03*
X146016D02*
D03*
X136016D02*
D03*
X126016D02*
D03*
X116016D02*
D03*
X106016D02*
D03*
X96016D02*
D03*
X86016D02*
D03*
X76016D02*
D03*
X324500Y107000D02*
D03*
X334500D02*
D03*
X36500D02*
D03*
X46500D02*
D03*
X164763Y352437D02*
D03*
X174763Y362437D02*
D03*
Y352437D02*
D03*
X184763Y362437D02*
D03*
Y352437D02*
D03*
X194763Y362437D02*
D03*
Y352437D02*
D03*
X204763Y362437D02*
D03*
Y352437D02*
D03*
X240263Y352937D02*
D03*
X250263Y362937D02*
D03*
Y352937D02*
D03*
X260263Y362937D02*
D03*
Y352937D02*
D03*
X270263Y362937D02*
D03*
Y352937D02*
D03*
X280263Y362937D02*
D03*
Y352937D02*
D03*
D21*
X11433Y271012D02*
D03*
X11443Y302508D02*
D03*
D22*
X115500Y189000D02*
D03*
X125500D02*
D03*
X135500D02*
D03*
X145500D02*
D03*
X155500D02*
D03*
X165500D02*
D03*
X175500D02*
D03*
X185500D02*
D03*
X195500D02*
D03*
X205500D02*
D03*
X215500D02*
D03*
D23*
X339638Y213476D02*
D03*
Y335524D02*
D03*
X44362Y213476D02*
D03*
Y335524D02*
D03*
D24*
X66016D02*
D03*
D25*
X311347Y150015D02*
D03*
X354654D02*
D03*
X25347D02*
D03*
X68654D02*
D03*
D26*
X323158Y122456D02*
D03*
X37158D02*
D03*
D27*
X342843D02*
D03*
X56843D02*
D03*
D28*
X323158Y179543D02*
D03*
X333000D02*
D03*
X342843D02*
D03*
X37158D02*
D03*
X47001D02*
D03*
X56843D02*
D03*
D29*
X352201Y72264D02*
D03*
X314799D02*
D03*
X65701D02*
D03*
X28300D02*
D03*
D30*
X343342Y42736D02*
D03*
X333500D02*
D03*
X323657D02*
D03*
X56842D02*
D03*
X47000D02*
D03*
X37157D02*
D03*
D31*
X169705Y47858D02*
D03*
X217426Y79358D02*
D03*
X145195Y61642D02*
D03*
X217426Y142358D02*
D03*
X145185Y124642D02*
D03*
D32*
X195295Y47858D02*
D03*
X169705Y30142D02*
D03*
X195295D02*
D03*
X243017Y79358D02*
D03*
X217426Y61642D02*
D03*
X243017D02*
D03*
X119605D02*
D03*
X145195Y79358D02*
D03*
X119605D02*
D03*
X243017Y142358D02*
D03*
X217426Y124642D02*
D03*
X243017D02*
D03*
X119595D02*
D03*
X145185Y142358D02*
D03*
X119595D02*
D03*
D33*
X14500Y18500D02*
D03*
X364500Y364000D02*
D03*
X16000Y364500D02*
D03*
X364500Y16500D02*
D03*
D54*
X80823Y294124D02*
D03*
D55*
X83382D02*
D03*
X85941D02*
D03*
X88500D02*
D03*
X91059D02*
D03*
X93618D02*
D03*
X96177D02*
D03*
Y271876D02*
D03*
X93618D02*
D03*
X91059D02*
D03*
X88500D02*
D03*
X85941D02*
D03*
X83382D02*
D03*
X80823D02*
D03*
D66*
X230550Y331049D02*
D03*
X204875Y233197D02*
D03*
X194375D02*
D03*
X215375D02*
D03*
X250050Y275549D02*
D03*
X259550Y275549D02*
D03*
D67*
X256951Y296050D02*
D03*
Y306050D02*
D03*
X256451Y319050D02*
D03*
Y328050D02*
D03*
D68*
X230500Y334051D02*
D03*
Y327949D02*
D03*
X204925Y230195D02*
D03*
Y236297D02*
D03*
X194425Y230195D02*
D03*
Y236297D02*
D03*
X215425Y230195D02*
D03*
Y236297D02*
D03*
X250000Y278551D02*
D03*
Y272449D02*
D03*
X259500Y278551D02*
D03*
Y272449D02*
D03*
D69*
X76866Y262134D02*
D03*
X72134Y266866D02*
D03*
X209134Y308366D02*
D03*
X213866Y303634D02*
D03*
D70*
X66366Y261866D02*
D03*
X61634Y257134D02*
D03*
D71*
X203704Y244525D02*
D03*
X209271Y250092D02*
D03*
X191204Y243525D02*
D03*
X196771Y249092D02*
D03*
X217204Y244024D02*
D03*
X222771Y249592D02*
D03*
X192778Y318278D02*
D03*
X198346Y323846D02*
D03*
X198000Y312500D02*
D03*
X203568Y318068D02*
D03*
D72*
X163894Y252000D02*
D03*
X171768D02*
D03*
D73*
X171293Y243082D02*
D03*
X176583Y237793D02*
D03*
X167062Y233561D02*
D03*
D74*
X202500Y263602D02*
D03*
X197500Y263602D02*
D03*
X192500Y263602D02*
D03*
X187500D02*
D03*
X182500D02*
D03*
X177500D02*
D03*
X172500Y263602D02*
D03*
X167500Y263602D02*
D03*
Y301398D02*
D03*
X172500Y301398D02*
D03*
X177500Y301398D02*
D03*
X182500D02*
D03*
X187500D02*
D03*
X192500D02*
D03*
X197500Y301398D02*
D03*
X202500Y301398D02*
D03*
D75*
X253949Y296000D02*
D03*
X260051D02*
D03*
X253949Y306000D02*
D03*
X260051D02*
D03*
X253449Y319000D02*
D03*
X259551D02*
D03*
X253449Y328000D02*
D03*
X259551D02*
D03*
D76*
X53772Y299558D02*
D03*
Y295227D02*
D03*
Y290896D02*
D03*
Y286565D02*
D03*
Y282235D02*
D03*
Y277904D02*
D03*
Y273573D02*
D03*
Y269243D02*
D03*
Y264912D02*
D03*
D77*
X50424Y260581D02*
D03*
Y318377D02*
D03*
D78*
X12228Y321051D02*
D03*
Y259949D02*
D03*
D79*
X301000Y135346D02*
D03*
Y128654D02*
D03*
X254500Y135346D02*
D03*
Y128654D02*
D03*
Y74846D02*
D03*
Y68154D02*
D03*
X109000Y73846D02*
D03*
Y67154D02*
D03*
Y135346D02*
D03*
Y128654D02*
D03*
X78500Y135346D02*
D03*
Y128654D02*
D03*
D80*
X178654Y57500D02*
D03*
X185346D02*
D03*
X61154Y286500D02*
D03*
X67847D02*
D03*
M02*
