M48
;Layer_Color=9474304
;FILE_FORMAT=2:5
INCH,LZ
;TYPE=PLATED
T1F00S00C0.01181
T2F00S00C0.03000
T3F00S00C0.03543
T4F00S00C0.03937
T5F00S00C0.04000
T6F00S00C0.04331
T7F00S00C0.04724
T10F00S00C0.12598
;TYPE=NON_PLATED
T11F00S00C0.03937
T12F00S00C0.11024
%
T01
X0006299Y0006299
X001811
X0029921
X0041732
X0053543
X0047638Y001811
X0035827
X0024016
X0029921Y0029921
X001811
X0006299
X0012205Y0041732
X0024016
X0029921Y0053543
X0041732
X001811
X0006299
X0065354
X0088976
X0094882Y0041732
X0106693
X0118504
X0130315
X0142126
X0153937
X0159842Y0029921
X0148031
X013622
X0124409
X0112598
X0100787
X0088976
X0077165
X0083071Y0041732
Y001811
X0094882
X0106693
X0118504
X0130315
X0142126
X0153937
X0165748
X0177559
X018937
X0201181
X0207086Y0029921
Y0053543
Y0006299
X0195275
X0183465
X0171653
X0159842
X0148031
X013622
X0124409
X0112598
X0100787
X0088976
X0077165
X0065354
X007126Y001811
X0059449
X0183465Y0029921
X0218898
X0230709
X024252
X0254331
X0266142
X0277953
X0289764
X0295669Y001811
X030748
X0319291
X0331102
X0342913
X0354724
X036063Y0006299
X0348819
X0337008
X0325197
X0313386
X0301575
X0289764
X0277953
X0266142
X0254331
X024252
X0230709
X0218898
X0224803Y001811
X0236614
X0248425
X0260236
X0272047
X0283858
X0289764Y0053543
X0277953
X0254331
X024252
X0230709
X0218898
X0212992Y001811
X0354724Y0041732
X0348819Y0053543
X0372441
Y0029921
Y0006299
Y0077165
Y0100787
Y0124409
Y0148031
Y0171653
Y0195275
X036063
X0366535Y0207086
Y0183465
X036063Y0171653
X0366535Y0159842
X0354724
Y013622
X0366535
X036063Y0124409
X0348819Y0100787
X0331102Y0112598
Y013622
X0319291
X0313386Y0124409
Y0100787
X0319291Y0088976
X030748
X0295669
X0283858
X0272047
X0260236
X0266142Y0100787
X0289764
X0295669Y0112598
X0283858
X0289764Y0124409
Y0148031
X0295669Y0159842
X030748
X0313386Y0171653
X0325197
X0337008
X0331102Y0159842
X0337008Y0148031
X0331102Y0207086
X0319291
X0295669
X0293Y0198
X02915Y01945
X0295669Y0183465
X0289764Y0171653
X0283858Y0159842
X0260236
X0248425
X0236614
X024252Y0171653
X0254331
X0266142
X0260236Y0183465
X0248425
X0230709Y0195275
Y0171653
Y0148031
X0236614Y013622
X0248425
X0254331Y0148031
X0266142
Y0124409
X0248425Y0112598
X0236614
X024252Y0100787
X0230709
X0218898
X0230709Y0124409
Y0077165
X0236614Y0065354
X0224803
X0260236
X0272047
X0283858
X0295669
X030748
X0289764Y0077165
X0277953
X0212992Y0183465
X0201181
X018937
X0177559
X0171653Y0195275
X0159842
X0142126Y0183465
X013622Y0171653
X0124409
X0112598
X0118504Y0183465
X0112598Y0195275
X0088976
X0094882Y0207086
X0083071
Y0183465
X007126
X0077165Y0171653
X0088976
X0094882Y0159842
X0083071
X007126
X0077165Y0148031
X0088976
X0112598
X0124409
X013622
X0148031
X0159842
X0171653
X0183465
X0195275
X0207086
X0201181Y0159842
X018937
X0177559
X0165748
X0142126
X0130315
X0118504
X0130315Y013622
X0142126
X0153937
X0159842Y0124409
X0171653
X0183465
X0195275
X0207086
X0201181Y013622
X018937
Y0112598
X0201181
X0207086Y0100787
X0195275
Y0077165
X0207086
X0183465
X0159842
Y0100787
X0148031
X013622
X0124409
X0130315Y0112598
X0142126
X0153937
X0118504
X0100787Y0124409
X0083Y0128
X0083071Y0112598
X0088976Y0100787
X0100787
X0106693Y0088976
X0083071
X0088976Y0077165
X0083071Y0065354
X0130315
X013622Y0077165
X0065354Y0100787
Y0171653
Y0195275
X0059449Y0207086
X0130315
X018937
X0201181
X0053543Y0195275
X0041732
X0035827Y0207086
X0012205
X001811Y0195275
X0006299
X0012205Y0183465
X001811Y0171653
X0006299
X0012205Y0159842
X0006299Y0148031
X0012205Y013622
X0024016
X0029921Y0124409
X001811
X0006299
X0012205Y0112598
X0024016
X0029921Y0100787
X0041732
Y0077165
X001811
X0006299
X0012205Y0088976
X0024016
X001811Y0100787
X0006299
X0012205Y0065354
X0053543Y0148031
X0047638Y0159842
X0053543Y0171653
X0041732
X0035827Y0230709
X0012205
X001811Y024252
X0006299
X0012205Y0254331
X001811Y0266142
X0006299
X0012205Y0277953
X0013318Y0288807
X001811Y0289764
X0006299
Y0313386
X001811
X0024016Y0325197
X0029921Y0337008
X001811
X0006299
X0012205Y0348819
X0024016
X0035827
X0047638
X0053543Y036063
X0029921
X0006299
X0041732Y0313386
X0040588Y030512
X0035827Y0301575
X0047638
Y0277953
X0047618Y0269607
X0053168Y0261818
X0047262Y0255912
X001811Y0218898
X0006299
X0065354
X0077165
X0088976
X0100787
X0106693Y0230709
X0094882
X0083071
X007126
X0059449
X00565Y0253
X0059618Y0264907
X0059449Y0277953
X0071018Y0279007
X00723Y02852
X0076818Y0273207
X0081Y02765
X00785Y02661
X0089Y0266
X00945Y025
X0106693Y0254331
X0130315
Y0277953
X01255Y02855
X01455Y0286039
X01525Y0289
X01655Y0286
X0159842Y0266142
Y024252
X01709Y02319
X01721Y02258
X01808Y02229
X01891Y02313
X02028Y02276
X0159842Y0218898
X0130315Y0230709
X0106693Y0277953
X007126Y0301575
X0059449
X0076Y0311
X00805Y03155
X0083071Y0348819
X0211518Y0304707
X0209289Y029695
X0201181Y0277953
X0218218Y0298207
X0220218Y0306107
X0214018Y0312107
X02352Y03062
X0250174Y03084
X0246118Y0323307
X0237Y0326
X0218898Y036063
X0295669Y0348819
X0289764Y0337008
X0295669Y0325197
X0289764Y0313386
X0295669Y0301575
X0289764Y0289764
X0295669Y0277953
X0289764Y0266142
X0295669Y0254331
X0289764Y024252
X0295669Y0230709
X0289764Y0218898
X0313386
X0325197
X0331102Y0230709
X0342913
X0337008Y024252
X0325197
X0313386
X0319291Y0254331
X0331102
X0342913
X0337008Y0266142
X0325197
X0313386
X0319291Y0277953
X0331102
X0342913
X0337008Y0289764
X0325197
X0313386
X0319291Y0301575
X0313386Y0313386
X0337008
X0348819
X0348018Y0305107
X0354724Y0301575
X0366535
X036063Y0313386
X0366535Y0325197
X0354724
X0356038Y0331834
X036063Y0337008
X0348819
X0354724Y0348819
X0366535
X036858Y0341772
X0343496Y0350528
X0331102Y0348819
X0317466Y0347925
X0313386Y0337008
X0325197
X0324565Y0329467
X0331102Y0325197
X0342913
X0348819Y036063
X0345418Y0365407
X0337008Y036063
X0325197
X0324565Y0366856
X0313386Y036063
X036063Y0289764
X0366535Y0277953
X036063Y0266142
X0366535Y0254331
X036063Y024252
X0366535Y0230709
X036063Y0218898
X0319291Y0230709
X0260236
Y0254331
X0262Y02895
X02482Y02839
X0230709Y0266142
Y024252
X02207Y02313
X0372441Y024252
Y0266142
Y0289764
Y0313386
Y0337008
Y0218898
X0354724Y0372441
X0342913
X0331102
X0319291
X030748
X0295669
X0047638
X0035827
X0024016
T02
X02155Y0189
X02055
X01955
X01855
X01755
X01655
X01555
X01455
X01355
X01255
X01155
X0044Y03605
X0064
X0054Y03705
T03
X02255Y0189
X02355
X02455
X02555
X02655
X03245Y0107
X03345
X03445
X00565
X00465
X00365
X0089263Y0351937
Y0361937
X0099263
Y0351937
X0109263
Y0361937
X0119263
Y0351937
X0129263
Y0361937
X0164763Y0362437
Y0352437
X0174763
Y0362437
X0184763
Y0352437
X0194763
Y0362437
X0204763
Y0352437
X0240263Y0352937
Y0362937
X0250263
Y0352937
X0260263
Y0362937
X0270263
Y0352937
X0280263
Y0362937
T04
X0169705Y0030142
Y0047858
X0195295
Y0030142
X0217426Y0061642
Y0079358
X0243017
Y0061642
Y0124642
Y0142358
X0217426
Y0124642
X0145185
Y0142358
X0119595
Y0124642
X0119605Y0079358
Y0061642
X0145195
Y0079358
T05
X0066016Y0335524
X0076016
X0086016
X0096016
X0106016
X0116016
X0126016
X0136016
X0146016
X0156016
X0166016
X0176016
X0186016
X0196016
X0206016
X0216016
T06
X0323158Y0122456
X0342843
Y0179543
X0333
X0323158
X0056843
Y0122456
X0037158
Y0179543
X0047001
T07
X0037157Y0042736
X0047
X0056842
X0323657
X03335
X0343342
T10
X00145Y00185
X03645Y00165
X0016Y03645
X03645Y0364
T11
X0011433Y0271012
X0011443Y0302508
T12
X0044362Y0213476
Y0335524
X0339638
Y0213476
M30
