G04*
G04 #@! TF.GenerationSoftware,Altium Limited,Altium Designer,20.2.4 (192)*
G04*
G04 Layer_Color=65535*
%FSLAX25Y25*%
%MOIN*%
G70*
G04*
G04 #@! TF.SameCoordinates,044C43E0-6038-46BE-8CBF-5B013F79F5C9*
G04*
G04*
G04 #@! TF.FilePolarity,Positive*
G04*
G01*
G75*
%ADD10C,0.00787*%
%ADD11C,0.01000*%
%ADD12C,0.00984*%
%ADD13C,0.00600*%
%ADD14C,0.00500*%
%ADD15C,0.00394*%
D10*
X31961Y335524D02*
G03*
X31961Y335524I-394J0D01*
G01*
X349500Y102000D02*
Y112000D01*
X319500Y102000D02*
X349500D01*
X319500D02*
Y112000D01*
X349500D01*
X61500Y102000D02*
Y112000D01*
X31500Y102000D02*
X61500D01*
X31500D02*
Y112000D01*
X61500D01*
X174232Y26795D02*
X190768D01*
X170295Y34669D02*
Y43331D01*
X174232Y51205D02*
X190768D01*
X194705Y34669D02*
Y43331D01*
X221954Y58295D02*
X238489D01*
X218017Y66169D02*
Y74831D01*
X221954Y82705D02*
X238489D01*
X242426Y66169D02*
Y74831D01*
X124132Y82705D02*
X140668D01*
X144605Y66169D02*
Y74831D01*
X124132Y58295D02*
X140668D01*
X120195Y66169D02*
Y74831D01*
X221954Y121295D02*
X238489D01*
X218017Y129169D02*
Y137831D01*
X221954Y145705D02*
X238489D01*
X242426Y129169D02*
Y137831D01*
X124122Y145705D02*
X140657D01*
X144595Y129169D02*
Y137831D01*
X124122Y121295D02*
X140657D01*
X120185Y129169D02*
Y137831D01*
D11*
X342972Y150015D02*
G03*
X342972Y150015I-9973J0D01*
G01*
X346780D02*
G03*
X346780Y150015I-13780J0D01*
G01*
X348748D02*
G03*
X348748Y150015I-15748J0D01*
G01*
X338531Y144469D02*
G03*
X327391Y144547I-5532J5547D01*
G01*
X350000Y76764D02*
G03*
X317036Y76894I-16500J-4500D01*
G01*
X317000Y67764D02*
G03*
X350000Y67764I16500J4500D01*
G01*
X348000Y76764D02*
G03*
X319046Y76910I-14500J-4500D01*
G01*
X319151Y67764D02*
G03*
X348105Y67618I14500J4500D01*
G01*
X327500Y76764D02*
G03*
X340505Y72259I5413J-5397D01*
G01*
X345604Y72264D02*
G03*
X345604Y72264I-12104J0D01*
G01*
X56972Y150015D02*
G03*
X56972Y150015I-9973J0D01*
G01*
X60781D02*
G03*
X60781Y150015I-13780J0D01*
G01*
X62748D02*
G03*
X62748Y150015I-15748J0D01*
G01*
X52531Y144469D02*
G03*
X41391Y144547I-5532J5547D01*
G01*
X63500Y76764D02*
G03*
X30537Y76894I-16500J-4500D01*
G01*
X30501Y67764D02*
G03*
X63500Y67764I16500J4500D01*
G01*
X61501Y76764D02*
G03*
X32547Y76910I-14500J-4500D01*
G01*
X32652Y67764D02*
G03*
X61606Y67618I14500J4500D01*
G01*
X41001Y76764D02*
G03*
X54005Y72259I5413J-5397D01*
G01*
X59105Y72264D02*
G03*
X59105Y72264I-12104J0D01*
G01*
X23555Y18500D02*
G03*
X14500Y27555I-9055J0D01*
G01*
X5445Y18500D02*
G03*
X14500Y9445I9055J0D01*
G01*
X25917Y18500D02*
G03*
X14500Y29917I-11417J0D01*
G01*
X3083Y18500D02*
G03*
X14500Y7083I11417J0D01*
G01*
X28280Y18500D02*
G03*
X14500Y32280I-13780J0D01*
G01*
X721Y18500D02*
G03*
X14500Y4721I13780J0D01*
G01*
X350721Y364000D02*
G03*
X364500Y350220I13780J0D01*
G01*
X378279Y364000D02*
G03*
X364500Y377780I-13780J0D01*
G01*
X353083Y364000D02*
G03*
X364500Y352583I11417J0D01*
G01*
X375917Y364000D02*
G03*
X364500Y375417I-11417J0D01*
G01*
X355445Y364000D02*
G03*
X364500Y354945I9055J0D01*
G01*
X373555Y364000D02*
G03*
X364500Y373055I-9055J0D01*
G01*
X16000Y355445D02*
G03*
X25055Y364500I0J9055D01*
G01*
X16000Y373555D02*
G03*
X6945Y364500I0J-9055D01*
G01*
X16000Y353083D02*
G03*
X27417Y364500I0J11417D01*
G01*
X16000Y375917D02*
G03*
X4583Y364500I0J-11417D01*
G01*
X16000Y350721D02*
G03*
X29779Y364500I0J13780D01*
G01*
X16000Y378279D02*
G03*
X2221Y364500I0J-13780D01*
G01*
X364500Y30279D02*
G03*
X350721Y16500I0J-13780D01*
G01*
X364500Y2720D02*
G03*
X378279Y16500I0J13780D01*
G01*
X364500Y27917D02*
G03*
X353083Y16500I0J-11417D01*
G01*
X364500Y5083D02*
G03*
X375917Y16500I0J11417D01*
G01*
X364500Y25555D02*
G03*
X355445Y16500I0J-9055D01*
G01*
X364500Y7445D02*
G03*
X373555Y16500I0J9055D01*
G01*
X309772Y173638D02*
X356229D01*
Y126393D02*
Y142441D01*
Y157590D02*
Y173362D01*
X309772Y126393D02*
Y142441D01*
Y157590D02*
Y173638D01*
Y126393D02*
X356229D01*
X326110Y143266D02*
X327391Y144547D01*
X326110Y143244D02*
Y143266D01*
Y143244D02*
X339063D01*
X338155Y144118D02*
X339029Y143244D01*
X339063D01*
X327316Y144624D02*
X327822Y144118D01*
X338155D01*
X326000Y81264D02*
X345000Y74264D01*
X340500Y72264D02*
X345000Y74264D01*
X327500Y76764D02*
X340500Y72264D01*
X326000Y81264D02*
X327500Y76764D01*
X346162Y46673D02*
X354563D01*
X336320D02*
X340522D01*
X326477D02*
X330680D01*
X312437D02*
X320837D01*
X354563D02*
Y67481D01*
X354563Y77046D02*
Y91358D01*
X312437Y46673D02*
Y67481D01*
Y77046D02*
Y91358D01*
X354563D01*
X23772Y173638D02*
X70229D01*
Y126393D02*
Y142441D01*
Y157590D02*
Y173362D01*
X23772Y126393D02*
Y142441D01*
Y157590D02*
Y173638D01*
Y126393D02*
X70229D01*
X40110Y143266D02*
X41391Y144547D01*
X40110Y143244D02*
Y143266D01*
Y143244D02*
X53063D01*
X52155Y144118D02*
X53029Y143244D01*
X53063D01*
X41317Y144624D02*
X41822Y144118D01*
X52155D01*
X39500Y81264D02*
X58500Y74264D01*
X54001Y72264D02*
X58500Y74264D01*
X41001Y76764D02*
X54001Y72264D01*
X39500Y81264D02*
X41001Y76764D01*
X59663Y46673D02*
X68063D01*
X49821D02*
X54022D01*
X39978D02*
X44180D01*
X25938D02*
X34337D01*
X68063D02*
Y67481D01*
X68063Y77046D02*
Y91358D01*
X25938Y46673D02*
Y67481D01*
Y77046D02*
Y91358D01*
X68063D01*
X14500Y4720D02*
Y9445D01*
X23555Y18500D02*
X28280D01*
X14500Y27555D02*
Y32279D01*
X721Y18500D02*
X5445D01*
X350721Y364000D02*
X355445D01*
X364500Y373055D02*
X364500Y377780D01*
X373555Y364000D02*
X378280D01*
X364500Y350221D02*
X364500Y354945D01*
X2221Y364500D02*
X6945Y364500D01*
X16000Y350720D02*
Y355445D01*
X25055Y364500D02*
X29780Y364500D01*
X16000Y373555D02*
Y378279D01*
X364500Y25555D02*
Y30279D01*
X373555Y16500D02*
X378279D01*
X364500Y2720D02*
Y7445D01*
X350720Y16500D02*
X355445D01*
X25052Y348293D02*
X28586Y344759D01*
X30000D01*
X31414Y346172D01*
Y347586D01*
X27879Y351121D01*
X33534Y348293D02*
X34948Y349707D01*
X34241Y349000D01*
X30000Y353241D01*
Y351828D01*
X184741Y17414D02*
X186155D01*
X187569Y18827D01*
Y20241D01*
X186862Y20948D01*
X185448D01*
X184034Y19534D01*
X182621D01*
X181914Y20241D01*
Y21655D01*
X183327Y23069D01*
X184741D01*
X184034Y15293D02*
X179793Y19534D01*
Y16707D01*
X176966D01*
X181207Y12466D01*
X179793Y11052D02*
X176966Y8224D01*
X176259Y8931D01*
Y14586D01*
X175552Y15293D01*
X233184Y49414D02*
X234598D01*
X236012Y50827D01*
Y52241D01*
X235305Y52948D01*
X233891D01*
X232477Y51534D01*
X231064D01*
X230357Y52241D01*
Y53655D01*
X231770Y55069D01*
X233184D01*
X232477Y47293D02*
X228236Y51534D01*
Y48707D01*
X225408D01*
X229650Y44466D01*
X225408Y40224D02*
X226115Y42345D01*
Y45173D01*
X224702Y46586D01*
X223288D01*
X221874Y45173D01*
Y43759D01*
X222581Y43052D01*
X223995D01*
X226115Y45173D01*
X137031Y49414D02*
X138445D01*
X139859Y50827D01*
Y52241D01*
X139152Y52948D01*
X137738D01*
X136324Y51534D01*
X134910D01*
X134204Y52241D01*
Y53655D01*
X135617Y55069D01*
X137031D01*
X136324Y47293D02*
X132083Y51534D01*
Y48707D01*
X129255D01*
X133497Y44466D01*
X129255Y40224D02*
X132083Y43052D01*
X129962Y45173D01*
X129255Y43052D01*
X128549Y42345D01*
X127135D01*
X125721Y43759D01*
Y45173D01*
X127135Y46586D01*
X128549D01*
X232684Y111914D02*
X234098D01*
X235512Y113328D01*
Y114741D01*
X234805Y115448D01*
X233391D01*
X231977Y114034D01*
X230563D01*
X229857Y114741D01*
Y116155D01*
X231270Y117569D01*
X232684D01*
X231977Y109793D02*
X227736Y114034D01*
Y111207D01*
X224908D01*
X229150Y106966D01*
X221374Y107673D02*
X225615Y103431D01*
Y107673D01*
X222788Y104845D01*
X129759Y155086D02*
X128345D01*
X126931Y153673D01*
Y152259D01*
X127638Y151552D01*
X129052D01*
X130466Y152966D01*
X131879D01*
X132586Y152259D01*
Y150845D01*
X131173Y149431D01*
X129759D01*
X130466Y157207D02*
X134707Y152966D01*
Y155793D01*
X137534D01*
X133293Y160034D01*
X135414Y160741D02*
Y162155D01*
X136828Y163569D01*
X138241D01*
X138948Y162862D01*
Y161448D01*
X138241Y160741D01*
X138948Y161448D01*
X140362D01*
X141069Y160741D01*
Y159327D01*
X139655Y157914D01*
X138241D01*
X295759Y178086D02*
X294345D01*
X292931Y176672D01*
Y175259D01*
X293638Y174552D01*
X295052D01*
X296466Y175966D01*
X297879D01*
X298586Y175259D01*
Y173845D01*
X297172Y172431D01*
X295759D01*
X296466Y180207D02*
X300707Y175966D01*
Y178793D01*
X303534D01*
X299293Y183034D01*
X307776D02*
X304948Y180207D01*
Y185862D01*
X304241Y186569D01*
X302828D01*
X301414Y185155D01*
Y183741D01*
X74793Y182534D02*
Y183948D01*
X73379Y185362D01*
X71966D01*
X71259Y184655D01*
Y183241D01*
X72672Y181827D01*
Y180414D01*
X71966Y179707D01*
X70552D01*
X69138Y181121D01*
Y182534D01*
X76914Y181827D02*
X72672Y177586D01*
X75500D01*
Y174759D01*
X79741Y179000D01*
X76914Y173345D02*
X78328Y171931D01*
X77621Y172638D01*
X81862Y176879D01*
X80448D01*
X304586Y90345D02*
X300345Y94586D01*
X302466Y96707D01*
X303879D01*
X305293Y95293D01*
Y93879D01*
X303172Y91759D01*
X304586Y93173D02*
X307414D01*
Y101655D02*
X306707Y99534D01*
Y96707D01*
X308121Y95293D01*
X309534D01*
X310948Y96707D01*
Y98121D01*
X310241Y98827D01*
X308827D01*
X306707Y96707D01*
X68845Y97914D02*
X73086Y102155D01*
X75207Y100034D01*
Y98621D01*
X73793Y97207D01*
X72379D01*
X70259Y99327D01*
X71672Y97914D02*
Y95086D01*
X80155D02*
X77328Y97914D01*
X75207Y95793D01*
X77328Y95086D01*
X78034Y94379D01*
Y92966D01*
X76621Y91552D01*
X75207D01*
X73793Y92966D01*
Y94379D01*
X190345Y108914D02*
X194586Y113155D01*
X196707Y111034D01*
Y109621D01*
X195293Y108207D01*
X193879D01*
X191759Y110327D01*
X193173Y108914D02*
Y106086D01*
X198121Y108207D02*
X199534D01*
X200948Y106793D01*
Y105379D01*
X200241Y104673D01*
X198828D01*
X198121Y105379D01*
X198828Y104673D01*
Y103259D01*
X198121Y102552D01*
X196707D01*
X195293Y103966D01*
Y105379D01*
X161552Y107793D02*
X165793Y103552D01*
X167914Y105673D01*
Y107086D01*
X165086Y109914D01*
X163672D01*
X161552Y107793D01*
X170034D02*
X171448Y109207D01*
X170741Y108500D01*
X166500Y112741D01*
Y111328D01*
X358500Y108999D02*
X357501Y109999D01*
X355501D01*
X354502Y108999D01*
Y105001D01*
X355501Y104001D01*
X357501D01*
X358500Y105001D01*
X364498Y104001D02*
X360500D01*
X364498Y108000D01*
Y108999D01*
X363499Y109999D01*
X361499D01*
X360500Y108999D01*
X24500D02*
X23500Y109999D01*
X21501D01*
X20501Y108999D01*
Y105001D01*
X21501Y104001D01*
X23500D01*
X24500Y105001D01*
X26499Y104001D02*
X28499D01*
X27499D01*
Y109999D01*
X26499Y108999D01*
D12*
X164882Y47858D02*
G03*
X164882Y47858I-492J0D01*
G01*
X212603Y79358D02*
G03*
X212603Y79358I-492J0D01*
G01*
X151002Y61642D02*
G03*
X151002Y61642I-492J0D01*
G01*
X212603Y142358D02*
G03*
X212603Y142358I-492J0D01*
G01*
X150992Y124642D02*
G03*
X150992Y124642I-492J0D01*
G01*
D13*
X185683Y154700D02*
G03*
X184083Y154700I-800J1600D01*
G01*
X185683D02*
X186583Y152400D01*
X187183Y152700D01*
X188383Y151900D01*
X189283Y152800D01*
X188383Y154100D02*
X189283Y152800D01*
X188383Y154100D02*
X188983Y155400D01*
X190383Y155700D01*
Y157000D01*
X188883Y157300D02*
X190383Y157000D01*
X188383Y158500D02*
X188883Y157300D01*
X188383Y158500D02*
X189283Y159800D01*
X188383Y160700D02*
X189283Y159800D01*
X186983D02*
X188383Y160700D01*
X185783Y160300D02*
X186983Y159800D01*
X185483Y161900D02*
X185783Y160300D01*
X184183Y161900D02*
X185483D01*
X183883Y160300D02*
X184183Y161900D01*
X182683Y159800D02*
X183883Y160300D01*
X181383Y160700D02*
X182683Y159800D01*
X180483D02*
X181383Y160700D01*
X180483Y159800D02*
X181383Y158500D01*
X180783Y157200D02*
X181383Y158500D01*
X179283Y157000D02*
X180783Y157200D01*
X179283Y155700D02*
Y157000D01*
Y155700D02*
X180783Y155400D01*
X181283Y154100D01*
X180483Y152800D02*
X181283Y154100D01*
X180483Y152800D02*
X181383Y151900D01*
X182583Y152700D01*
X183083Y152400D01*
X184083Y154700D01*
D14*
X34520Y203634D02*
Y345366D01*
Y203634D02*
X349480D01*
Y345366D01*
X34520D02*
X349480D01*
D15*
X173638Y99693D02*
X174425D01*
X177535Y99811D02*
X178323D01*
X178362Y97488D02*
Y108512D01*
X173638Y97488D02*
X178362D01*
X173638D02*
Y108512D01*
X178362D01*
M02*
