G04*
G04 #@! TF.GenerationSoftware,Altium Limited,Altium Designer,20.2.4 (192)*
G04*
G04 Layer_Color=8388736*
%FSLAX25Y25*%
%MOIN*%
G70*
G04*
G04 #@! TF.SameCoordinates,044C43E0-6038-46BE-8CBF-5B013F79F5C9*
G04*
G04*
G04 #@! TF.FilePolarity,Negative*
G04*
G01*
G75*
%ADD16R,0.03950X0.03950*%
%ADD17R,0.06312X0.04737*%
%ADD18C,0.06400*%
%ADD19R,0.06706X0.06706*%
%ADD20C,0.06706*%
%ADD21C,0.04737*%
%ADD22C,0.06800*%
%ADD23C,0.11824*%
%ADD24R,0.08200X0.08200*%
%ADD25O,0.09849X0.14179*%
%ADD26O,0.06699X0.07093*%
%ADD27O,0.07093X0.06699*%
%ADD28C,0.07093*%
%ADD29O,0.11424X0.11424*%
%ADD30C,0.08274*%
%ADD31R,0.06102X0.06102*%
%ADD32C,0.06102*%
%ADD33C,0.12611*%
D16*
X176000Y99850D02*
D03*
Y106150D02*
D03*
D17*
X185000Y99394D02*
D03*
Y107268D02*
D03*
D18*
X44000Y360500D02*
D03*
X54000Y370500D02*
D03*
X64000Y360500D02*
D03*
D19*
X89263Y361937D02*
D03*
X265500Y189000D02*
D03*
X344500Y107000D02*
D03*
X56500D02*
D03*
X164763Y362437D02*
D03*
X240263Y362937D02*
D03*
D20*
X89263Y351937D02*
D03*
X99263Y361937D02*
D03*
Y351937D02*
D03*
X109263Y361937D02*
D03*
Y351937D02*
D03*
X119263Y361937D02*
D03*
Y351937D02*
D03*
X129263Y361937D02*
D03*
Y351937D02*
D03*
X225500Y189000D02*
D03*
X235500D02*
D03*
X245500D02*
D03*
X255500D02*
D03*
X216016Y335524D02*
D03*
X206016D02*
D03*
X196016D02*
D03*
X186016D02*
D03*
X176016D02*
D03*
X166016D02*
D03*
X156016D02*
D03*
X146016D02*
D03*
X136016D02*
D03*
X126016D02*
D03*
X116016D02*
D03*
X106016D02*
D03*
X96016D02*
D03*
X86016D02*
D03*
X76016D02*
D03*
X324500Y107000D02*
D03*
X334500D02*
D03*
X36500D02*
D03*
X46500D02*
D03*
X164763Y352437D02*
D03*
X174763Y362437D02*
D03*
Y352437D02*
D03*
X184763Y362437D02*
D03*
Y352437D02*
D03*
X194763Y362437D02*
D03*
Y352437D02*
D03*
X204763Y362437D02*
D03*
Y352437D02*
D03*
X240263Y352937D02*
D03*
X250263Y362937D02*
D03*
Y352937D02*
D03*
X260263Y362937D02*
D03*
Y352937D02*
D03*
X270263Y362937D02*
D03*
Y352937D02*
D03*
X280263Y362937D02*
D03*
Y352937D02*
D03*
D21*
X11433Y271012D02*
D03*
X11443Y302508D02*
D03*
D22*
X115500Y189000D02*
D03*
X125500D02*
D03*
X135500D02*
D03*
X145500D02*
D03*
X155500D02*
D03*
X165500D02*
D03*
X175500D02*
D03*
X185500D02*
D03*
X195500D02*
D03*
X205500D02*
D03*
X215500D02*
D03*
D23*
X339638Y213476D02*
D03*
Y335524D02*
D03*
X44362Y213476D02*
D03*
Y335524D02*
D03*
D24*
X66016D02*
D03*
D25*
X311347Y150015D02*
D03*
X354654D02*
D03*
X25347D02*
D03*
X68654D02*
D03*
D26*
X323158Y122456D02*
D03*
X37158D02*
D03*
D27*
X342843D02*
D03*
X56843D02*
D03*
D28*
X323158Y179543D02*
D03*
X333000D02*
D03*
X342843D02*
D03*
X37158D02*
D03*
X47001D02*
D03*
X56843D02*
D03*
D29*
X352201Y72264D02*
D03*
X314799D02*
D03*
X65701D02*
D03*
X28300D02*
D03*
D30*
X343342Y42736D02*
D03*
X333500D02*
D03*
X323657D02*
D03*
X56842D02*
D03*
X47000D02*
D03*
X37157D02*
D03*
D31*
X169705Y47858D02*
D03*
X217426Y79358D02*
D03*
X145195Y61642D02*
D03*
X217426Y142358D02*
D03*
X145185Y124642D02*
D03*
D32*
X195295Y47858D02*
D03*
X169705Y30142D02*
D03*
X195295D02*
D03*
X243017Y79358D02*
D03*
X217426Y61642D02*
D03*
X243017D02*
D03*
X119605D02*
D03*
X145195Y79358D02*
D03*
X119605D02*
D03*
X243017Y142358D02*
D03*
X217426Y124642D02*
D03*
X243017D02*
D03*
X119595D02*
D03*
X145185Y142358D02*
D03*
X119595D02*
D03*
D33*
X14500Y18500D02*
D03*
X364500Y364000D02*
D03*
X16000Y364500D02*
D03*
X364500Y16500D02*
D03*
M02*
