G04*
G04 #@! TF.GenerationSoftware,Altium Limited,Altium Designer,23.10.1 (27)*
G04*
G04 Layer_Physical_Order=1*
G04 Layer_Color=255*
%FSLAX25Y25*%
%MOIN*%
G70*
G04*
G04 #@! TF.SameCoordinates,F6535FD2-0468-4A63-920D-5F40DC5DF58B*
G04*
G04*
G04 #@! TF.FilePolarity,Positive*
G04*
G01*
G75*
%ADD13C,0.00787*%
%ADD16R,0.03150X0.03150*%
%ADD17R,0.05512X0.03937*%
%ADD31C,0.06102*%
%ADD32R,0.06102X0.06102*%
%ADD36C,0.01500*%
%ADD37R,0.05906X0.05906*%
%ADD38C,0.05906*%
%ADD39C,0.03937*%
%ADD40C,0.06000*%
%ADD41C,0.07874*%
%ADD42O,0.11024X0.11024*%
%ADD43C,0.11811*%
%ADD44C,0.06693*%
%ADD45O,0.06693X0.06299*%
%ADD46O,0.06299X0.06693*%
%ADD47O,0.09449X0.13780*%
%ADD48R,0.07400X0.07400*%
%ADD49C,0.11024*%
%ADD50C,0.01772*%
G36*
X378378Y1622D02*
X1622D01*
Y381278D01*
X378378D01*
Y1622D01*
D02*
G37*
%LPC*%
G36*
X54000Y374535D02*
X52956Y374397D01*
X51983Y373994D01*
X51147Y373353D01*
X50506Y372517D01*
X50103Y371544D01*
X49966Y370500D01*
X50103Y369456D01*
X50506Y368483D01*
X51147Y367647D01*
X51983Y367006D01*
X52956Y366603D01*
X54000Y366465D01*
X55044Y366603D01*
X56017Y367006D01*
X56853Y367647D01*
X57494Y368483D01*
X57897Y369456D01*
X58034Y370500D01*
X57897Y371544D01*
X57494Y372517D01*
X56853Y373353D01*
X56017Y373994D01*
X55044Y374397D01*
X54000Y374535D01*
D02*
G37*
G36*
X282232Y366400D02*
Y364906D01*
X283726D01*
X283716Y364930D01*
X283082Y365756D01*
X282257Y366390D01*
X282232Y366400D01*
D02*
G37*
G36*
X278295D02*
X278270Y366390D01*
X277444Y365756D01*
X276810Y364930D01*
X276800Y364906D01*
X278295D01*
Y366400D01*
D02*
G37*
G36*
X62032Y364014D02*
X61983Y363994D01*
X61147Y363353D01*
X60506Y362517D01*
X60486Y362469D01*
X62032D01*
Y364014D01*
D02*
G37*
G36*
X183838Y374783D02*
X83279D01*
X82735Y374675D01*
X82274Y374367D01*
X68524Y360616D01*
X67996Y360796D01*
X67897Y361544D01*
X67494Y362517D01*
X66853Y363353D01*
X66017Y363994D01*
X65969Y364014D01*
Y360500D01*
X64000D01*
Y358531D01*
X60486D01*
X60506Y358483D01*
X61147Y357647D01*
X61983Y357006D01*
X62956Y356603D01*
X63704Y356504D01*
X63884Y355977D01*
X61328Y353421D01*
X55417D01*
X54873Y353313D01*
X54412Y353005D01*
X50558Y349151D01*
X50250Y348690D01*
X50142Y348146D01*
Y339534D01*
X49642Y339355D01*
X48989Y340150D01*
X47997Y340964D01*
X46866Y341569D01*
X45639Y341941D01*
X44362Y342067D01*
X43086Y341941D01*
X41858Y341569D01*
X40727Y340964D01*
X39735Y340150D01*
X38922Y339159D01*
X38317Y338028D01*
X37945Y336800D01*
X37819Y335524D01*
X37945Y334247D01*
X38317Y333020D01*
X38922Y331888D01*
X39735Y330897D01*
X40727Y330083D01*
X41858Y329478D01*
X43086Y329106D01*
X44362Y328980D01*
X45639Y329106D01*
X46866Y329478D01*
X47997Y330083D01*
X48989Y330897D01*
X49642Y331692D01*
X50142Y331514D01*
Y277437D01*
X50250Y276893D01*
X50558Y276432D01*
X65495Y261495D01*
X65956Y261187D01*
X66500Y261079D01*
X88539D01*
X89082Y261187D01*
X89544Y261495D01*
X90005Y261956D01*
X90079Y262068D01*
X90579Y261916D01*
Y259383D01*
X52462D01*
X51918Y259275D01*
X51457Y258967D01*
X48495Y256005D01*
X48495Y256005D01*
X48187Y255544D01*
X48079Y255000D01*
Y225500D01*
X48187Y224956D01*
X48495Y224495D01*
X107579Y165411D01*
Y113056D01*
X107117Y112865D01*
X82977Y137005D01*
X82516Y137313D01*
X81972Y137421D01*
X63741D01*
X58264Y142898D01*
Y175427D01*
X59035Y175747D01*
X59943Y176443D01*
X60640Y177351D01*
X61078Y178408D01*
X61227Y179543D01*
X61078Y180678D01*
X60640Y181735D01*
X59943Y182643D01*
X59035Y183340D01*
X57978Y183778D01*
X56843Y183927D01*
X55708Y183778D01*
X54651Y183340D01*
X53743Y182643D01*
X53046Y181735D01*
X52608Y180678D01*
X52459Y179543D01*
X52608Y178408D01*
X53046Y177351D01*
X53743Y176443D01*
X54651Y175747D01*
X55422Y175427D01*
Y142309D01*
X55530Y141765D01*
X55838Y141305D01*
X61722Y135421D01*
X61515Y134921D01*
X40089D01*
X38579Y136431D01*
Y175427D01*
X39350Y175747D01*
X40258Y176443D01*
X40955Y177351D01*
X41393Y178408D01*
X41542Y179543D01*
X41393Y180678D01*
X40955Y181735D01*
X40258Y182643D01*
X39350Y183340D01*
X38293Y183778D01*
X37158Y183927D01*
X36023Y183778D01*
X34966Y183340D01*
X34058Y182643D01*
X33361Y181735D01*
X32923Y180678D01*
X32774Y179543D01*
X32923Y178408D01*
X33361Y177351D01*
X34058Y176443D01*
X34966Y175747D01*
X35737Y175427D01*
Y135842D01*
X35845Y135298D01*
X36153Y134837D01*
X38495Y132495D01*
X38956Y132187D01*
X39500Y132079D01*
X81356D01*
X83051Y130384D01*
X82837Y129890D01*
X82264Y129776D01*
X81640Y129360D01*
X81224Y128736D01*
X81077Y128000D01*
X81224Y127264D01*
X81457Y126916D01*
X81513Y126630D01*
X81821Y126169D01*
X119070Y88920D01*
X119531Y88612D01*
X120075Y88504D01*
X250425D01*
X250969Y88612D01*
X251430Y88920D01*
X279505Y116995D01*
X279813Y117456D01*
X279921Y118000D01*
Y197356D01*
X285080Y202515D01*
X285388Y202976D01*
X285496Y203519D01*
Y328925D01*
X285388Y329469D01*
X285080Y329930D01*
X277338Y337672D01*
Y349569D01*
X277838Y349816D01*
X278270Y349484D01*
X279231Y349086D01*
X280263Y348950D01*
X281295Y349086D01*
X281504Y349173D01*
X349716Y280961D01*
Y170275D01*
X340738Y161297D01*
X340352Y160718D01*
X340216Y160036D01*
Y125822D01*
X339687Y125416D01*
X339021Y124549D01*
X338603Y123540D01*
X338461Y122456D01*
X338603Y121373D01*
X339021Y120364D01*
X339687Y119497D01*
X340553Y118832D01*
X341563Y118414D01*
X342646Y118271D01*
X343040D01*
X344123Y118414D01*
X345132Y118832D01*
X345999Y119497D01*
X346665Y120364D01*
X347083Y121373D01*
X347169Y122026D01*
X347696Y122205D01*
X352216Y117686D01*
Y90739D01*
X302761Y41284D01*
X170784D01*
Y43807D01*
X173756D01*
Y51910D01*
X165654D01*
Y43807D01*
X167216D01*
Y40379D01*
X167351Y39696D01*
X167738Y39117D01*
X168617Y38238D01*
X169196Y37852D01*
X169879Y37716D01*
X303500D01*
X304183Y37852D01*
X304762Y38238D01*
X355262Y88738D01*
X355262Y88738D01*
X355648Y89317D01*
X355784Y90000D01*
Y118425D01*
X355648Y119108D01*
X355262Y119687D01*
X346784Y128164D01*
Y158761D01*
X358262Y170238D01*
X358262Y170238D01*
X358648Y170817D01*
X358784Y171500D01*
Y283500D01*
X358648Y284183D01*
X358262Y284762D01*
X358262Y284762D01*
X303284Y339739D01*
Y353500D01*
X303149Y354183D01*
X302762Y354762D01*
X285762Y371762D01*
X285183Y372148D01*
X284500Y372284D01*
X212826D01*
X212143Y372148D01*
X211564Y371762D01*
X206004Y366201D01*
X205795Y366288D01*
X204763Y366424D01*
X203731Y366288D01*
X202770Y365890D01*
X201944Y365256D01*
X201310Y364430D01*
X200912Y363469D01*
X200776Y362437D01*
X200912Y361405D01*
X201310Y360443D01*
X201944Y359618D01*
X202770Y358984D01*
X203731Y358586D01*
X204763Y358450D01*
X205795Y358586D01*
X206757Y358984D01*
X207582Y359618D01*
X208216Y360443D01*
X208614Y361405D01*
X208750Y362437D01*
X208614Y363469D01*
X208527Y363678D01*
X213565Y368716D01*
X283761D01*
X299716Y352761D01*
Y339000D01*
X299851Y338317D01*
X300238Y337738D01*
X355216Y282761D01*
Y172239D01*
X353746Y170770D01*
X353284Y170961D01*
Y281700D01*
X353149Y282383D01*
X352762Y282962D01*
X284028Y351696D01*
X284114Y351905D01*
X284250Y352937D01*
X284114Y353969D01*
X283716Y354930D01*
X283082Y355756D01*
X282257Y356390D01*
X281295Y356788D01*
X280263Y356924D01*
X279231Y356788D01*
X278270Y356390D01*
X277444Y355756D01*
X276951Y355113D01*
X276352Y355005D01*
X272331Y359026D01*
X272439Y359624D01*
X273082Y360118D01*
X273716Y360944D01*
X274114Y361905D01*
X274250Y362937D01*
X274114Y363969D01*
X273716Y364930D01*
X273082Y365756D01*
X272257Y366390D01*
X271295Y366788D01*
X270263Y366924D01*
X269231Y366788D01*
X268270Y366390D01*
X267444Y365756D01*
X266810Y364930D01*
X266412Y363969D01*
X266276Y362937D01*
X266412Y361905D01*
X266810Y360944D01*
X267444Y360118D01*
X268270Y359484D01*
X269123Y359131D01*
Y358803D01*
X269231Y358259D01*
X269539Y357798D01*
X269950Y357387D01*
X269771Y356859D01*
X269231Y356788D01*
X268270Y356390D01*
X267444Y355756D01*
X266810Y354930D01*
X266531Y354255D01*
X266031Y354354D01*
Y354737D01*
X265922Y355281D01*
X265614Y355742D01*
X262331Y359026D01*
X262439Y359624D01*
X263082Y360118D01*
X263716Y360944D01*
X264114Y361905D01*
X264250Y362937D01*
X264114Y363969D01*
X263716Y364930D01*
X263082Y365756D01*
X262257Y366390D01*
X261295Y366788D01*
X260263Y366924D01*
X259231Y366788D01*
X258270Y366390D01*
X257444Y365756D01*
X256810Y364930D01*
X256412Y363969D01*
X256276Y362937D01*
X256412Y361905D01*
X256810Y360944D01*
X257444Y360118D01*
X258270Y359484D01*
X259123Y359131D01*
Y358803D01*
X259231Y358259D01*
X259539Y357798D01*
X259950Y357387D01*
X259771Y356859D01*
X259231Y356788D01*
X258270Y356390D01*
X257444Y355756D01*
X256951Y355113D01*
X256423Y355017D01*
X256315Y355041D01*
X252331Y359026D01*
X252439Y359624D01*
X253082Y360118D01*
X253716Y360944D01*
X254114Y361905D01*
X254250Y362937D01*
X254114Y363969D01*
X253716Y364930D01*
X253082Y365756D01*
X252257Y366390D01*
X251295Y366788D01*
X250263Y366924D01*
X249231Y366788D01*
X248270Y366390D01*
X247444Y365756D01*
X246810Y364930D01*
X246412Y363969D01*
X246276Y362937D01*
X246412Y361905D01*
X246810Y360944D01*
X247444Y360118D01*
X248270Y359484D01*
X249123Y359131D01*
Y358803D01*
X249231Y358259D01*
X249539Y357798D01*
X249950Y357387D01*
X249771Y356859D01*
X249231Y356788D01*
X248270Y356390D01*
X247444Y355756D01*
X246810Y354930D01*
X246412Y353969D01*
X246276Y352937D01*
X246412Y351905D01*
X246810Y350943D01*
X247444Y350118D01*
X248270Y349484D01*
X249231Y349086D01*
X250263Y348950D01*
X251295Y349086D01*
X252257Y349484D01*
X253082Y350118D01*
X253700Y350923D01*
X253750Y350927D01*
X254200Y350766D01*
Y335879D01*
X254308Y335335D01*
X254616Y334874D01*
X279079Y310411D01*
Y205589D01*
X273920Y200430D01*
X273612Y199969D01*
X273504Y199425D01*
Y122042D01*
X246384Y94921D01*
X245638D01*
X245431Y95421D01*
X272505Y122495D01*
X272813Y122956D01*
X272921Y123500D01*
Y286348D01*
X272921Y286348D01*
X272813Y286892D01*
X272505Y287352D01*
X269353Y290505D01*
X268892Y290813D01*
X268348Y290921D01*
X263268D01*
X262736Y291276D01*
X262000Y291423D01*
X261264Y291276D01*
X260640Y290860D01*
X260224Y290236D01*
X260077Y289500D01*
X260224Y288764D01*
X260640Y288140D01*
X261264Y287724D01*
X262000Y287577D01*
X262736Y287724D01*
X263268Y288079D01*
X267759D01*
X270079Y285759D01*
Y124089D01*
X243443Y97452D01*
X188756D01*
Y98409D01*
X185000D01*
Y99394D01*
X184016D01*
Y102362D01*
X181742D01*
X181535Y102862D01*
X182938Y104265D01*
X183782D01*
X183954Y104299D01*
X188756D01*
Y110236D01*
X181244D01*
Y107516D01*
X180937Y107311D01*
X180937Y107311D01*
X179037Y105411D01*
X178575Y105602D01*
Y108724D01*
X177784D01*
Y138500D01*
X177648Y139183D01*
X177262Y139762D01*
X177262Y139762D01*
X129300Y187723D01*
X129397Y187956D01*
X129534Y189000D01*
X129397Y190044D01*
X128994Y191017D01*
X128353Y191853D01*
X127517Y192494D01*
X127284Y192590D01*
Y284804D01*
X127423Y285500D01*
X127276Y286236D01*
X127181Y286379D01*
X127096Y286802D01*
X126710Y287381D01*
X126710Y287381D01*
X79788Y334302D01*
X79867Y334492D01*
X80003Y335524D01*
X79867Y336556D01*
X79469Y337517D01*
X78835Y338343D01*
X78009Y338976D01*
X77048Y339375D01*
X76565Y339438D01*
X76415Y339736D01*
X76395Y339965D01*
X76436Y340004D01*
X85935D01*
X85968Y339504D01*
X85592Y339455D01*
X84984Y339375D01*
X84022Y338976D01*
X83197Y338343D01*
X82563Y337517D01*
X82165Y336556D01*
X82029Y335524D01*
X82165Y334492D01*
X82563Y333530D01*
X83197Y332704D01*
X84022Y332071D01*
X84984Y331673D01*
X86016Y331537D01*
X87048Y331673D01*
X87257Y331759D01*
X133716Y285300D01*
Y192590D01*
X133483Y192494D01*
X132647Y191853D01*
X132006Y191017D01*
X131603Y190044D01*
X131465Y189000D01*
X131603Y187956D01*
X132006Y186983D01*
X132647Y186147D01*
X133483Y185506D01*
X134456Y185103D01*
X135500Y184966D01*
X136544Y185103D01*
X137517Y185506D01*
X138353Y186147D01*
X138994Y186983D01*
X139397Y187956D01*
X139534Y189000D01*
X139397Y190044D01*
X138994Y191017D01*
X138353Y191853D01*
X137517Y192494D01*
X137284Y192590D01*
Y286039D01*
X137284Y286039D01*
X137148Y286722D01*
X136762Y287301D01*
X136762Y287301D01*
X89780Y334283D01*
X89867Y334492D01*
X90003Y335524D01*
X89867Y336556D01*
X89468Y337517D01*
X88835Y338343D01*
X88009Y338976D01*
X87048Y339375D01*
X86439Y339455D01*
X86063Y339504D01*
X86096Y340004D01*
X95935D01*
X95968Y339504D01*
X95592Y339455D01*
X94984Y339375D01*
X94022Y338976D01*
X93197Y338343D01*
X92563Y337517D01*
X92165Y336556D01*
X92029Y335524D01*
X92165Y334492D01*
X92563Y333530D01*
X93197Y332704D01*
X94022Y332071D01*
X94984Y331673D01*
X96016Y331537D01*
X97048Y331673D01*
X97257Y331759D01*
X143716Y285300D01*
Y192590D01*
X143483Y192494D01*
X142647Y191853D01*
X142006Y191017D01*
X141603Y190044D01*
X141465Y189000D01*
X141603Y187956D01*
X142006Y186983D01*
X142647Y186147D01*
X143483Y185506D01*
X144456Y185103D01*
X145500Y184966D01*
X146544Y185103D01*
X147517Y185506D01*
X148353Y186147D01*
X148994Y186983D01*
X149397Y187956D01*
X149534Y189000D01*
X149397Y190044D01*
X148994Y191017D01*
X148353Y191853D01*
X147517Y192494D01*
X147284Y192590D01*
Y285343D01*
X147423Y286039D01*
X147276Y286775D01*
X146860Y287399D01*
X146269Y287793D01*
X99780Y334283D01*
X99867Y334492D01*
X100003Y335524D01*
X99867Y336556D01*
X99468Y337517D01*
X98835Y338343D01*
X98009Y338976D01*
X97048Y339375D01*
X96439Y339455D01*
X96064Y339504D01*
X96096Y340004D01*
X105935D01*
X105968Y339504D01*
X105592Y339455D01*
X104984Y339375D01*
X104022Y338976D01*
X103197Y338343D01*
X102563Y337517D01*
X102165Y336556D01*
X102029Y335524D01*
X102165Y334492D01*
X102563Y333530D01*
X103197Y332704D01*
X104022Y332071D01*
X104984Y331673D01*
X106016Y331537D01*
X107048Y331673D01*
X107257Y331759D01*
X150717Y288299D01*
X150724Y288264D01*
X151140Y287640D01*
X151764Y287224D01*
X151799Y287217D01*
X153716Y285300D01*
Y192590D01*
X153483Y192494D01*
X152647Y191853D01*
X152006Y191017D01*
X151603Y190044D01*
X151465Y189000D01*
X151603Y187956D01*
X152006Y186983D01*
X152647Y186147D01*
X153483Y185506D01*
X154456Y185103D01*
X155500Y184966D01*
X156544Y185103D01*
X157517Y185506D01*
X158353Y186147D01*
X158994Y186983D01*
X159397Y187956D01*
X159535Y189000D01*
X159397Y190044D01*
X158994Y191017D01*
X158353Y191853D01*
X157517Y192494D01*
X157284Y192590D01*
Y286039D01*
X157149Y286722D01*
X156762Y287301D01*
X156762Y287301D01*
X154175Y289888D01*
X153860Y290360D01*
X153388Y290675D01*
X109780Y334283D01*
X109867Y334492D01*
X110003Y335524D01*
X109867Y336556D01*
X109468Y337517D01*
X108835Y338343D01*
X108009Y338976D01*
X107048Y339375D01*
X106439Y339455D01*
X106063Y339504D01*
X106096Y340004D01*
X115935D01*
X115968Y339504D01*
X115592Y339455D01*
X114984Y339375D01*
X114022Y338976D01*
X113197Y338343D01*
X112563Y337517D01*
X112165Y336556D01*
X112029Y335524D01*
X112165Y334492D01*
X112563Y333530D01*
X113197Y332704D01*
X114022Y332071D01*
X114984Y331673D01*
X116016Y331537D01*
X117048Y331673D01*
X117257Y331759D01*
X163716Y285300D01*
Y192590D01*
X163483Y192494D01*
X162647Y191853D01*
X162006Y191017D01*
X161603Y190044D01*
X161466Y189000D01*
X161603Y187956D01*
X162006Y186983D01*
X162647Y186147D01*
X163483Y185506D01*
X164456Y185103D01*
X165500Y184966D01*
X166544Y185103D01*
X167517Y185506D01*
X168353Y186147D01*
X168994Y186983D01*
X169397Y187956D01*
X169535Y189000D01*
X169397Y190044D01*
X168994Y191017D01*
X168353Y191853D01*
X167517Y192494D01*
X167284Y192590D01*
Y285304D01*
X167423Y286000D01*
X167276Y286736D01*
X166860Y287360D01*
X166388Y287675D01*
X119780Y334283D01*
X119867Y334492D01*
X120003Y335524D01*
X119867Y336556D01*
X119468Y337517D01*
X118835Y338343D01*
X118009Y338976D01*
X117048Y339375D01*
X116439Y339455D01*
X116063Y339504D01*
X116096Y340004D01*
X125935D01*
X125968Y339504D01*
X125592Y339455D01*
X124984Y339375D01*
X124022Y338976D01*
X123197Y338343D01*
X122563Y337517D01*
X122165Y336556D01*
X122029Y335524D01*
X122165Y334492D01*
X122563Y333530D01*
X123197Y332704D01*
X124022Y332071D01*
X124984Y331673D01*
X126016Y331537D01*
X127048Y331673D01*
X127257Y331759D01*
X173716Y285300D01*
Y192590D01*
X173483Y192494D01*
X172647Y191853D01*
X172006Y191017D01*
X171603Y190044D01*
X171466Y189000D01*
X171603Y187956D01*
X172006Y186983D01*
X172647Y186147D01*
X173483Y185506D01*
X174456Y185103D01*
X175500Y184966D01*
X176544Y185103D01*
X177517Y185506D01*
X178353Y186147D01*
X178994Y186983D01*
X179397Y187956D01*
X179534Y189000D01*
X179397Y190044D01*
X178994Y191017D01*
X178353Y191853D01*
X177517Y192494D01*
X177284Y192590D01*
Y286039D01*
X177284Y286039D01*
X177148Y286722D01*
X176762Y287301D01*
X176762Y287301D01*
X129780Y334283D01*
X129867Y334492D01*
X130003Y335524D01*
X129867Y336556D01*
X129469Y337517D01*
X128835Y338343D01*
X128009Y338976D01*
X127048Y339375D01*
X126439Y339455D01*
X126064Y339504D01*
X126096Y340004D01*
X135935D01*
X135968Y339504D01*
X135592Y339455D01*
X134984Y339375D01*
X134022Y338976D01*
X133197Y338343D01*
X132563Y337517D01*
X132165Y336556D01*
X132029Y335524D01*
X132165Y334492D01*
X132563Y333530D01*
X133197Y332704D01*
X134022Y332071D01*
X134984Y331673D01*
X136016Y331537D01*
X137048Y331673D01*
X137257Y331759D01*
X183716Y285300D01*
Y192590D01*
X183483Y192494D01*
X182647Y191853D01*
X182006Y191017D01*
X181603Y190044D01*
X181465Y189000D01*
X181603Y187956D01*
X182006Y186983D01*
X182647Y186147D01*
X183483Y185506D01*
X184456Y185103D01*
X185500Y184966D01*
X186544Y185103D01*
X187517Y185506D01*
X188353Y186147D01*
X188994Y186983D01*
X189397Y187956D01*
X189534Y189000D01*
X189397Y190044D01*
X188994Y191017D01*
X188353Y191853D01*
X187517Y192494D01*
X187284Y192590D01*
Y286039D01*
X187284Y286039D01*
X187148Y286722D01*
X186762Y287301D01*
X186762Y287301D01*
X139780Y334283D01*
X139867Y334492D01*
X140003Y335524D01*
X139867Y336556D01*
X139469Y337517D01*
X138835Y338343D01*
X138009Y338976D01*
X137048Y339375D01*
X136439Y339455D01*
X136064Y339504D01*
X136096Y340004D01*
X145935D01*
X145968Y339504D01*
X145592Y339455D01*
X144984Y339375D01*
X144022Y338976D01*
X143197Y338343D01*
X142563Y337517D01*
X142165Y336556D01*
X142029Y335524D01*
X142165Y334492D01*
X142563Y333530D01*
X143197Y332704D01*
X144022Y332071D01*
X144984Y331673D01*
X146016Y331537D01*
X147048Y331673D01*
X147257Y331759D01*
X193716Y285300D01*
Y192590D01*
X193483Y192494D01*
X192647Y191853D01*
X192006Y191017D01*
X191603Y190044D01*
X191465Y189000D01*
X191603Y187956D01*
X192006Y186983D01*
X192647Y186147D01*
X193483Y185506D01*
X194456Y185103D01*
X195500Y184966D01*
X196544Y185103D01*
X197517Y185506D01*
X198353Y186147D01*
X198994Y186983D01*
X199397Y187956D01*
X199534Y189000D01*
X199397Y190044D01*
X198994Y191017D01*
X198353Y191853D01*
X197517Y192494D01*
X197284Y192590D01*
Y286039D01*
X197149Y286722D01*
X196762Y287301D01*
X149780Y334283D01*
X149867Y334492D01*
X150003Y335524D01*
X149867Y336556D01*
X149469Y337517D01*
X148835Y338343D01*
X148009Y338976D01*
X147048Y339375D01*
X146439Y339455D01*
X146063Y339504D01*
X146096Y340004D01*
X155935D01*
X155968Y339504D01*
X155592Y339455D01*
X154984Y339375D01*
X154022Y338976D01*
X153197Y338343D01*
X152563Y337517D01*
X152165Y336556D01*
X152029Y335524D01*
X152165Y334492D01*
X152563Y333530D01*
X153197Y332704D01*
X154022Y332071D01*
X154984Y331673D01*
X156016Y331537D01*
X157048Y331673D01*
X157257Y331759D01*
X203716Y285300D01*
Y192590D01*
X203483Y192494D01*
X202647Y191853D01*
X202006Y191017D01*
X201603Y190044D01*
X201466Y189000D01*
X201603Y187956D01*
X202006Y186983D01*
X202647Y186147D01*
X203483Y185506D01*
X204456Y185103D01*
X205500Y184966D01*
X206544Y185103D01*
X207517Y185506D01*
X208353Y186147D01*
X208994Y186983D01*
X209397Y187956D01*
X209535Y189000D01*
X209397Y190044D01*
X208994Y191017D01*
X208353Y191853D01*
X207517Y192494D01*
X207284Y192590D01*
Y286039D01*
X207284Y286039D01*
X207149Y286722D01*
X206762Y287301D01*
X206762Y287301D01*
X159780Y334283D01*
X159867Y334492D01*
X160003Y335524D01*
X159867Y336556D01*
X159468Y337517D01*
X158835Y338343D01*
X158009Y338976D01*
X157048Y339375D01*
X156439Y339455D01*
X156063Y339504D01*
X156096Y340004D01*
X165935D01*
X165968Y339504D01*
X165592Y339455D01*
X164984Y339375D01*
X164022Y338976D01*
X163197Y338343D01*
X162563Y337517D01*
X162165Y336556D01*
X162029Y335524D01*
X162165Y334492D01*
X162563Y333530D01*
X163197Y332704D01*
X164022Y332071D01*
X164984Y331673D01*
X166016Y331537D01*
X167048Y331673D01*
X167257Y331759D01*
X213716Y285300D01*
Y192590D01*
X213483Y192494D01*
X212647Y191853D01*
X212006Y191017D01*
X211603Y190044D01*
X211466Y189000D01*
X211603Y187956D01*
X212006Y186983D01*
X212647Y186147D01*
X213483Y185506D01*
X214456Y185103D01*
X215500Y184966D01*
X216544Y185103D01*
X217517Y185506D01*
X218353Y186147D01*
X218994Y186983D01*
X219397Y187956D01*
X219534Y189000D01*
X219397Y190044D01*
X218994Y191017D01*
X218353Y191853D01*
X217517Y192494D01*
X217284Y192590D01*
Y286039D01*
X217284Y286039D01*
X217148Y286722D01*
X216762Y287301D01*
X216762Y287301D01*
X169780Y334283D01*
X169867Y334492D01*
X170003Y335524D01*
X169867Y336556D01*
X169468Y337517D01*
X168835Y338343D01*
X168009Y338976D01*
X167048Y339375D01*
X166439Y339455D01*
X166063Y339504D01*
X166096Y340004D01*
X175935D01*
X175968Y339504D01*
X175592Y339455D01*
X174984Y339375D01*
X174022Y338976D01*
X173197Y338343D01*
X172563Y337517D01*
X172165Y336556D01*
X172029Y335524D01*
X172165Y334492D01*
X172563Y333530D01*
X173197Y332704D01*
X174022Y332071D01*
X174984Y331673D01*
X176016Y331537D01*
X177048Y331673D01*
X177257Y331759D01*
X223716Y285300D01*
Y192539D01*
X223507Y192453D01*
X222681Y191819D01*
X222047Y190993D01*
X221649Y190032D01*
X221513Y189000D01*
X221649Y187968D01*
X222047Y187007D01*
X222681Y186181D01*
X223507Y185547D01*
X224468Y185149D01*
X225500Y185013D01*
X226532Y185149D01*
X227493Y185547D01*
X228319Y186181D01*
X228953Y187007D01*
X229351Y187968D01*
X229487Y189000D01*
X229351Y190032D01*
X228953Y190993D01*
X228319Y191819D01*
X227493Y192453D01*
X227284Y192539D01*
Y286039D01*
X227284Y286039D01*
X227149Y286722D01*
X226762Y287301D01*
X226762Y287301D01*
X179780Y334283D01*
X179867Y334492D01*
X180003Y335524D01*
X179867Y336556D01*
X179469Y337517D01*
X178835Y338343D01*
X178009Y338976D01*
X177048Y339375D01*
X176439Y339455D01*
X176064Y339504D01*
X176096Y340004D01*
X185935D01*
X185968Y339504D01*
X185592Y339455D01*
X184984Y339375D01*
X184022Y338976D01*
X183197Y338343D01*
X182563Y337517D01*
X182165Y336556D01*
X182029Y335524D01*
X182165Y334492D01*
X182563Y333530D01*
X183197Y332704D01*
X184022Y332071D01*
X184984Y331673D01*
X186016Y331537D01*
X187048Y331673D01*
X187257Y331759D01*
X234716Y284300D01*
Y192884D01*
X234468Y192851D01*
X233507Y192453D01*
X232681Y191819D01*
X232047Y190993D01*
X231649Y190032D01*
X231513Y189000D01*
X231649Y187968D01*
X232047Y187007D01*
X232681Y186181D01*
X233507Y185547D01*
X234468Y185149D01*
X235500Y185013D01*
X236532Y185149D01*
X237493Y185547D01*
X238319Y186181D01*
X238953Y187007D01*
X239351Y187968D01*
X239487Y189000D01*
X239351Y190032D01*
X238953Y190993D01*
X238319Y191819D01*
X238244Y191877D01*
X238284Y192081D01*
Y285039D01*
X238148Y285722D01*
X237762Y286301D01*
X189780Y334283D01*
X189867Y334492D01*
X190003Y335524D01*
X189867Y336556D01*
X189469Y337517D01*
X188835Y338343D01*
X188009Y338976D01*
X187048Y339375D01*
X186439Y339455D01*
X186064Y339504D01*
X186096Y340004D01*
X189925D01*
X190469Y340112D01*
X190930Y340420D01*
X195768Y345258D01*
X196076Y345719D01*
X196184Y346263D01*
Y348747D01*
X196756Y348984D01*
X197582Y349618D01*
X198216Y350444D01*
X198614Y351405D01*
X198750Y352437D01*
X198614Y353469D01*
X198216Y354430D01*
X197582Y355256D01*
X196756Y355890D01*
X195795Y356288D01*
X194763Y356424D01*
X193731Y356288D01*
X192770Y355890D01*
X191944Y355256D01*
X191310Y354430D01*
X190912Y353469D01*
X190776Y352437D01*
X190912Y351405D01*
X191310Y350444D01*
X191944Y349618D01*
X192770Y348984D01*
X193342Y348747D01*
Y346852D01*
X189337Y342846D01*
X177835D01*
X177644Y343308D01*
X183159Y348823D01*
X183731Y348586D01*
X184763Y348450D01*
X185795Y348586D01*
X186757Y348984D01*
X187582Y349618D01*
X188216Y350444D01*
X188614Y351405D01*
X188750Y352437D01*
X188614Y353469D01*
X188216Y354430D01*
X187582Y355256D01*
X186757Y355890D01*
X185795Y356288D01*
X184763Y356424D01*
X183731Y356288D01*
X182770Y355890D01*
X181944Y355256D01*
X181310Y354430D01*
X180912Y353469D01*
X180776Y352437D01*
X180912Y351405D01*
X181149Y350833D01*
X174950Y344634D01*
X64797D01*
X64605Y345095D01*
X84848Y365339D01*
X85310Y365147D01*
Y357984D01*
X93216D01*
Y365890D01*
X86391D01*
X86143Y366390D01*
X86287Y366579D01*
X160411D01*
X160783Y366207D01*
Y364996D01*
X160810Y364859D01*
Y358484D01*
X168716D01*
Y365768D01*
X169216Y365975D01*
X171149Y364041D01*
X170912Y363469D01*
X170776Y362437D01*
X170912Y361405D01*
X171310Y360443D01*
X171944Y359618D01*
X172770Y358984D01*
X173731Y358586D01*
X174763Y358450D01*
X175795Y358586D01*
X176757Y358984D01*
X177582Y359618D01*
X178216Y360443D01*
X178614Y361405D01*
X178750Y362437D01*
X178614Y363469D01*
X178216Y364430D01*
X177582Y365256D01*
X176757Y365890D01*
X175795Y366288D01*
X174763Y366424D01*
X173731Y366288D01*
X173159Y366051D01*
X169518Y369692D01*
X169709Y370154D01*
X175037D01*
X181149Y364041D01*
X180912Y363469D01*
X180776Y362437D01*
X180912Y361405D01*
X181310Y360443D01*
X181944Y359618D01*
X182770Y358984D01*
X183731Y358586D01*
X184763Y358450D01*
X185795Y358586D01*
X186757Y358984D01*
X187582Y359618D01*
X188216Y360443D01*
X188614Y361405D01*
X188750Y362437D01*
X188614Y363469D01*
X188216Y364430D01*
X187582Y365256D01*
X186757Y365890D01*
X185795Y366288D01*
X184763Y366424D01*
X183731Y366288D01*
X183159Y366051D01*
X177730Y371479D01*
X177922Y371941D01*
X183249D01*
X191149Y364041D01*
X190912Y363469D01*
X190776Y362437D01*
X190912Y361405D01*
X191310Y360443D01*
X191944Y359618D01*
X192770Y358984D01*
X193731Y358586D01*
X194763Y358450D01*
X195795Y358586D01*
X196756Y358984D01*
X197582Y359618D01*
X198216Y360443D01*
X198614Y361405D01*
X198750Y362437D01*
X198614Y363469D01*
X198216Y364430D01*
X197582Y365256D01*
X196756Y365890D01*
X195795Y366288D01*
X194763Y366424D01*
X193731Y366288D01*
X193159Y366051D01*
X184843Y374367D01*
X184382Y374675D01*
X183838Y374783D01*
D02*
G37*
G36*
X283726Y360968D02*
X282232D01*
Y359474D01*
X282257Y359484D01*
X283082Y360118D01*
X283716Y360944D01*
X283726Y360968D01*
D02*
G37*
G36*
X278295D02*
X276800D01*
X276810Y360944D01*
X277444Y360118D01*
X278270Y359484D01*
X278295Y359474D01*
Y360968D01*
D02*
G37*
G36*
X129263Y365924D02*
X128231Y365788D01*
X127270Y365390D01*
X126444Y364756D01*
X125810Y363930D01*
X125412Y362969D01*
X125276Y361937D01*
X125412Y360905D01*
X125810Y359944D01*
X126444Y359118D01*
X127270Y358484D01*
X128231Y358086D01*
X129263Y357950D01*
X130295Y358086D01*
X131256Y358484D01*
X132082Y359118D01*
X132716Y359944D01*
X133114Y360905D01*
X133250Y361937D01*
X133114Y362969D01*
X132716Y363930D01*
X132082Y364756D01*
X131256Y365390D01*
X130295Y365788D01*
X129263Y365924D01*
D02*
G37*
G36*
X119263D02*
X118231Y365788D01*
X117270Y365390D01*
X116444Y364756D01*
X115810Y363930D01*
X115412Y362969D01*
X115276Y361937D01*
X115412Y360905D01*
X115810Y359944D01*
X116444Y359118D01*
X117270Y358484D01*
X118231Y358086D01*
X119263Y357950D01*
X120295Y358086D01*
X121256Y358484D01*
X122082Y359118D01*
X122716Y359944D01*
X123114Y360905D01*
X123250Y361937D01*
X123114Y362969D01*
X122716Y363930D01*
X122082Y364756D01*
X121256Y365390D01*
X120295Y365788D01*
X119263Y365924D01*
D02*
G37*
G36*
X109263D02*
X108231Y365788D01*
X107270Y365390D01*
X106444Y364756D01*
X105810Y363930D01*
X105412Y362969D01*
X105276Y361937D01*
X105412Y360905D01*
X105810Y359944D01*
X106444Y359118D01*
X107270Y358484D01*
X108231Y358086D01*
X109263Y357950D01*
X110295Y358086D01*
X111257Y358484D01*
X112082Y359118D01*
X112716Y359944D01*
X113114Y360905D01*
X113250Y361937D01*
X113114Y362969D01*
X112716Y363930D01*
X112082Y364756D01*
X111257Y365390D01*
X110295Y365788D01*
X109263Y365924D01*
D02*
G37*
G36*
X99263D02*
X98231Y365788D01*
X97270Y365390D01*
X96444Y364756D01*
X95810Y363930D01*
X95412Y362969D01*
X95276Y361937D01*
X95412Y360905D01*
X95810Y359944D01*
X96444Y359118D01*
X97270Y358484D01*
X98231Y358086D01*
X99263Y357950D01*
X100295Y358086D01*
X101257Y358484D01*
X102082Y359118D01*
X102716Y359944D01*
X103114Y360905D01*
X103250Y361937D01*
X103114Y362969D01*
X102716Y363930D01*
X102082Y364756D01*
X101257Y365390D01*
X100295Y365788D01*
X99263Y365924D01*
D02*
G37*
G36*
X16000Y371834D02*
X14569Y371694D01*
X13193Y371276D01*
X11925Y370598D01*
X10814Y369686D01*
X9902Y368575D01*
X9224Y367307D01*
X8806Y365931D01*
X8665Y364500D01*
X8806Y363069D01*
X9224Y361693D01*
X9902Y360425D01*
X10814Y359314D01*
X11925Y358402D01*
X13193Y357724D01*
X14569Y357306D01*
X16000Y357166D01*
X17431Y357306D01*
X18807Y357724D01*
X20075Y358402D01*
X21186Y359314D01*
X22098Y360425D01*
X22776Y361693D01*
X23194Y363069D01*
X23335Y364500D01*
X23194Y365931D01*
X22776Y367307D01*
X22098Y368575D01*
X21186Y369686D01*
X20075Y370598D01*
X18807Y371276D01*
X17431Y371694D01*
X16000Y371834D01*
D02*
G37*
G36*
X364500Y371335D02*
X363069Y371194D01*
X361693Y370776D01*
X360425Y370098D01*
X359314Y369186D01*
X358402Y368075D01*
X357724Y366807D01*
X357306Y365431D01*
X357166Y364000D01*
X357306Y362569D01*
X357724Y361193D01*
X358402Y359925D01*
X359314Y358814D01*
X360425Y357902D01*
X361693Y357224D01*
X363069Y356806D01*
X364500Y356665D01*
X365931Y356806D01*
X367307Y357224D01*
X368575Y357902D01*
X369686Y358814D01*
X370598Y359925D01*
X371276Y361193D01*
X371694Y362569D01*
X371834Y364000D01*
X371694Y365431D01*
X371276Y366807D01*
X370598Y368075D01*
X369686Y369186D01*
X368575Y370098D01*
X367307Y370776D01*
X365931Y371194D01*
X364500Y371335D01*
D02*
G37*
G36*
X44000Y364534D02*
X42956Y364397D01*
X41983Y363994D01*
X41147Y363353D01*
X40506Y362517D01*
X40103Y361544D01*
X39966Y360500D01*
X40103Y359456D01*
X40506Y358483D01*
X41147Y357647D01*
X41983Y357006D01*
X42956Y356603D01*
X44000Y356466D01*
X45044Y356603D01*
X46017Y357006D01*
X46853Y357647D01*
X47494Y358483D01*
X47897Y359456D01*
X48035Y360500D01*
X47897Y361544D01*
X47494Y362517D01*
X46853Y363353D01*
X46017Y363994D01*
X45044Y364397D01*
X44000Y364534D01*
D02*
G37*
G36*
X206732Y355900D02*
Y354405D01*
X208226D01*
X208216Y354430D01*
X207582Y355256D01*
X206757Y355890D01*
X206732Y355900D01*
D02*
G37*
G36*
X202795D02*
X202770Y355890D01*
X201944Y355256D01*
X201310Y354430D01*
X201300Y354405D01*
X202795D01*
Y355900D01*
D02*
G37*
G36*
X208226Y350468D02*
X206732D01*
Y348974D01*
X206757Y348984D01*
X207582Y349618D01*
X208216Y350444D01*
X208226Y350468D01*
D02*
G37*
G36*
X202795D02*
X201300D01*
X201310Y350444D01*
X201944Y349618D01*
X202770Y348984D01*
X202795Y348974D01*
Y350468D01*
D02*
G37*
G36*
X240263Y356924D02*
X239231Y356788D01*
X238270Y356390D01*
X237444Y355756D01*
X236810Y354930D01*
X236412Y353969D01*
X236276Y352937D01*
X236412Y351905D01*
X236810Y350943D01*
X237444Y350118D01*
X238270Y349484D01*
X239231Y349086D01*
X240263Y348950D01*
X241295Y349086D01*
X242257Y349484D01*
X243082Y350118D01*
X243716Y350943D01*
X244114Y351905D01*
X244250Y352937D01*
X244114Y353969D01*
X243716Y354930D01*
X243082Y355756D01*
X242257Y356390D01*
X241295Y356788D01*
X240263Y356924D01*
D02*
G37*
G36*
X174763Y356424D02*
X173731Y356288D01*
X172770Y355890D01*
X171944Y355256D01*
X171310Y354430D01*
X170912Y353469D01*
X170776Y352437D01*
X170912Y351405D01*
X171310Y350444D01*
X171944Y349618D01*
X172770Y348984D01*
X173731Y348586D01*
X174763Y348450D01*
X175795Y348586D01*
X176757Y348984D01*
X177582Y349618D01*
X178216Y350444D01*
X178614Y351405D01*
X178750Y352437D01*
X178614Y353469D01*
X178216Y354430D01*
X177582Y355256D01*
X176757Y355890D01*
X175795Y356288D01*
X174763Y356424D01*
D02*
G37*
G36*
X164763D02*
X163731Y356288D01*
X162770Y355890D01*
X161944Y355256D01*
X161310Y354430D01*
X160912Y353469D01*
X160776Y352437D01*
X160912Y351405D01*
X161310Y350444D01*
X161944Y349618D01*
X162770Y348984D01*
X163731Y348586D01*
X164763Y348450D01*
X165795Y348586D01*
X166756Y348984D01*
X167582Y349618D01*
X168216Y350444D01*
X168614Y351405D01*
X168750Y352437D01*
X168614Y353469D01*
X168216Y354430D01*
X167582Y355256D01*
X166756Y355890D01*
X165795Y356288D01*
X164763Y356424D01*
D02*
G37*
G36*
X129263Y355924D02*
X128231Y355788D01*
X127270Y355390D01*
X126444Y354756D01*
X125810Y353930D01*
X125412Y352969D01*
X125276Y351937D01*
X125412Y350905D01*
X125810Y349943D01*
X126444Y349118D01*
X127270Y348484D01*
X128231Y348086D01*
X129263Y347950D01*
X130295Y348086D01*
X131256Y348484D01*
X132082Y349118D01*
X132716Y349943D01*
X133114Y350905D01*
X133250Y351937D01*
X133114Y352969D01*
X132716Y353930D01*
X132082Y354756D01*
X131256Y355390D01*
X130295Y355788D01*
X129263Y355924D01*
D02*
G37*
G36*
X119263D02*
X118231Y355788D01*
X117270Y355390D01*
X116444Y354756D01*
X115810Y353930D01*
X115412Y352969D01*
X115276Y351937D01*
X115412Y350905D01*
X115810Y349943D01*
X116444Y349118D01*
X117270Y348484D01*
X118231Y348086D01*
X119263Y347950D01*
X120295Y348086D01*
X121256Y348484D01*
X122082Y349118D01*
X122716Y349943D01*
X123114Y350905D01*
X123250Y351937D01*
X123114Y352969D01*
X122716Y353930D01*
X122082Y354756D01*
X121256Y355390D01*
X120295Y355788D01*
X119263Y355924D01*
D02*
G37*
G36*
X109263D02*
X108231Y355788D01*
X107270Y355390D01*
X106444Y354756D01*
X105810Y353930D01*
X105412Y352969D01*
X105276Y351937D01*
X105412Y350905D01*
X105810Y349943D01*
X106444Y349118D01*
X107270Y348484D01*
X108231Y348086D01*
X109263Y347950D01*
X110295Y348086D01*
X111257Y348484D01*
X112082Y349118D01*
X112716Y349943D01*
X113114Y350905D01*
X113250Y351937D01*
X113114Y352969D01*
X112716Y353930D01*
X112082Y354756D01*
X111257Y355390D01*
X110295Y355788D01*
X109263Y355924D01*
D02*
G37*
G36*
X99263D02*
X98231Y355788D01*
X97270Y355390D01*
X96444Y354756D01*
X95810Y353930D01*
X95412Y352969D01*
X95276Y351937D01*
X95412Y350905D01*
X95810Y349943D01*
X96444Y349118D01*
X97270Y348484D01*
X98231Y348086D01*
X99263Y347950D01*
X100295Y348086D01*
X101257Y348484D01*
X102082Y349118D01*
X102716Y349943D01*
X103114Y350905D01*
X103250Y351937D01*
X103114Y352969D01*
X102716Y353930D01*
X102082Y354756D01*
X101257Y355390D01*
X100295Y355788D01*
X99263Y355924D01*
D02*
G37*
G36*
X89263D02*
X88231Y355788D01*
X87270Y355390D01*
X86444Y354756D01*
X85810Y353930D01*
X85412Y352969D01*
X85276Y351937D01*
X85412Y350905D01*
X85810Y349943D01*
X86444Y349118D01*
X87270Y348484D01*
X88231Y348086D01*
X89263Y347950D01*
X90295Y348086D01*
X91257Y348484D01*
X92082Y349118D01*
X92716Y349943D01*
X93114Y350905D01*
X93250Y351937D01*
X93114Y352969D01*
X92716Y353930D01*
X92082Y354756D01*
X91257Y355390D01*
X90295Y355788D01*
X89263Y355924D01*
D02*
G37*
G36*
X339638Y342067D02*
X338361Y341941D01*
X337134Y341569D01*
X336002Y340964D01*
X335011Y340150D01*
X334197Y339159D01*
X333593Y338028D01*
X333220Y336800D01*
X333095Y335524D01*
X333220Y334247D01*
X333593Y333020D01*
X334197Y331888D01*
X335011Y330897D01*
X336002Y330083D01*
X337134Y329478D01*
X338361Y329106D01*
X339638Y328980D01*
X340914Y329106D01*
X342142Y329478D01*
X343273Y330083D01*
X344265Y330897D01*
X345078Y331888D01*
X345683Y333020D01*
X346055Y334247D01*
X346181Y335524D01*
X346055Y336800D01*
X345683Y338028D01*
X345078Y339159D01*
X344265Y340150D01*
X343273Y340964D01*
X342142Y341569D01*
X340914Y341941D01*
X339638Y342067D01*
D02*
G37*
G36*
X244216Y366890D02*
X236310D01*
Y362519D01*
X234734D01*
X234051Y362383D01*
X233472Y361996D01*
X227238Y355762D01*
X226852Y355183D01*
X226716Y354500D01*
Y334500D01*
X226852Y333817D01*
X227238Y333238D01*
X235246Y325231D01*
X235640Y324640D01*
X236231Y324246D01*
X248390Y312087D01*
Y309096D01*
X248251Y308400D01*
X248397Y307664D01*
X248814Y307040D01*
X249438Y306623D01*
X250174Y306477D01*
X250910Y306623D01*
X251534Y307040D01*
X251950Y307664D01*
X252097Y308400D01*
X251958Y309096D01*
Y312826D01*
X251822Y313509D01*
X251436Y314088D01*
X238754Y326769D01*
X238360Y327360D01*
X237769Y327754D01*
X230284Y335239D01*
Y353761D01*
X235473Y358950D01*
X238060D01*
X238233Y358984D01*
X244216D01*
Y366890D01*
D02*
G37*
G36*
X11443Y305502D02*
X10668Y305400D01*
X9946Y305101D01*
X9326Y304625D01*
X8850Y304005D01*
X8551Y303283D01*
X8449Y302508D01*
X8551Y301733D01*
X8850Y301011D01*
X9326Y300391D01*
X9946Y299915D01*
X10668Y299616D01*
X11443Y299514D01*
X12218Y299616D01*
X12940Y299915D01*
X13560Y300391D01*
X14036Y301011D01*
X14335Y301733D01*
X14437Y302508D01*
X14335Y303283D01*
X14036Y304005D01*
X13560Y304625D01*
X12940Y305101D01*
X12218Y305400D01*
X11443Y305502D01*
D02*
G37*
G36*
X11433Y274006D02*
X10658Y273904D01*
X9936Y273605D01*
X9316Y273129D01*
X8840Y272509D01*
X8541Y271787D01*
X8439Y271012D01*
X8541Y270237D01*
X8840Y269515D01*
X9316Y268895D01*
X9936Y268419D01*
X10658Y268120D01*
X11433Y268018D01*
X12208Y268120D01*
X12930Y268419D01*
X13550Y268895D01*
X14026Y269515D01*
X14325Y270237D01*
X14427Y271012D01*
X14325Y271787D01*
X14026Y272509D01*
X13550Y273129D01*
X12930Y273605D01*
X12208Y273904D01*
X11433Y274006D01*
D02*
G37*
G36*
X339638Y220020D02*
X338361Y219894D01*
X337134Y219522D01*
X336002Y218917D01*
X335011Y218103D01*
X334197Y217112D01*
X333593Y215980D01*
X333220Y214753D01*
X333095Y213476D01*
X333220Y212200D01*
X333593Y210972D01*
X334197Y209841D01*
X335011Y208850D01*
X336002Y208036D01*
X337134Y207431D01*
X338361Y207059D01*
X339638Y206933D01*
X340914Y207059D01*
X342142Y207431D01*
X343273Y208036D01*
X344265Y208850D01*
X345078Y209841D01*
X345683Y210972D01*
X346055Y212200D01*
X346181Y213476D01*
X346055Y214753D01*
X345683Y215980D01*
X345078Y217112D01*
X344265Y218103D01*
X343273Y218917D01*
X342142Y219522D01*
X340914Y219894D01*
X339638Y220020D01*
D02*
G37*
G36*
X44362D02*
X43086Y219894D01*
X41858Y219522D01*
X40727Y218917D01*
X39735Y218103D01*
X38922Y217112D01*
X38317Y215980D01*
X37945Y214753D01*
X37819Y213476D01*
X37945Y212200D01*
X38317Y210972D01*
X38922Y209841D01*
X39735Y208850D01*
X40727Y208036D01*
X41858Y207431D01*
X43086Y207059D01*
X44362Y206933D01*
X45639Y207059D01*
X46866Y207431D01*
X47997Y208036D01*
X48989Y208850D01*
X49803Y209841D01*
X50407Y210972D01*
X50780Y212200D01*
X50906Y213476D01*
X50780Y214753D01*
X50407Y215980D01*
X49803Y217112D01*
X48989Y218103D01*
X47997Y218917D01*
X46866Y219522D01*
X45639Y219894D01*
X44362Y220020D01*
D02*
G37*
G36*
X216016Y339510D02*
X214984Y339375D01*
X214022Y338976D01*
X213197Y338343D01*
X212563Y337517D01*
X212165Y336556D01*
X212029Y335524D01*
X212165Y334492D01*
X212563Y333530D01*
X213197Y332704D01*
X214022Y332071D01*
X214231Y331984D01*
Y329484D01*
X214367Y328801D01*
X214754Y328223D01*
X263716Y279261D01*
Y192953D01*
X261547D01*
Y185047D01*
X269453D01*
Y192953D01*
X267284D01*
Y280000D01*
X267284Y280000D01*
X267148Y280683D01*
X266762Y281262D01*
X266762Y281262D01*
X217800Y330223D01*
Y331984D01*
X218009Y332071D01*
X218835Y332704D01*
X219468Y333530D01*
X219867Y334492D01*
X220003Y335524D01*
X219867Y336556D01*
X219468Y337517D01*
X218835Y338343D01*
X218009Y338976D01*
X217048Y339375D01*
X216016Y339510D01*
D02*
G37*
G36*
X206016D02*
X204984Y339375D01*
X204022Y338976D01*
X203197Y338343D01*
X202563Y337517D01*
X202165Y336556D01*
X202029Y335524D01*
X202165Y334492D01*
X202563Y333530D01*
X203197Y332704D01*
X204022Y332071D01*
X204391Y331918D01*
Y331325D01*
X204526Y330642D01*
X204913Y330063D01*
X253716Y281261D01*
Y192539D01*
X253507Y192453D01*
X252681Y191819D01*
X252047Y190993D01*
X251649Y190032D01*
X251513Y189000D01*
X251649Y187968D01*
X252047Y187007D01*
X252681Y186181D01*
X253507Y185547D01*
X254468Y185149D01*
X255500Y185013D01*
X256532Y185149D01*
X257493Y185547D01*
X258319Y186181D01*
X258953Y187007D01*
X259351Y187968D01*
X259487Y189000D01*
X259351Y190032D01*
X258953Y190993D01*
X258319Y191819D01*
X257493Y192453D01*
X257284Y192539D01*
Y282000D01*
X257149Y282683D01*
X256762Y283262D01*
X256762Y283262D01*
X208334Y331690D01*
X208377Y332353D01*
X208835Y332704D01*
X209469Y333530D01*
X209867Y334492D01*
X210003Y335524D01*
X209867Y336556D01*
X209469Y337517D01*
X208835Y338343D01*
X208009Y338976D01*
X207048Y339375D01*
X206016Y339510D01*
D02*
G37*
G36*
X196016D02*
X194984Y339375D01*
X194022Y338976D01*
X193197Y338343D01*
X192563Y337517D01*
X192165Y336556D01*
X192029Y335524D01*
X192165Y334492D01*
X192563Y333530D01*
X193197Y332704D01*
X194022Y332071D01*
X194984Y331673D01*
X196016Y331537D01*
X197048Y331673D01*
X197257Y331759D01*
X243716Y285300D01*
Y192539D01*
X243507Y192453D01*
X242681Y191819D01*
X242047Y190993D01*
X241649Y190032D01*
X241513Y189000D01*
X241649Y187968D01*
X242047Y187007D01*
X242681Y186181D01*
X243507Y185547D01*
X244468Y185149D01*
X245500Y185013D01*
X246532Y185149D01*
X247493Y185547D01*
X248319Y186181D01*
X248953Y187007D01*
X249351Y187968D01*
X249487Y189000D01*
X249351Y190032D01*
X248953Y190993D01*
X248319Y191819D01*
X247493Y192453D01*
X247284Y192539D01*
Y286039D01*
X247148Y286722D01*
X246762Y287301D01*
X246762Y287301D01*
X199780Y334283D01*
X199867Y334492D01*
X200003Y335524D01*
X199867Y336556D01*
X199469Y337517D01*
X198835Y338343D01*
X198009Y338976D01*
X197048Y339375D01*
X196016Y339510D01*
D02*
G37*
G36*
X48969Y183432D02*
Y181512D01*
X50890D01*
X50797Y181735D01*
X50100Y182643D01*
X49193Y183340D01*
X48969Y183432D01*
D02*
G37*
G36*
X334969Y183432D02*
Y181512D01*
X336890D01*
X336797Y181735D01*
X336100Y182643D01*
X335192Y183340D01*
X334969Y183432D01*
D02*
G37*
G36*
X331032Y183432D02*
X330808Y183340D01*
X329901Y182643D01*
X329204Y181735D01*
X329111Y181512D01*
X331032D01*
Y183432D01*
D02*
G37*
G36*
X45032Y183432D02*
X44809Y183340D01*
X43901Y182643D01*
X43204Y181735D01*
X43111Y181512D01*
X45032D01*
Y183432D01*
D02*
G37*
G36*
X331032Y177575D02*
X329111D01*
X329204Y177351D01*
X329901Y176443D01*
X330808Y175747D01*
X331032Y175654D01*
Y177575D01*
D02*
G37*
G36*
X50890D02*
X48969D01*
Y175654D01*
X49193Y175747D01*
X50100Y176443D01*
X50797Y177351D01*
X50890Y177575D01*
D02*
G37*
G36*
X45032D02*
X43111D01*
X43204Y177351D01*
X43901Y176443D01*
X44809Y175747D01*
X45032Y175654D01*
Y177575D01*
D02*
G37*
G36*
X336890D02*
X334969D01*
Y175654D01*
X335192Y175747D01*
X336100Y176443D01*
X336797Y177351D01*
X336890Y177575D01*
D02*
G37*
G36*
X293000Y199923D02*
X292304Y199784D01*
X287500D01*
X286817Y199648D01*
X286238Y199262D01*
X284738Y197762D01*
X284351Y197183D01*
X284216Y196500D01*
Y181500D01*
X284351Y180817D01*
X284738Y180238D01*
X286695Y178281D01*
X286695Y178281D01*
X287274Y177895D01*
X287957Y177759D01*
X319193D01*
X319361Y177351D01*
X320058Y176443D01*
X320966Y175747D01*
X322023Y175309D01*
X323158Y175159D01*
X324293Y175309D01*
X325350Y175747D01*
X326258Y176443D01*
X326955Y177351D01*
X327393Y178408D01*
X327542Y179543D01*
X327393Y180678D01*
X326955Y181735D01*
X326258Y182643D01*
X325350Y183340D01*
X324293Y183778D01*
X323158Y183927D01*
X322023Y183778D01*
X320966Y183340D01*
X320058Y182643D01*
X319361Y181735D01*
X319193Y181327D01*
X288696D01*
X287784Y182239D01*
Y195761D01*
X288239Y196216D01*
X289842D01*
X290044Y195716D01*
X289724Y195236D01*
X289577Y194500D01*
X289724Y193764D01*
X290140Y193140D01*
X290764Y192724D01*
X291500Y192577D01*
X292196Y192716D01*
X339761D01*
X341594Y190882D01*
Y183730D01*
X340651Y183340D01*
X339743Y182643D01*
X339046Y181735D01*
X338608Y180678D01*
X338459Y179543D01*
X338608Y178408D01*
X339046Y177351D01*
X339743Y176443D01*
X340651Y175747D01*
X341708Y175309D01*
X342843Y175159D01*
X343978Y175309D01*
X345035Y175747D01*
X345943Y176443D01*
X346640Y177351D01*
X347078Y178408D01*
X347227Y179543D01*
X347078Y180678D01*
X346640Y181735D01*
X345943Y182643D01*
X345163Y183241D01*
Y191621D01*
X345163Y191621D01*
X345027Y192304D01*
X344640Y192883D01*
X341762Y195762D01*
X341183Y196149D01*
X340500Y196284D01*
X294658D01*
X294456Y196784D01*
X294776Y197264D01*
X294923Y198000D01*
X294776Y198736D01*
X294360Y199360D01*
X293736Y199776D01*
X293000Y199923D01*
D02*
G37*
G36*
X354654Y157955D02*
X353160Y157758D01*
X351767Y157181D01*
X350571Y156263D01*
X349654Y155068D01*
X349077Y153675D01*
X348880Y152181D01*
Y147850D01*
X349077Y146356D01*
X349654Y144963D01*
X350571Y143767D01*
X351767Y142850D01*
X353160Y142273D01*
X354654Y142076D01*
X356148Y142273D01*
X357541Y142850D01*
X358737Y143767D01*
X359654Y144963D01*
X360231Y146356D01*
X360428Y147850D01*
Y152181D01*
X360231Y153675D01*
X359654Y155068D01*
X358737Y156263D01*
X357541Y157181D01*
X356148Y157758D01*
X354654Y157955D01*
D02*
G37*
G36*
X311347D02*
X309853Y157758D01*
X308460Y157181D01*
X307264Y156263D01*
X306347Y155068D01*
X305770Y153675D01*
X305573Y152181D01*
Y147850D01*
X305770Y146356D01*
X306347Y144963D01*
X307264Y143767D01*
X308460Y142850D01*
X309853Y142273D01*
X311347Y142076D01*
X312841Y142273D01*
X314234Y142850D01*
X315430Y143767D01*
X316347Y144963D01*
X316924Y146356D01*
X317121Y147850D01*
Y152181D01*
X316924Y153675D01*
X316347Y155068D01*
X315430Y156263D01*
X314234Y157181D01*
X312841Y157758D01*
X311347Y157955D01*
D02*
G37*
G36*
X68654D02*
X67160Y157758D01*
X65767Y157181D01*
X64571Y156263D01*
X63654Y155068D01*
X63077Y153675D01*
X62880Y152181D01*
Y147850D01*
X63077Y146356D01*
X63654Y144963D01*
X64571Y143767D01*
X65767Y142850D01*
X67160Y142273D01*
X68654Y142076D01*
X70148Y142273D01*
X71541Y142850D01*
X72737Y143767D01*
X73654Y144963D01*
X74231Y146356D01*
X74428Y147850D01*
Y152181D01*
X74231Y153675D01*
X73654Y155068D01*
X72737Y156263D01*
X71541Y157181D01*
X70148Y157758D01*
X68654Y157955D01*
D02*
G37*
G36*
X25347D02*
X23853Y157758D01*
X22460Y157181D01*
X21264Y156263D01*
X20347Y155068D01*
X19770Y153675D01*
X19573Y152181D01*
Y147850D01*
X19770Y146356D01*
X20347Y144963D01*
X21264Y143767D01*
X22460Y142850D01*
X23853Y142273D01*
X25347Y142076D01*
X26841Y142273D01*
X28234Y142850D01*
X29430Y143767D01*
X30347Y144963D01*
X30924Y146356D01*
X31121Y147850D01*
Y152181D01*
X30924Y153675D01*
X30347Y155068D01*
X29430Y156263D01*
X28234Y157181D01*
X26841Y157758D01*
X25347Y157955D01*
D02*
G37*
G36*
X221477Y146409D02*
X213375D01*
Y138307D01*
X221477D01*
Y146409D01*
D02*
G37*
G36*
X243017Y146444D02*
X241959Y146305D01*
X240974Y145897D01*
X240127Y145248D01*
X239478Y144401D01*
X239070Y143416D01*
X238931Y142358D01*
X239070Y141301D01*
X239478Y140315D01*
X240127Y139469D01*
X240974Y138820D01*
X241959Y138411D01*
X243017Y138272D01*
X244074Y138411D01*
X245060Y138820D01*
X245906Y139469D01*
X246555Y140315D01*
X246964Y141301D01*
X247103Y142358D01*
X246964Y143416D01*
X246555Y144401D01*
X245906Y145248D01*
X245060Y145897D01*
X244074Y146305D01*
X243017Y146444D01*
D02*
G37*
G36*
X244985Y128211D02*
Y126610D01*
X246586D01*
X246555Y126685D01*
X245906Y127531D01*
X245060Y128180D01*
X244985Y128211D01*
D02*
G37*
G36*
X241048Y128211D02*
X240974Y128180D01*
X240127Y127531D01*
X239478Y126685D01*
X239447Y126610D01*
X241048D01*
Y128211D01*
D02*
G37*
G36*
X325127Y126329D02*
Y124425D01*
X326916D01*
X326783Y124746D01*
X326117Y125613D01*
X325251Y126278D01*
X325127Y126329D01*
D02*
G37*
G36*
X39127Y126329D02*
Y124425D01*
X40916D01*
X40783Y124746D01*
X40117Y125613D01*
X39251Y126278D01*
X39127Y126329D01*
D02*
G37*
G36*
X35190D02*
X35065Y126278D01*
X34198Y125613D01*
X33533Y124746D01*
X33400Y124425D01*
X35190D01*
Y126329D01*
D02*
G37*
G36*
X321189Y126329D02*
X321065Y126278D01*
X320198Y125613D01*
X319533Y124746D01*
X319400Y124425D01*
X321189D01*
Y126329D01*
D02*
G37*
G36*
X246586Y122673D02*
X244985D01*
Y121072D01*
X245060Y121103D01*
X245906Y121752D01*
X246555Y122599D01*
X246586Y122673D01*
D02*
G37*
G36*
X241048D02*
X239447D01*
X239478Y122599D01*
X240127Y121752D01*
X240974Y121103D01*
X241048Y121072D01*
Y122673D01*
D02*
G37*
G36*
X217426Y128728D02*
X216369Y128589D01*
X215383Y128180D01*
X214537Y127531D01*
X213887Y126685D01*
X213479Y125699D01*
X213340Y124642D01*
X213479Y123584D01*
X213887Y122599D01*
X214537Y121752D01*
X215383Y121103D01*
X216369Y120695D01*
X217426Y120556D01*
X218484Y120695D01*
X219469Y121103D01*
X220316Y121752D01*
X220965Y122599D01*
X221373Y123584D01*
X221512Y124642D01*
X221373Y125699D01*
X220965Y126685D01*
X220316Y127531D01*
X219469Y128180D01*
X218484Y128589D01*
X217426Y128728D01*
D02*
G37*
G36*
X326916Y120488D02*
X325127D01*
Y118583D01*
X325251Y118635D01*
X326117Y119300D01*
X326783Y120167D01*
X326916Y120488D01*
D02*
G37*
G36*
X40916D02*
X39127D01*
Y118583D01*
X39251Y118635D01*
X40117Y119300D01*
X40783Y120167D01*
X40916Y120488D01*
D02*
G37*
G36*
X35190D02*
X33400D01*
X33533Y120167D01*
X34198Y119300D01*
X35065Y118635D01*
X35190Y118583D01*
Y120488D01*
D02*
G37*
G36*
X321189D02*
X319400D01*
X319533Y120167D01*
X320198Y119300D01*
X321065Y118635D01*
X321189Y118583D01*
Y120488D01*
D02*
G37*
G36*
X57040Y126642D02*
X56646D01*
X55563Y126499D01*
X54553Y126081D01*
X53687Y125416D01*
X53022Y124549D01*
X52603Y123540D01*
X52461Y122456D01*
X52603Y121373D01*
X53022Y120364D01*
X53687Y119497D01*
X54553Y118832D01*
X55563Y118414D01*
X56646Y118271D01*
X57040D01*
X58123Y118414D01*
X59133Y118832D01*
X59999Y119497D01*
X60664Y120364D01*
X61083Y121373D01*
X61225Y122456D01*
X61083Y123540D01*
X60664Y124549D01*
X59999Y125416D01*
X59133Y126081D01*
X58123Y126499D01*
X57040Y126642D01*
D02*
G37*
G36*
X348453Y110953D02*
X340547D01*
Y103047D01*
X348453D01*
Y110953D01*
D02*
G37*
G36*
X60453D02*
X52547D01*
Y103047D01*
X60453D01*
Y110953D01*
D02*
G37*
G36*
X334500Y110987D02*
X333468Y110851D01*
X332507Y110453D01*
X331681Y109819D01*
X331047Y108993D01*
X330649Y108032D01*
X330513Y107000D01*
X330649Y105968D01*
X331047Y105007D01*
X331681Y104181D01*
X332507Y103547D01*
X333468Y103149D01*
X334500Y103013D01*
X335532Y103149D01*
X336493Y103547D01*
X337319Y104181D01*
X337953Y105007D01*
X338351Y105968D01*
X338487Y107000D01*
X338351Y108032D01*
X337953Y108993D01*
X337319Y109819D01*
X336493Y110453D01*
X335532Y110851D01*
X334500Y110987D01*
D02*
G37*
G36*
X324500D02*
X323468Y110851D01*
X322507Y110453D01*
X321681Y109819D01*
X321047Y108993D01*
X320649Y108032D01*
X320513Y107000D01*
X320649Y105968D01*
X321047Y105007D01*
X321681Y104181D01*
X322507Y103547D01*
X323468Y103149D01*
X324500Y103013D01*
X325532Y103149D01*
X326493Y103547D01*
X327319Y104181D01*
X327953Y105007D01*
X328351Y105968D01*
X328487Y107000D01*
X328351Y108032D01*
X327953Y108993D01*
X327319Y109819D01*
X326493Y110453D01*
X325532Y110851D01*
X324500Y110987D01*
D02*
G37*
G36*
X46500D02*
X45468Y110851D01*
X44507Y110453D01*
X43681Y109819D01*
X43047Y108993D01*
X42649Y108032D01*
X42513Y107000D01*
X42649Y105968D01*
X43047Y105007D01*
X43681Y104181D01*
X44507Y103547D01*
X45468Y103149D01*
X46500Y103013D01*
X47532Y103149D01*
X48493Y103547D01*
X49319Y104181D01*
X49953Y105007D01*
X50351Y105968D01*
X50487Y107000D01*
X50351Y108032D01*
X49953Y108993D01*
X49319Y109819D01*
X48493Y110453D01*
X47532Y110851D01*
X46500Y110987D01*
D02*
G37*
G36*
X36500D02*
X35468Y110851D01*
X34507Y110453D01*
X33681Y109819D01*
X33047Y108993D01*
X32649Y108032D01*
X32513Y107000D01*
X32649Y105968D01*
X33047Y105007D01*
X33681Y104181D01*
X34507Y103547D01*
X35468Y103149D01*
X36500Y103013D01*
X37532Y103149D01*
X38493Y103547D01*
X39319Y104181D01*
X39953Y105007D01*
X40351Y105968D01*
X40487Y107000D01*
X40351Y108032D01*
X39953Y108993D01*
X39319Y109819D01*
X38493Y110453D01*
X37532Y110851D01*
X36500Y110987D01*
D02*
G37*
G36*
X188756Y102362D02*
X185984D01*
Y100378D01*
X188756D01*
Y102362D01*
D02*
G37*
G36*
X121573Y82928D02*
Y81327D01*
X123174D01*
X123143Y81401D01*
X122494Y82248D01*
X121648Y82897D01*
X121573Y82928D01*
D02*
G37*
G36*
X117636D02*
X117562Y82897D01*
X116715Y82248D01*
X116066Y81401D01*
X116035Y81327D01*
X117636D01*
Y82928D01*
D02*
G37*
G36*
X123174Y77390D02*
X121573D01*
Y75789D01*
X121648Y75820D01*
X122494Y76469D01*
X123143Y77315D01*
X123174Y77390D01*
D02*
G37*
G36*
X117636D02*
X116035D01*
X116066Y77315D01*
X116715Y76469D01*
X117562Y75820D01*
X117636Y75789D01*
Y77390D01*
D02*
G37*
G36*
X221477Y83410D02*
X213375D01*
Y75307D01*
X221477D01*
Y83410D01*
D02*
G37*
G36*
X243017Y83444D02*
X241959Y83305D01*
X240974Y82897D01*
X240127Y82248D01*
X239478Y81401D01*
X239070Y80416D01*
X238931Y79358D01*
X239070Y78301D01*
X239478Y77315D01*
X240127Y76469D01*
X240974Y75820D01*
X241959Y75411D01*
X243017Y75272D01*
X244074Y75411D01*
X245060Y75820D01*
X245906Y76469D01*
X246555Y77315D01*
X246964Y78301D01*
X247103Y79358D01*
X246964Y80416D01*
X246555Y81401D01*
X245906Y82248D01*
X245060Y82897D01*
X244074Y83305D01*
X243017Y83444D01*
D02*
G37*
G36*
X145195D02*
X144138Y83305D01*
X143152Y82897D01*
X142306Y82248D01*
X141657Y81401D01*
X141248Y80416D01*
X141109Y79358D01*
X141248Y78301D01*
X141657Y77315D01*
X142306Y76469D01*
X143152Y75820D01*
X144138Y75411D01*
X145195Y75272D01*
X146253Y75411D01*
X147238Y75820D01*
X148085Y76469D01*
X148734Y77315D01*
X149142Y78301D01*
X149281Y79358D01*
X149142Y80416D01*
X148734Y81401D01*
X148085Y82248D01*
X147238Y82897D01*
X146253Y83305D01*
X145195Y83444D01*
D02*
G37*
G36*
X352201Y78807D02*
X350924Y78681D01*
X349697Y78309D01*
X348566Y77704D01*
X347574Y76891D01*
X346760Y75899D01*
X346156Y74768D01*
X345783Y73540D01*
X345657Y72264D01*
X345783Y70987D01*
X346156Y69760D01*
X346760Y68629D01*
X347574Y67637D01*
X348566Y66823D01*
X349697Y66219D01*
X350924Y65846D01*
X352201Y65720D01*
X353477Y65846D01*
X354705Y66219D01*
X355836Y66823D01*
X356828Y67637D01*
X357641Y68629D01*
X358246Y69760D01*
X358618Y70987D01*
X358744Y72264D01*
X358618Y73540D01*
X358246Y74768D01*
X357641Y75899D01*
X356828Y76891D01*
X355836Y77704D01*
X354705Y78309D01*
X353477Y78681D01*
X352201Y78807D01*
D02*
G37*
G36*
X314799D02*
X313523Y78681D01*
X312295Y78309D01*
X311164Y77704D01*
X310172Y76891D01*
X309359Y75899D01*
X308754Y74768D01*
X308382Y73540D01*
X308256Y72264D01*
X308382Y70987D01*
X308754Y69760D01*
X309359Y68629D01*
X310172Y67637D01*
X311164Y66823D01*
X312295Y66219D01*
X313523Y65846D01*
X314799Y65720D01*
X316076Y65846D01*
X317303Y66219D01*
X318435Y66823D01*
X319426Y67637D01*
X320240Y68629D01*
X320844Y69760D01*
X321217Y70987D01*
X321342Y72264D01*
X321217Y73540D01*
X320844Y74768D01*
X320240Y75899D01*
X319426Y76891D01*
X318435Y77704D01*
X317303Y78309D01*
X316076Y78681D01*
X314799Y78807D01*
D02*
G37*
G36*
X65701D02*
X64425Y78681D01*
X63197Y78309D01*
X62066Y77704D01*
X61075Y76891D01*
X60261Y75899D01*
X59656Y74768D01*
X59284Y73540D01*
X59158Y72264D01*
X59284Y70987D01*
X59656Y69760D01*
X60261Y68629D01*
X61075Y67637D01*
X62066Y66823D01*
X63197Y66219D01*
X64425Y65846D01*
X65701Y65720D01*
X66978Y65846D01*
X68205Y66219D01*
X69337Y66823D01*
X70328Y67637D01*
X71142Y68629D01*
X71746Y69760D01*
X72119Y70987D01*
X72245Y72264D01*
X72119Y73540D01*
X71746Y74768D01*
X71142Y75899D01*
X70328Y76891D01*
X69337Y77704D01*
X68205Y78309D01*
X66978Y78681D01*
X65701Y78807D01*
D02*
G37*
G36*
X28300D02*
X27023Y78681D01*
X25796Y78309D01*
X24664Y77704D01*
X23673Y76891D01*
X22859Y75899D01*
X22254Y74768D01*
X21882Y73540D01*
X21756Y72264D01*
X21882Y70987D01*
X22254Y69760D01*
X22859Y68629D01*
X23673Y67637D01*
X24664Y66823D01*
X25796Y66219D01*
X27023Y65846D01*
X28300Y65720D01*
X29576Y65846D01*
X30804Y66219D01*
X31935Y66823D01*
X32926Y67637D01*
X33740Y68629D01*
X34345Y69760D01*
X34717Y70987D01*
X34843Y72264D01*
X34717Y73540D01*
X34345Y74768D01*
X33740Y75899D01*
X32926Y76891D01*
X31935Y77704D01*
X30804Y78309D01*
X29576Y78681D01*
X28300Y78807D01*
D02*
G37*
G36*
X244985Y65211D02*
Y63610D01*
X246586D01*
X246555Y63685D01*
X245906Y64531D01*
X245060Y65180D01*
X244985Y65211D01*
D02*
G37*
G36*
X241048Y65211D02*
X240974Y65180D01*
X240127Y64531D01*
X239478Y63685D01*
X239447Y63610D01*
X241048D01*
Y65211D01*
D02*
G37*
G36*
X246586Y59673D02*
X244985D01*
Y58072D01*
X245060Y58103D01*
X245906Y58752D01*
X246555Y59599D01*
X246586Y59673D01*
D02*
G37*
G36*
X241048D02*
X239447D01*
X239478Y59599D01*
X240127Y58752D01*
X240974Y58103D01*
X241048Y58072D01*
Y59673D01*
D02*
G37*
G36*
X149247Y65693D02*
X141144D01*
Y57591D01*
X149247D01*
Y65693D01*
D02*
G37*
G36*
X217426Y65728D02*
X216369Y65589D01*
X215383Y65180D01*
X214537Y64531D01*
X213887Y63685D01*
X213479Y62699D01*
X213340Y61642D01*
X213479Y60584D01*
X213887Y59599D01*
X214537Y58752D01*
X215383Y58103D01*
X216369Y57695D01*
X217426Y57556D01*
X218484Y57695D01*
X219469Y58103D01*
X220316Y58752D01*
X220965Y59599D01*
X221373Y60584D01*
X221512Y61642D01*
X221373Y62699D01*
X220965Y63685D01*
X220316Y64531D01*
X219469Y65180D01*
X218484Y65589D01*
X217426Y65728D01*
D02*
G37*
G36*
X119605D02*
X118547Y65589D01*
X117562Y65180D01*
X116715Y64531D01*
X116066Y63685D01*
X115658Y62699D01*
X115519Y61642D01*
X115658Y60584D01*
X116066Y59599D01*
X116715Y58752D01*
X117562Y58103D01*
X118547Y57695D01*
X119605Y57556D01*
X120662Y57695D01*
X121648Y58103D01*
X122494Y58752D01*
X123143Y59599D01*
X123552Y60584D01*
X123691Y61642D01*
X123552Y62699D01*
X123143Y63685D01*
X122494Y64531D01*
X121648Y65180D01*
X120662Y65589D01*
X119605Y65728D01*
D02*
G37*
G36*
X343342Y47716D02*
X342053Y47546D01*
X340852Y47049D01*
X339821Y46257D01*
X339030Y45226D01*
X338691Y44409D01*
X338150D01*
X337812Y45226D01*
X337021Y46257D01*
X335989Y47049D01*
X334788Y47546D01*
X333500Y47716D01*
X332211Y47546D01*
X331010Y47049D01*
X329978Y46257D01*
X329187Y45226D01*
X328849Y44409D01*
X328308D01*
X327970Y45226D01*
X327178Y46257D01*
X326147Y47049D01*
X324946Y47546D01*
X323657Y47716D01*
X322368Y47546D01*
X321167Y47049D01*
X320136Y46257D01*
X319344Y45226D01*
X318847Y44025D01*
X318677Y42736D01*
X318847Y41447D01*
X319344Y40246D01*
X320136Y39215D01*
X321167Y38424D01*
X322368Y37926D01*
X323657Y37757D01*
X324946Y37926D01*
X326147Y38424D01*
X327178Y39215D01*
X327970Y40246D01*
X328308Y41063D01*
X328849D01*
X329187Y40246D01*
X329978Y39215D01*
X331010Y38424D01*
X332211Y37926D01*
X333500Y37757D01*
X334788Y37926D01*
X335989Y38424D01*
X337021Y39215D01*
X337812Y40246D01*
X338150Y41063D01*
X338691D01*
X339030Y40246D01*
X339821Y39215D01*
X340852Y38424D01*
X342053Y37926D01*
X343342Y37757D01*
X344631Y37926D01*
X345832Y38424D01*
X346863Y39215D01*
X347654Y40246D01*
X348152Y41447D01*
X348322Y42736D01*
X348152Y44025D01*
X347654Y45226D01*
X346863Y46257D01*
X345832Y47049D01*
X344631Y47546D01*
X343342Y47716D01*
D02*
G37*
G36*
X56842D02*
X55554Y47546D01*
X54353Y47049D01*
X53321Y46257D01*
X52530Y45226D01*
X52192Y44409D01*
X51651D01*
X51313Y45226D01*
X50521Y46257D01*
X49490Y47049D01*
X48289Y47546D01*
X47000Y47716D01*
X45711Y47546D01*
X44510Y47049D01*
X43479Y46257D01*
X42687Y45226D01*
X42349Y44409D01*
X41808D01*
X41470Y45226D01*
X40679Y46257D01*
X39647Y47049D01*
X38446Y47546D01*
X37157Y47716D01*
X35869Y47546D01*
X34668Y47049D01*
X33636Y46257D01*
X32845Y45226D01*
X32348Y44025D01*
X32178Y42736D01*
X32348Y41447D01*
X32845Y40246D01*
X33636Y39215D01*
X34668Y38424D01*
X35869Y37926D01*
X37157Y37757D01*
X38446Y37926D01*
X39647Y38424D01*
X40679Y39215D01*
X41470Y40246D01*
X41808Y41063D01*
X42349D01*
X42687Y40246D01*
X43479Y39215D01*
X44510Y38424D01*
X45711Y37926D01*
X47000Y37757D01*
X48289Y37926D01*
X49490Y38424D01*
X50521Y39215D01*
X51313Y40246D01*
X51651Y41063D01*
X52192D01*
X52530Y40246D01*
X53321Y39215D01*
X54353Y38424D01*
X55554Y37926D01*
X56842Y37757D01*
X58131Y37926D01*
X59332Y38424D01*
X60364Y39215D01*
X61155Y40246D01*
X61652Y41447D01*
X61822Y42736D01*
X61652Y44025D01*
X61155Y45226D01*
X60364Y46257D01*
X59332Y47049D01*
X58131Y47546D01*
X56842Y47716D01*
D02*
G37*
G36*
X195295Y51944D02*
X194238Y51805D01*
X193252Y51397D01*
X192406Y50748D01*
X191757Y49901D01*
X191348Y48916D01*
X191209Y47858D01*
X191348Y46801D01*
X191757Y45815D01*
X192406Y44969D01*
X193252Y44320D01*
X194238Y43911D01*
X195295Y43772D01*
X196353Y43911D01*
X197338Y44320D01*
X198185Y44969D01*
X198834Y45815D01*
X199242Y46801D01*
X199381Y47858D01*
X199242Y48916D01*
X198834Y49901D01*
X198185Y50748D01*
X197338Y51397D01*
X196353Y51805D01*
X195295Y51944D01*
D02*
G37*
G36*
X197264Y33711D02*
Y32110D01*
X198865D01*
X198834Y32185D01*
X198185Y33031D01*
X197338Y33680D01*
X197264Y33711D01*
D02*
G37*
G36*
X193327D02*
X193252Y33680D01*
X192406Y33031D01*
X191757Y32185D01*
X191726Y32110D01*
X193327D01*
Y33711D01*
D02*
G37*
G36*
X198865Y28173D02*
X197264D01*
Y26572D01*
X197338Y26603D01*
X198185Y27252D01*
X198834Y28099D01*
X198865Y28173D01*
D02*
G37*
G36*
X193327D02*
X191726D01*
X191757Y28099D01*
X192406Y27252D01*
X193252Y26603D01*
X193327Y26572D01*
Y28173D01*
D02*
G37*
G36*
X169705Y34228D02*
X168647Y34089D01*
X167662Y33680D01*
X166815Y33031D01*
X166166Y32185D01*
X165758Y31199D01*
X165619Y30142D01*
X165758Y29084D01*
X166166Y28099D01*
X166815Y27252D01*
X167662Y26603D01*
X168647Y26195D01*
X169705Y26056D01*
X170762Y26195D01*
X171748Y26603D01*
X172594Y27252D01*
X173243Y28099D01*
X173652Y29084D01*
X173791Y30142D01*
X173652Y31199D01*
X173243Y32185D01*
X172594Y33031D01*
X171748Y33680D01*
X170762Y34089D01*
X169705Y34228D01*
D02*
G37*
G36*
X14500Y25835D02*
X13069Y25694D01*
X11693Y25276D01*
X10425Y24598D01*
X9314Y23686D01*
X8402Y22575D01*
X7724Y21307D01*
X7306Y19931D01*
X7165Y18500D01*
X7306Y17069D01*
X7724Y15693D01*
X8402Y14425D01*
X9314Y13314D01*
X10425Y12402D01*
X11693Y11724D01*
X13069Y11306D01*
X14500Y11165D01*
X15931Y11306D01*
X17307Y11724D01*
X18575Y12402D01*
X19686Y13314D01*
X20598Y14425D01*
X21276Y15693D01*
X21694Y17069D01*
X21835Y18500D01*
X21694Y19931D01*
X21276Y21307D01*
X20598Y22575D01*
X19686Y23686D01*
X18575Y24598D01*
X17307Y25276D01*
X15931Y25694D01*
X14500Y25835D01*
D02*
G37*
G36*
X364500Y23834D02*
X363069Y23694D01*
X361693Y23276D01*
X360425Y22598D01*
X359314Y21686D01*
X358402Y20575D01*
X357724Y19307D01*
X357306Y17931D01*
X357166Y16500D01*
X357306Y15069D01*
X357724Y13693D01*
X358402Y12425D01*
X359314Y11314D01*
X360425Y10402D01*
X361693Y9724D01*
X363069Y9306D01*
X364500Y9166D01*
X365931Y9306D01*
X367307Y9724D01*
X368575Y10402D01*
X369686Y11314D01*
X370598Y12425D01*
X371276Y13693D01*
X371694Y15069D01*
X371834Y16500D01*
X371694Y17931D01*
X371276Y19307D01*
X370598Y20575D01*
X369686Y21686D01*
X368575Y22598D01*
X367307Y23276D01*
X365931Y23694D01*
X364500Y23834D01*
D02*
G37*
%LPD*%
G36*
X274496Y351520D02*
Y337083D01*
X274604Y336540D01*
X274912Y336079D01*
X282654Y328337D01*
Y323509D01*
X282192Y323318D01*
X266031Y339479D01*
Y351520D01*
X266531Y351619D01*
X266810Y350943D01*
X267444Y350118D01*
X268270Y349484D01*
X269231Y349086D01*
X270263Y348950D01*
X271295Y349086D01*
X272257Y349484D01*
X273082Y350118D01*
X273716Y350943D01*
X273996Y351619D01*
X274496Y351520D01*
D02*
G37*
G36*
X258270Y349484D02*
X259231Y349086D01*
X260263Y348950D01*
X261295Y349086D01*
X262257Y349484D01*
X262689Y349816D01*
X263189Y349569D01*
Y338890D01*
X263297Y338347D01*
X263605Y337886D01*
X280866Y320624D01*
Y313297D01*
X280404Y313105D01*
X257042Y336467D01*
Y349890D01*
X257542Y350042D01*
X258270Y349484D01*
D02*
G37*
G36*
X59440Y309995D02*
X59901Y309687D01*
X60444Y309579D01*
X74732D01*
X75264Y309224D01*
X76000Y309077D01*
X76736Y309224D01*
X77360Y309640D01*
X77776Y310264D01*
X77923Y311000D01*
X77776Y311736D01*
X77360Y312360D01*
X76736Y312776D01*
X76000Y312923D01*
X75264Y312776D01*
X74732Y312421D01*
X61033D01*
X59837Y313617D01*
X60028Y314079D01*
X79232D01*
X79764Y313724D01*
X80500Y313577D01*
X81236Y313724D01*
X81860Y314140D01*
X82063Y314444D01*
X82698Y314516D01*
X90579Y306635D01*
Y277921D01*
X82268D01*
X81736Y278276D01*
X81000Y278423D01*
X80264Y278276D01*
X79640Y277860D01*
X79224Y277236D01*
X79077Y276500D01*
X79224Y275764D01*
X79640Y275140D01*
X80264Y274724D01*
X81000Y274577D01*
X81736Y274724D01*
X82268Y275079D01*
X90579D01*
Y267814D01*
X90079Y267547D01*
X89736Y267776D01*
X89000Y267923D01*
X88264Y267776D01*
X87640Y267360D01*
X87224Y266736D01*
X87077Y266000D01*
X87224Y265264D01*
X87579Y264732D01*
Y263921D01*
X67089D01*
X52984Y278026D01*
Y315798D01*
X53446Y315989D01*
X59440Y309995D01*
D02*
G37*
G36*
X75637Y339965D02*
X75617Y339736D01*
X75466Y339438D01*
X74984Y339375D01*
X74022Y338976D01*
X73197Y338343D01*
X72563Y337517D01*
X72165Y336556D01*
X72029Y335524D01*
X72165Y334492D01*
X72563Y333530D01*
X73197Y332704D01*
X74022Y332071D01*
X74984Y331673D01*
X76016Y331537D01*
X77048Y331673D01*
X77276Y331767D01*
X123585Y285458D01*
X123716Y284804D01*
Y192590D01*
X123483Y192494D01*
X122647Y191853D01*
X122006Y191017D01*
X121603Y190044D01*
X121466Y189000D01*
X121603Y187956D01*
X122006Y186983D01*
X122647Y186147D01*
X123483Y185506D01*
X124456Y185103D01*
X125500Y184966D01*
X126544Y185103D01*
X126777Y185199D01*
X174216Y137761D01*
Y108724D01*
X173425D01*
Y103575D01*
X176548D01*
X176739Y103113D01*
X176051Y102425D01*
X173425D01*
Y97452D01*
X125057D01*
X110421Y112089D01*
Y166000D01*
X110313Y166544D01*
X110005Y167005D01*
X50921Y226089D01*
Y254411D01*
X53051Y256541D01*
X91539D01*
X92083Y256649D01*
X92544Y256957D01*
X93005Y257418D01*
X93313Y257879D01*
X93421Y258423D01*
Y276000D01*
Y305517D01*
X93921Y305768D01*
X94079Y305650D01*
Y251839D01*
X93764Y251776D01*
X93140Y251360D01*
X92724Y250736D01*
X92577Y250000D01*
X92724Y249264D01*
X93140Y248640D01*
X93764Y248224D01*
X94500Y248077D01*
X95236Y248224D01*
X95860Y248640D01*
X96276Y249264D01*
X96285Y249310D01*
X96505Y249456D01*
X96813Y249918D01*
X96921Y250461D01*
Y305016D01*
X97421Y305268D01*
X97579Y305150D01*
Y247089D01*
X94911Y244421D01*
X67089D01*
X58401Y253108D01*
X58276Y253736D01*
X57860Y254360D01*
X57236Y254776D01*
X56500Y254923D01*
X55764Y254776D01*
X55140Y254360D01*
X54724Y253736D01*
X54577Y253000D01*
X54724Y252264D01*
X55140Y251640D01*
X55764Y251224D01*
X56392Y251099D01*
X65495Y241995D01*
X65956Y241687D01*
X66500Y241579D01*
X95500D01*
X96044Y241687D01*
X96505Y241995D01*
X100005Y245495D01*
X100313Y245956D01*
X100421Y246500D01*
Y306000D01*
X100313Y306544D01*
X100005Y307005D01*
X84505Y322505D01*
X84044Y322813D01*
X83500Y322921D01*
X61921D01*
Y330824D01*
X64047D01*
Y335524D01*
X66016D01*
Y337492D01*
X70716D01*
Y340004D01*
X75595D01*
X75637Y339965D01*
D02*
G37*
G36*
X121627Y91808D02*
X121435Y91346D01*
X120663D01*
X84764Y127246D01*
X84776Y127264D01*
X84890Y127837D01*
X85384Y128051D01*
X121627Y91808D01*
D02*
G37*
%LPC*%
G36*
X70716Y333555D02*
X67984D01*
Y330824D01*
X70716D01*
Y333555D01*
D02*
G37*
G36*
X117469Y192514D02*
Y190969D01*
X119014D01*
X118994Y191017D01*
X118353Y191853D01*
X117517Y192494D01*
X117469Y192514D01*
D02*
G37*
G36*
X113531D02*
X113483Y192494D01*
X112647Y191853D01*
X112006Y191017D01*
X111986Y190969D01*
X113531D01*
Y192514D01*
D02*
G37*
G36*
X119014Y187031D02*
X117469D01*
Y185486D01*
X117517Y185506D01*
X118353Y186147D01*
X118994Y186983D01*
X119014Y187031D01*
D02*
G37*
G36*
X113531D02*
X111986D01*
X112006Y186983D01*
X112647Y186147D01*
X113483Y185506D01*
X113531Y185486D01*
Y187031D01*
D02*
G37*
G36*
X121563Y145928D02*
Y144327D01*
X123164D01*
X123133Y144401D01*
X122484Y145248D01*
X121638Y145897D01*
X121563Y145928D01*
D02*
G37*
G36*
X117626D02*
X117551Y145897D01*
X116705Y145248D01*
X116056Y144401D01*
X116025Y144327D01*
X117626D01*
Y145928D01*
D02*
G37*
G36*
X123164Y140390D02*
X121563D01*
Y138789D01*
X121638Y138820D01*
X122484Y139469D01*
X123133Y140315D01*
X123164Y140390D01*
D02*
G37*
G36*
X117626D02*
X116025D01*
X116056Y140315D01*
X116705Y139469D01*
X117551Y138820D01*
X117626Y138789D01*
Y140390D01*
D02*
G37*
G36*
X145185Y146444D02*
X144128Y146305D01*
X143142Y145897D01*
X142296Y145248D01*
X141646Y144401D01*
X141238Y143416D01*
X141099Y142358D01*
X141238Y141301D01*
X141646Y140315D01*
X142296Y139469D01*
X143142Y138820D01*
X144128Y138411D01*
X145185Y138272D01*
X146243Y138411D01*
X147228Y138820D01*
X148074Y139469D01*
X148724Y140315D01*
X149132Y141301D01*
X149271Y142358D01*
X149132Y143416D01*
X148724Y144401D01*
X148074Y145248D01*
X147228Y145897D01*
X146243Y146305D01*
X145185Y146444D01*
D02*
G37*
G36*
X149236Y128693D02*
X141134D01*
Y120591D01*
X149236D01*
Y128693D01*
D02*
G37*
G36*
X119595Y128728D02*
X118537Y128589D01*
X117551Y128180D01*
X116705Y127531D01*
X116056Y126685D01*
X115648Y125699D01*
X115508Y124642D01*
X115648Y123584D01*
X116056Y122599D01*
X116705Y121752D01*
X117551Y121103D01*
X118537Y120695D01*
X119595Y120556D01*
X120652Y120695D01*
X121638Y121103D01*
X122484Y121752D01*
X123133Y122599D01*
X123541Y123584D01*
X123681Y124642D01*
X123541Y125699D01*
X123133Y126685D01*
X122484Y127531D01*
X121638Y128180D01*
X120652Y128589D01*
X119595Y128728D01*
D02*
G37*
%LPD*%
D13*
X268348Y289500D02*
X271500Y286348D01*
Y123500D02*
Y286348D01*
X92000Y276000D02*
Y307224D01*
X81444Y317779D02*
X92000Y307224D01*
Y258423D02*
Y276000D01*
X81000Y276500D02*
X91500D01*
X91539Y257962D02*
X92000Y258423D01*
X52462Y257962D02*
X91539D01*
X49500Y255000D02*
X49500D01*
X52462Y257962D01*
X49500Y225500D02*
Y255000D01*
X109000Y111500D02*
Y166000D01*
X49500Y225500D02*
X109000Y166000D01*
X63152Y136000D02*
X81972D01*
X109000Y111500D02*
X124469Y96031D01*
X81945Y133500D02*
X123732Y91713D01*
X247713D01*
X39500Y133500D02*
X81945D01*
X124472Y93500D02*
X246972D01*
X81972Y136000D02*
X124472Y93500D01*
X124469Y96031D02*
X244032D01*
X262000Y289500D02*
X268348D01*
X255621Y335879D02*
Y353726D01*
X280500Y205000D02*
Y311000D01*
X255621Y335879D02*
X280500Y311000D01*
X264610Y338890D02*
Y354737D01*
X282287Y204260D02*
Y321213D01*
X275917Y337083D02*
Y353430D01*
X284075Y203519D02*
Y328925D01*
X250544Y358803D02*
Y362656D01*
Y358803D02*
X255621Y353726D01*
X250263Y362937D02*
X250544Y362656D01*
X264610Y338890D02*
X282287Y321213D01*
X275917Y337083D02*
X284075Y328925D01*
X274925Y199425D02*
X280500Y205000D01*
X246972Y93500D02*
X274925Y121453D01*
X247713Y91713D02*
X276713Y120713D01*
X274925Y121453D02*
Y199425D01*
X276713Y120713D02*
Y198685D01*
X278500Y118000D02*
Y197944D01*
X284075Y203519D01*
X250425Y89925D02*
X278500Y118000D01*
X276713Y198685D02*
X282287Y204260D01*
X244032Y96031D02*
X271500Y123500D01*
X120075Y89925D02*
X250425D01*
X82826Y127174D02*
X120075Y89925D01*
X82826Y127174D02*
Y127826D01*
X83000Y128000D01*
X91500Y276500D02*
X92000Y276000D01*
X60961Y341425D02*
X189925D01*
X58713Y320536D02*
X59682Y319567D01*
X51563Y277437D02*
X66500Y262500D01*
X56925Y344102D02*
X57823Y345000D01*
X58713Y320536D02*
Y342314D01*
X51563Y277437D02*
Y348146D01*
X60500Y321961D02*
X60961Y321500D01*
X83500D01*
X60500Y340964D02*
X60961Y341425D01*
X55138Y318834D02*
X58472Y315500D01*
X53350Y346945D02*
X56406Y350000D01*
X58713Y342314D02*
X59611Y343213D01*
X60500Y321961D02*
Y340964D01*
X56925Y319575D02*
Y344102D01*
X51563Y348146D02*
X55417Y352000D01*
X53350Y318094D02*
X60444Y311000D01*
X53350Y318094D02*
Y346945D01*
X56925Y319575D02*
X58720Y317779D01*
X55138Y318834D02*
Y346204D01*
X56859Y347925D01*
X59682Y319567D02*
X82433D01*
X60444Y311000D02*
X76000D01*
X59611Y343213D02*
X175539D01*
X58720Y317779D02*
X81444D01*
X58472Y315500D02*
X80500D01*
X83500Y321500D02*
X99000Y306000D01*
X57823Y345000D02*
X62500D01*
X56406Y350000D02*
X62445D01*
X56859Y347925D02*
X62897D01*
X175539Y343213D02*
X184763Y352437D01*
X189925Y341425D02*
X194763Y346263D01*
X62897Y347925D02*
X84760Y369787D01*
X62500Y345000D02*
X85500Y368000D01*
X82433Y319567D02*
X95500Y306500D01*
Y250461D02*
Y306500D01*
X99000Y246500D02*
Y306000D01*
X55417Y352000D02*
X61917D01*
X62445Y350000D02*
X84019Y371575D01*
X175625D01*
X61917Y352000D02*
X83279Y373362D01*
X183838D01*
X84760Y369787D02*
X167413D01*
X183838Y373362D02*
X194763Y362437D01*
X85500Y368000D02*
X161000D01*
X162204Y366796D01*
X175625Y371575D02*
X184763Y362437D01*
X162204Y364996D02*
X164763Y362437D01*
X162204Y364996D02*
Y366796D01*
X167413Y369787D02*
X174763Y362437D01*
X88539Y262500D02*
X89000Y262961D01*
Y266000D01*
X66500Y262500D02*
X88539D01*
X66500Y243000D02*
X95500D01*
X99000Y246500D01*
X56500Y253000D02*
X66500Y243000D01*
X194763Y346263D02*
Y352437D01*
X94500Y250000D02*
X94766D01*
X95228Y250461D01*
X95500D01*
X56843Y142309D02*
X63152Y136000D01*
X56843Y142309D02*
Y179543D01*
X37158Y135842D02*
Y179543D01*
Y135842D02*
X39500Y133500D01*
X270544Y358803D02*
X275917Y353430D01*
X270263Y362937D02*
X270544Y362656D01*
Y358803D02*
Y362656D01*
X260263Y362937D02*
X260544Y362656D01*
Y358803D02*
Y362656D01*
Y358803D02*
X264610Y354737D01*
D16*
X176000Y106150D02*
D03*
Y99850D02*
D03*
D17*
X185000Y99394D02*
D03*
Y107268D02*
D03*
D31*
X195295Y30142D02*
D03*
X169705D02*
D03*
X195295Y47858D02*
D03*
X243017Y79358D02*
D03*
X217426Y61642D02*
D03*
X243017D02*
D03*
X119605D02*
D03*
X145195Y79358D02*
D03*
X119605D02*
D03*
X243017Y142358D02*
D03*
X217426Y124642D02*
D03*
X243017D02*
D03*
X119595D02*
D03*
X145185Y142358D02*
D03*
X119595D02*
D03*
D32*
X169705Y47858D02*
D03*
X217426Y79358D02*
D03*
X145195Y61642D02*
D03*
X217426Y142358D02*
D03*
X145185Y124642D02*
D03*
D36*
X185000Y99394D02*
X191945D01*
X192913Y98425D01*
X228500Y334500D02*
X250174Y312826D01*
Y308400D02*
Y312826D01*
X255500Y189000D02*
Y282000D01*
X206016Y335524D02*
X206175Y335364D01*
Y331325D02*
Y335364D01*
Y331325D02*
X255500Y282000D01*
X216016Y329484D02*
Y335524D01*
X265500Y189000D02*
Y280000D01*
X216016Y329484D02*
X265500Y280000D01*
X76044Y335524D02*
X125448Y286119D01*
X76016Y335524D02*
X76044D01*
X125448Y285552D02*
Y286119D01*
Y285552D02*
X125500Y285500D01*
Y189000D02*
Y285500D01*
X228500Y334500D02*
Y354500D01*
X234734Y360734D01*
X238060D02*
X240263Y362937D01*
X234734Y360734D02*
X238060D01*
X212826Y370500D02*
X284500D01*
X301500Y353500D01*
Y339000D02*
Y353500D01*
X357000Y171500D02*
Y283500D01*
X301500Y339000D02*
X357000Y283500D01*
X345000Y159500D02*
X357000Y171500D01*
X345000Y127425D02*
Y159500D01*
X351500Y169536D02*
Y281700D01*
X342000Y160036D02*
X351500Y169536D01*
X342000Y123299D02*
Y160036D01*
X169879Y39500D02*
X303500D01*
X169000Y47154D02*
X169705Y47858D01*
X169000Y40379D02*
Y47154D01*
Y40379D02*
X169879Y39500D01*
X303500D02*
X354000Y90000D01*
X345000Y127425D02*
X354000Y118425D01*
Y90000D02*
Y118425D01*
X204763Y362437D02*
X212826Y370500D01*
X176000Y106150D02*
Y138500D01*
X125500Y189000D02*
X176000Y138500D01*
X165500Y286000D02*
Y286039D01*
Y189000D02*
Y286000D01*
X106016Y335524D02*
X155500Y286039D01*
Y189000D02*
Y286039D01*
X183782Y106049D02*
X185000Y107268D01*
X176000Y99850D02*
X182199Y106049D01*
X183782D01*
X286000Y181500D02*
Y196500D01*
Y181500D02*
X287957Y179543D01*
X286000Y196500D02*
X287500Y198000D01*
X342000Y123299D02*
X342843Y122456D01*
X280263Y352937D02*
X351500Y281700D01*
X287500Y198000D02*
X293000D01*
X287957Y179543D02*
X323158D01*
X340500Y194500D02*
X343379Y191621D01*
X291500Y194500D02*
X340500D01*
X342843Y179543D02*
X343379Y180079D01*
Y191621D01*
X195500Y189000D02*
Y286039D01*
X146016Y335524D02*
X195500Y286039D01*
X116016Y335524D02*
X165500Y286039D01*
X186016Y335524D02*
X236500Y285039D01*
X236343Y189843D02*
Y191924D01*
X235500Y189000D02*
X236343Y189843D01*
Y191924D02*
X236500Y192081D01*
Y285039D01*
X135500Y189000D02*
Y286039D01*
X86016Y335524D02*
X135500Y286039D01*
X145500Y189000D02*
Y286039D01*
X96016Y335524D02*
X145500Y286039D01*
X175500Y189000D02*
Y286039D01*
X126016Y335524D02*
X175500Y286039D01*
X185500Y189000D02*
Y286039D01*
X136016Y335524D02*
X185500Y286039D01*
X205500Y189000D02*
Y286039D01*
X156016Y335524D02*
X205500Y286039D01*
X215500Y189000D02*
Y286039D01*
X166016Y335524D02*
X215500Y286039D01*
X225500Y189000D02*
Y286039D01*
X176016Y335524D02*
X225500Y286039D01*
X245500Y189000D02*
Y286039D01*
X196016Y335524D02*
X245500Y286039D01*
D37*
X344500Y107000D02*
D03*
X89263Y361937D02*
D03*
X265500Y189000D02*
D03*
X56500Y107000D02*
D03*
X164763Y362437D02*
D03*
X240263Y362937D02*
D03*
D38*
X334500Y107000D02*
D03*
X324500D02*
D03*
X129263Y351937D02*
D03*
Y361937D02*
D03*
X119263Y351937D02*
D03*
Y361937D02*
D03*
X109263Y351937D02*
D03*
Y361937D02*
D03*
X99263Y351937D02*
D03*
Y361937D02*
D03*
X89263Y351937D02*
D03*
X76016Y335524D02*
D03*
X86016D02*
D03*
X96016D02*
D03*
X106016D02*
D03*
X116016D02*
D03*
X126016D02*
D03*
X136016D02*
D03*
X146016D02*
D03*
X156016D02*
D03*
X166016D02*
D03*
X176016D02*
D03*
X186016D02*
D03*
X196016D02*
D03*
X206016D02*
D03*
X216016D02*
D03*
X255500Y189000D02*
D03*
X245500D02*
D03*
X235500D02*
D03*
X225500D02*
D03*
X36500Y107000D02*
D03*
X46500D02*
D03*
X164763Y352437D02*
D03*
X174763Y362437D02*
D03*
Y352437D02*
D03*
X184763Y362437D02*
D03*
Y352437D02*
D03*
X194763Y362437D02*
D03*
Y352437D02*
D03*
X204763Y362437D02*
D03*
Y352437D02*
D03*
X240263Y352937D02*
D03*
X250263Y362937D02*
D03*
Y352937D02*
D03*
X260263Y362937D02*
D03*
Y352937D02*
D03*
X270263Y362937D02*
D03*
Y352937D02*
D03*
X280263Y362937D02*
D03*
Y352937D02*
D03*
D39*
X11443Y302508D02*
D03*
X11433Y271012D02*
D03*
D40*
X64000Y360500D02*
D03*
X54000Y370500D02*
D03*
X44000Y360500D02*
D03*
X215500Y189000D02*
D03*
X205500D02*
D03*
X195500D02*
D03*
X185500D02*
D03*
X175500D02*
D03*
X165500D02*
D03*
X155500D02*
D03*
X145500D02*
D03*
X135500D02*
D03*
X125500D02*
D03*
X115500D02*
D03*
D41*
X323657Y42736D02*
D03*
X333500D02*
D03*
X343342D02*
D03*
X56842D02*
D03*
X47000D02*
D03*
X37157D02*
D03*
D42*
X314799Y72264D02*
D03*
X352201D02*
D03*
X65701D02*
D03*
X28300D02*
D03*
D43*
X14500Y18500D02*
D03*
X364500Y364000D02*
D03*
X16000Y364500D02*
D03*
X364500Y16500D02*
D03*
D44*
X342843Y179543D02*
D03*
X333000D02*
D03*
X323158D02*
D03*
X37158D02*
D03*
X47001D02*
D03*
X56843D02*
D03*
D45*
X342843Y122456D02*
D03*
X56843D02*
D03*
D46*
X323158D02*
D03*
X37158D02*
D03*
D47*
X354654Y150015D02*
D03*
X311347D02*
D03*
X25347D02*
D03*
X68654D02*
D03*
D48*
X66016Y335524D02*
D03*
D49*
X44362D02*
D03*
Y213476D02*
D03*
X339638Y335524D02*
D03*
Y213476D02*
D03*
D50*
X72300Y285200D02*
D03*
X78500Y266100D02*
D03*
X170900Y231900D02*
D03*
X180800Y222900D02*
D03*
X172100Y225800D02*
D03*
X202800Y227600D02*
D03*
X189100Y231300D02*
D03*
X220700D02*
D03*
X372441Y337008D02*
D03*
Y313386D02*
D03*
Y289764D02*
D03*
Y266142D02*
D03*
Y242520D02*
D03*
Y218898D02*
D03*
Y195275D02*
D03*
Y171653D02*
D03*
Y148031D02*
D03*
Y124409D02*
D03*
Y100787D02*
D03*
Y77165D02*
D03*
Y53543D02*
D03*
Y29921D02*
D03*
Y6299D02*
D03*
X366535Y348819D02*
D03*
X360630Y337008D02*
D03*
X366535Y325197D02*
D03*
X360630Y313386D02*
D03*
X366535Y301575D02*
D03*
X360630Y289764D02*
D03*
X366535Y277953D02*
D03*
X360630Y266142D02*
D03*
X366535Y254331D02*
D03*
X360630Y242520D02*
D03*
X366535Y230709D02*
D03*
X360630Y218898D02*
D03*
X366535Y207086D02*
D03*
X360630Y195275D02*
D03*
X366535Y183465D02*
D03*
X360630Y171653D02*
D03*
X366535Y159842D02*
D03*
Y136220D02*
D03*
X360630Y124409D02*
D03*
Y6299D02*
D03*
X354724Y372441D02*
D03*
X348819Y360630D02*
D03*
X354724Y348819D02*
D03*
X348819Y337008D02*
D03*
X354724Y325197D02*
D03*
X348819Y313386D02*
D03*
X354724Y301575D02*
D03*
Y159842D02*
D03*
Y136220D02*
D03*
X348819Y100787D02*
D03*
Y53543D02*
D03*
X354724Y41732D02*
D03*
Y18110D02*
D03*
X348819Y6299D02*
D03*
X342913Y372441D02*
D03*
X337008Y360630D02*
D03*
X342913Y325197D02*
D03*
X337008Y313386D02*
D03*
Y289764D02*
D03*
X342913Y277953D02*
D03*
X337008Y266142D02*
D03*
X342913Y254331D02*
D03*
X337008Y242520D02*
D03*
X342913Y230709D02*
D03*
X337008Y171653D02*
D03*
Y148031D02*
D03*
X342913Y18110D02*
D03*
X337008Y6299D02*
D03*
X331102Y372441D02*
D03*
X325197Y360630D02*
D03*
X331102Y348819D02*
D03*
X325197Y337008D02*
D03*
X331102Y325197D02*
D03*
X325197Y289764D02*
D03*
X331102Y277953D02*
D03*
X325197Y266142D02*
D03*
X331102Y254331D02*
D03*
X325197Y242520D02*
D03*
X331102Y230709D02*
D03*
X325197Y218898D02*
D03*
X331102Y207086D02*
D03*
X325197Y171653D02*
D03*
X331102Y159842D02*
D03*
Y136220D02*
D03*
Y112598D02*
D03*
Y18110D02*
D03*
X325197Y6299D02*
D03*
X319291Y372441D02*
D03*
X313386Y360630D02*
D03*
Y337008D02*
D03*
Y313386D02*
D03*
X319291Y301575D02*
D03*
X313386Y289764D02*
D03*
X319291Y277953D02*
D03*
X313386Y266142D02*
D03*
X319291Y254331D02*
D03*
X313386Y242520D02*
D03*
X319291Y230709D02*
D03*
X313386Y218898D02*
D03*
X319291Y207086D02*
D03*
X313386Y171653D02*
D03*
X319291Y136220D02*
D03*
X313386Y124409D02*
D03*
Y100787D02*
D03*
X319291Y88976D02*
D03*
Y18110D02*
D03*
X313386Y6299D02*
D03*
X307480Y372441D02*
D03*
Y159842D02*
D03*
Y88976D02*
D03*
Y65354D02*
D03*
Y18110D02*
D03*
X301575Y6299D02*
D03*
X295669Y372441D02*
D03*
Y348819D02*
D03*
X289764Y337008D02*
D03*
X295669Y325197D02*
D03*
X289764Y313386D02*
D03*
X295669Y301575D02*
D03*
X289764Y289764D02*
D03*
X295669Y277953D02*
D03*
X289764Y266142D02*
D03*
X295669Y254331D02*
D03*
X289764Y242520D02*
D03*
X295669Y230709D02*
D03*
X289764Y218898D02*
D03*
X295669Y207086D02*
D03*
Y183465D02*
D03*
X289764Y171653D02*
D03*
X295669Y159842D02*
D03*
X289764Y148031D02*
D03*
Y124409D02*
D03*
X295669Y112598D02*
D03*
X289764Y100787D02*
D03*
X295669Y88976D02*
D03*
X289764Y77165D02*
D03*
X295669Y65354D02*
D03*
X289764Y53543D02*
D03*
Y29921D02*
D03*
X295669Y18110D02*
D03*
X289764Y6299D02*
D03*
X283858Y159842D02*
D03*
Y112598D02*
D03*
Y88976D02*
D03*
X277953Y77165D02*
D03*
X283858Y65354D02*
D03*
X277953Y53543D02*
D03*
Y29921D02*
D03*
X283858Y18110D02*
D03*
X277953Y6299D02*
D03*
X266142Y171653D02*
D03*
Y148031D02*
D03*
Y124409D02*
D03*
Y100787D02*
D03*
X272047Y88976D02*
D03*
Y65354D02*
D03*
X266142Y29921D02*
D03*
X272047Y18110D02*
D03*
X266142Y6299D02*
D03*
X260236Y254331D02*
D03*
Y230709D02*
D03*
Y183465D02*
D03*
X254331Y171653D02*
D03*
X260236Y159842D02*
D03*
X254331Y148031D02*
D03*
X260236Y88976D02*
D03*
Y65354D02*
D03*
X254331Y53543D02*
D03*
Y29921D02*
D03*
X260236Y18110D02*
D03*
X254331Y6299D02*
D03*
X248425Y183465D02*
D03*
X242520Y171653D02*
D03*
X248425Y159842D02*
D03*
Y136220D02*
D03*
Y112598D02*
D03*
X242520Y100787D02*
D03*
Y53543D02*
D03*
Y29921D02*
D03*
X248425Y18110D02*
D03*
X242520Y6299D02*
D03*
X230709Y266142D02*
D03*
Y242520D02*
D03*
Y195275D02*
D03*
Y171653D02*
D03*
X236614Y159842D02*
D03*
X230709Y148031D02*
D03*
X236614Y136220D02*
D03*
X230709Y124409D02*
D03*
X236614Y112598D02*
D03*
X230709Y100787D02*
D03*
Y77165D02*
D03*
X236614Y65354D02*
D03*
X230709Y53543D02*
D03*
Y29921D02*
D03*
X236614Y18110D02*
D03*
X230709Y6299D02*
D03*
X218898Y360630D02*
D03*
Y100787D02*
D03*
X224803Y65354D02*
D03*
X218898Y53543D02*
D03*
Y29921D02*
D03*
X224803Y18110D02*
D03*
X218898Y6299D02*
D03*
X212992Y183465D02*
D03*
X207086Y148031D02*
D03*
Y124409D02*
D03*
Y100787D02*
D03*
Y77165D02*
D03*
Y53543D02*
D03*
Y29921D02*
D03*
X212992Y18110D02*
D03*
X207086Y6299D02*
D03*
X201181Y277953D02*
D03*
Y207086D02*
D03*
Y183465D02*
D03*
Y159842D02*
D03*
X195275Y148031D02*
D03*
X201181Y136220D02*
D03*
X195275Y124409D02*
D03*
X201181Y112598D02*
D03*
X195275Y100787D02*
D03*
Y77165D02*
D03*
X201181Y18110D02*
D03*
X195275Y6299D02*
D03*
X189370Y207086D02*
D03*
Y183465D02*
D03*
Y159842D02*
D03*
X183465Y148031D02*
D03*
X189370Y136220D02*
D03*
X183465Y124409D02*
D03*
X189370Y112598D02*
D03*
X183465Y77165D02*
D03*
Y29921D02*
D03*
X189370Y18110D02*
D03*
X183465Y6299D02*
D03*
X171653Y195275D02*
D03*
X177559Y183465D02*
D03*
Y159842D02*
D03*
X171653Y148031D02*
D03*
Y124409D02*
D03*
X177559Y18110D02*
D03*
X171653Y6299D02*
D03*
X159842Y266142D02*
D03*
Y242520D02*
D03*
Y218898D02*
D03*
Y195275D02*
D03*
X165748Y159842D02*
D03*
X159842Y148031D02*
D03*
Y124409D02*
D03*
Y100787D02*
D03*
Y77165D02*
D03*
Y29921D02*
D03*
X165748Y18110D02*
D03*
X159842Y6299D02*
D03*
X148031Y148031D02*
D03*
X153937Y136220D02*
D03*
Y112598D02*
D03*
X148031Y100787D02*
D03*
X153937Y41732D02*
D03*
X148031Y29921D02*
D03*
X153937Y18110D02*
D03*
X148031Y6299D02*
D03*
X142126Y183465D02*
D03*
X136220Y171653D02*
D03*
X142126Y159842D02*
D03*
X136220Y148031D02*
D03*
X142126Y136220D02*
D03*
Y112598D02*
D03*
X136220Y100787D02*
D03*
Y77165D02*
D03*
X142126Y41732D02*
D03*
X136220Y29921D02*
D03*
X142126Y18110D02*
D03*
X136220Y6299D02*
D03*
X130315Y277953D02*
D03*
Y254331D02*
D03*
Y230709D02*
D03*
Y207086D02*
D03*
X124409Y171653D02*
D03*
X130315Y159842D02*
D03*
X124409Y148031D02*
D03*
X130315Y136220D02*
D03*
Y112598D02*
D03*
X124409Y100787D02*
D03*
X130315Y65354D02*
D03*
Y41732D02*
D03*
X124409Y29921D02*
D03*
X130315Y18110D02*
D03*
X124409Y6299D02*
D03*
X112598Y195275D02*
D03*
X118504Y183465D02*
D03*
X112598Y171653D02*
D03*
X118504Y159842D02*
D03*
X112598Y148031D02*
D03*
X118504Y112598D02*
D03*
Y41732D02*
D03*
X112598Y29921D02*
D03*
X118504Y18110D02*
D03*
X112598Y6299D02*
D03*
X106693Y277953D02*
D03*
Y254331D02*
D03*
Y230709D02*
D03*
X100787Y218898D02*
D03*
Y124409D02*
D03*
Y100787D02*
D03*
X106693Y88976D02*
D03*
Y41732D02*
D03*
X100787Y29921D02*
D03*
X106693Y18110D02*
D03*
X100787Y6299D02*
D03*
X94882Y230709D02*
D03*
X88976Y218898D02*
D03*
X94882Y207086D02*
D03*
X88976Y195275D02*
D03*
Y171653D02*
D03*
X94882Y159842D02*
D03*
X88976Y148031D02*
D03*
Y100787D02*
D03*
Y77165D02*
D03*
Y53543D02*
D03*
X94882Y41732D02*
D03*
X88976Y29921D02*
D03*
X94882Y18110D02*
D03*
X88976Y6299D02*
D03*
X83071Y348819D02*
D03*
Y230709D02*
D03*
X77165Y218898D02*
D03*
X83071Y207086D02*
D03*
Y183465D02*
D03*
X77165Y171653D02*
D03*
X83071Y159842D02*
D03*
X77165Y148031D02*
D03*
X83071Y112598D02*
D03*
Y88976D02*
D03*
Y65354D02*
D03*
Y41732D02*
D03*
X77165Y29921D02*
D03*
X83071Y18110D02*
D03*
X77165Y6299D02*
D03*
X71260Y301575D02*
D03*
Y230709D02*
D03*
X65354Y218898D02*
D03*
Y195275D02*
D03*
X71260Y183465D02*
D03*
X65354Y171653D02*
D03*
X71260Y159842D02*
D03*
X65354Y100787D02*
D03*
Y53543D02*
D03*
X71260Y18110D02*
D03*
X65354Y6299D02*
D03*
X53543Y360630D02*
D03*
X59449Y301575D02*
D03*
Y277953D02*
D03*
Y230709D02*
D03*
Y207086D02*
D03*
X53543Y195275D02*
D03*
Y171653D02*
D03*
Y148031D02*
D03*
X59449Y18110D02*
D03*
X53543Y6299D02*
D03*
X47638Y372441D02*
D03*
Y348819D02*
D03*
X41732Y313386D02*
D03*
X47638Y301575D02*
D03*
Y277953D02*
D03*
X41732Y195275D02*
D03*
Y171653D02*
D03*
X47638Y159842D02*
D03*
X41732Y100787D02*
D03*
Y77165D02*
D03*
Y53543D02*
D03*
X47638Y18110D02*
D03*
X41732Y6299D02*
D03*
X35827Y372441D02*
D03*
X29921Y360630D02*
D03*
X35827Y348819D02*
D03*
X29921Y337008D02*
D03*
X35827Y301575D02*
D03*
Y230709D02*
D03*
Y207086D02*
D03*
X29921Y124409D02*
D03*
Y100787D02*
D03*
Y53543D02*
D03*
Y29921D02*
D03*
X35827Y18110D02*
D03*
X29921Y6299D02*
D03*
X24016Y372441D02*
D03*
Y348819D02*
D03*
X18110Y337008D02*
D03*
X24016Y325197D02*
D03*
X18110Y313386D02*
D03*
Y289764D02*
D03*
Y266142D02*
D03*
Y242520D02*
D03*
Y218898D02*
D03*
Y195275D02*
D03*
Y171653D02*
D03*
X24016Y136220D02*
D03*
X18110Y124409D02*
D03*
X24016Y112598D02*
D03*
X18110Y100787D02*
D03*
X24016Y88976D02*
D03*
X18110Y77165D02*
D03*
Y53543D02*
D03*
X24016Y41732D02*
D03*
X18110Y29921D02*
D03*
X24016Y18110D02*
D03*
X18110Y6299D02*
D03*
X6299Y360630D02*
D03*
X12205Y348819D02*
D03*
X6299Y337008D02*
D03*
Y313386D02*
D03*
Y289764D02*
D03*
X12205Y277953D02*
D03*
X6299Y266142D02*
D03*
X12205Y254331D02*
D03*
X6299Y242520D02*
D03*
X12205Y230709D02*
D03*
X6299Y218898D02*
D03*
X12205Y207086D02*
D03*
X6299Y195275D02*
D03*
X12205Y183465D02*
D03*
X6299Y171653D02*
D03*
X12205Y159842D02*
D03*
X6299Y148031D02*
D03*
X12205Y136220D02*
D03*
X6299Y124409D02*
D03*
X12205Y112598D02*
D03*
X6299Y100787D02*
D03*
X12205Y88976D02*
D03*
X6299Y77165D02*
D03*
X12205Y65354D02*
D03*
X6299Y53543D02*
D03*
X12205Y41732D02*
D03*
X6299Y29921D02*
D03*
Y6299D02*
D03*
X368580Y341772D02*
D03*
X343496Y350528D02*
D03*
X345418Y365407D02*
D03*
X324565Y329467D02*
D03*
X348018Y305107D02*
D03*
X356038Y331834D02*
D03*
X317466Y347925D02*
D03*
X324565Y366856D02*
D03*
X218218Y298207D02*
D03*
X211518Y304707D02*
D03*
X214018Y312107D02*
D03*
X220218Y306107D02*
D03*
X235200Y306200D02*
D03*
X209289Y296950D02*
D03*
X246118Y323307D02*
D03*
X248200Y283900D02*
D03*
X40588Y305120D02*
D03*
X13318Y288807D02*
D03*
X76818Y273207D02*
D03*
X59618Y264907D02*
D03*
X71018Y279007D02*
D03*
X47618Y269607D02*
D03*
X53168Y261818D02*
D03*
X47262Y255912D02*
D03*
X250174Y308400D02*
D03*
X262000Y289500D02*
D03*
X81000Y276500D02*
D03*
X56500Y253000D02*
D03*
X94500Y250000D02*
D03*
X80500Y315500D02*
D03*
X76000Y311000D02*
D03*
X89000Y266000D02*
D03*
X237000Y326000D02*
D03*
X125500Y285500D02*
D03*
X165500Y286000D02*
D03*
X152500Y289000D02*
D03*
X145500Y286039D02*
D03*
X83000Y128000D02*
D03*
X293000Y198000D02*
D03*
X291500Y194500D02*
D03*
M02*
