G04*
G04 #@! TF.GenerationSoftware,Altium Limited,Altium Designer,23.10.1 (27)*
G04*
G04 Layer_Physical_Order=2*
G04 Layer_Color=16711680*
%FSLAX25Y25*%
%MOIN*%
G70*
G04*
G04 #@! TF.SameCoordinates,F6535FD2-0468-4A63-920D-5F40DC5DF58B*
G04*
G04*
G04 #@! TF.FilePolarity,Positive*
G04*
G01*
G75*
%ADD13C,0.00787*%
%ADD17R,0.05512X0.03937*%
%ADD31C,0.06102*%
%ADD32R,0.06102X0.06102*%
%ADD36C,0.01500*%
%ADD37R,0.05906X0.05906*%
%ADD38C,0.05906*%
%ADD39C,0.03937*%
%ADD40C,0.06000*%
%ADD41C,0.07874*%
%ADD42O,0.11024X0.11024*%
%ADD43C,0.11811*%
%ADD44C,0.06693*%
%ADD45O,0.06693X0.06299*%
%ADD46O,0.06299X0.06693*%
%ADD47O,0.09449X0.13780*%
%ADD48R,0.07400X0.07400*%
%ADD49C,0.11024*%
%ADD50C,0.01772*%
G04:AMPARAMS|DCode=51|XSize=43.31mil|YSize=39.37mil|CornerRadius=0mil|HoleSize=0mil|Usage=FLASHONLY|Rotation=135.000|XOffset=0mil|YOffset=0mil|HoleType=Round|Shape=Rectangle|*
%AMROTATEDRECTD51*
4,1,4,0.02923,-0.00139,0.00139,-0.02923,-0.02923,0.00139,-0.00139,0.02923,0.02923,-0.00139,0.0*
%
%ADD51ROTATEDRECTD51*%

%ADD52R,0.07874X0.04724*%
%ADD53R,0.05512X0.04724*%
%ADD54R,0.05118X0.02362*%
%ADD55R,0.06299X0.03150*%
G04:AMPARAMS|DCode=56|XSize=42.13mil|YSize=23.62mil|CornerRadius=0mil|HoleSize=0mil|Usage=FLASHONLY|Rotation=45.000|XOffset=0mil|YOffset=0mil|HoleType=Round|Shape=Rectangle|*
%AMROTATEDRECTD56*
4,1,4,-0.00654,-0.02325,-0.02325,-0.00654,0.00654,0.02325,0.02325,0.00654,-0.00654,-0.02325,0.0*
%
%ADD56ROTATEDRECTD56*%

%ADD57R,0.04331X0.03937*%
%ADD58R,0.02500X0.08504*%
G04:AMPARAMS|DCode=59|XSize=65.17mil|YSize=14.99mil|CornerRadius=7.5mil|HoleSize=0mil|Usage=FLASHONLY|Rotation=270.000|XOffset=0mil|YOffset=0mil|HoleType=Round|Shape=RoundedRectangle|*
%AMROUNDEDRECTD59*
21,1,0.06517,0.00000,0,0,270.0*
21,1,0.05018,0.01499,0,0,270.0*
1,1,0.01499,0.00000,-0.02509*
1,1,0.01499,0.00000,0.02509*
1,1,0.01499,0.00000,0.02509*
1,1,0.01499,0.00000,-0.02509*
%
%ADD59ROUNDEDRECTD59*%
%ADD60R,0.01499X0.06517*%
G04:AMPARAMS|DCode=61|XSize=43.31mil|YSize=39.37mil|CornerRadius=0mil|HoleSize=0mil|Usage=FLASHONLY|Rotation=45.000|XOffset=0mil|YOffset=0mil|HoleType=Round|Shape=Rectangle|*
%AMROTATEDRECTD61*
4,1,4,-0.00139,-0.02923,-0.02923,-0.00139,0.00139,0.02923,0.02923,0.00139,-0.00139,-0.02923,0.0*
%
%ADD61ROTATEDRECTD61*%

G04:AMPARAMS|DCode=62|XSize=55.12mil|YSize=39.37mil|CornerRadius=0mil|HoleSize=0mil|Usage=FLASHONLY|Rotation=315.000|XOffset=0mil|YOffset=0mil|HoleType=Round|Shape=Rectangle|*
%AMROTATEDRECTD62*
4,1,4,-0.03341,0.00557,-0.00557,0.03341,0.03341,-0.00557,0.00557,-0.03341,-0.03341,0.00557,0.0*
%
%ADD62ROTATEDRECTD62*%

%ADD63R,0.03937X0.05512*%
%ADD64R,0.03150X0.06299*%
%ADD65R,0.03937X0.04331*%
G36*
X378378Y1622D02*
X1622D01*
Y381278D01*
X378378D01*
Y1622D01*
D02*
G37*
%LPC*%
G36*
X286638Y375283D02*
X101188D01*
X100645Y375175D01*
X100184Y374867D01*
X91206Y365890D01*
X85310D01*
Y357984D01*
X93216D01*
Y363880D01*
X101777Y372441D01*
X105778D01*
X105970Y371979D01*
X99839Y365848D01*
X99263Y365924D01*
X98231Y365788D01*
X97270Y365390D01*
X96444Y364756D01*
X95810Y363930D01*
X95412Y362969D01*
X95276Y361937D01*
X95412Y360905D01*
X95810Y359944D01*
X96444Y359118D01*
X97270Y358484D01*
X98231Y358086D01*
X99263Y357950D01*
X100295Y358086D01*
X101257Y358484D01*
X102082Y359118D01*
X102716Y359944D01*
X103114Y360905D01*
X103250Y361937D01*
X103114Y362969D01*
X102716Y363930D01*
X102379Y364369D01*
X108663Y370654D01*
X115317D01*
X115508Y370192D01*
X110867Y365551D01*
X110295Y365788D01*
X109263Y365924D01*
X108231Y365788D01*
X107270Y365390D01*
X106444Y364756D01*
X105810Y363930D01*
X105412Y362969D01*
X105276Y361937D01*
X105412Y360905D01*
X105810Y359944D01*
X106444Y359118D01*
X107270Y358484D01*
X108231Y358086D01*
X109263Y357950D01*
X110295Y358086D01*
X111257Y358484D01*
X112082Y359118D01*
X112654Y359863D01*
X112970Y359819D01*
X113154Y359728D01*
Y354146D01*
X112970Y354055D01*
X112654Y354011D01*
X112082Y354756D01*
X111257Y355390D01*
X110295Y355788D01*
X109263Y355924D01*
X108231Y355788D01*
X107270Y355390D01*
X106444Y354756D01*
X105810Y353930D01*
X105412Y352969D01*
X105276Y351937D01*
X105412Y350905D01*
X105810Y349943D01*
X106444Y349118D01*
X107270Y348484D01*
X108231Y348086D01*
X108941Y347992D01*
Y338891D01*
X108441Y338645D01*
X108009Y338976D01*
X107048Y339375D01*
X106016Y339510D01*
X104984Y339375D01*
X104022Y338976D01*
X103197Y338343D01*
X102921Y337984D01*
X102421Y338153D01*
Y349559D01*
X102716Y349943D01*
X103114Y350905D01*
X103250Y351937D01*
X103114Y352969D01*
X102716Y353930D01*
X102082Y354756D01*
X101257Y355390D01*
X100295Y355788D01*
X99263Y355924D01*
X98231Y355788D01*
X97270Y355390D01*
X96444Y354756D01*
X95810Y353930D01*
X95412Y352969D01*
X95276Y351937D01*
X95412Y350905D01*
X95810Y349943D01*
X96444Y349118D01*
X97270Y348484D01*
X98231Y348086D01*
X99263Y347950D01*
X99579Y347673D01*
Y338194D01*
X99079Y338025D01*
X98835Y338343D01*
X98009Y338976D01*
X97048Y339375D01*
X96016Y339510D01*
X94984Y339375D01*
X94022Y338976D01*
X93197Y338343D01*
X92563Y337517D01*
X92283Y336842D01*
X91783Y336941D01*
Y348888D01*
X92082Y349118D01*
X92716Y349943D01*
X93114Y350905D01*
X93250Y351937D01*
X93114Y352969D01*
X92716Y353930D01*
X92082Y354756D01*
X91257Y355390D01*
X90295Y355788D01*
X89263Y355924D01*
X88231Y355788D01*
X87270Y355390D01*
X86444Y354756D01*
X85810Y353930D01*
X85412Y352969D01*
X85276Y351937D01*
X85412Y350905D01*
X85810Y349943D01*
X86444Y349118D01*
X87270Y348484D01*
X88231Y348086D01*
X88941Y347992D01*
Y338891D01*
X88441Y338645D01*
X88009Y338976D01*
X87048Y339375D01*
X86016Y339510D01*
X85129Y339394D01*
X75284Y349239D01*
Y368500D01*
X75284Y368500D01*
X75148Y369183D01*
X74762Y369762D01*
X74762Y369762D01*
X72762Y371762D01*
X72183Y372148D01*
X71500Y372284D01*
X57591D01*
X57494Y372517D01*
X56853Y373353D01*
X56017Y373994D01*
X55044Y374397D01*
X54000Y374535D01*
X52956Y374397D01*
X51983Y373994D01*
X51147Y373353D01*
X50506Y372517D01*
X50103Y371544D01*
X49966Y370500D01*
X50103Y369456D01*
X50506Y368483D01*
X51042Y367784D01*
X50852Y367284D01*
X49000D01*
X49000Y367284D01*
X48317Y367148D01*
X47738Y366762D01*
X47738Y366762D01*
X45277Y364301D01*
X45044Y364397D01*
X44000Y364534D01*
X42956Y364397D01*
X41983Y363994D01*
X41147Y363353D01*
X40506Y362517D01*
X40103Y361544D01*
X39966Y360500D01*
X40103Y359456D01*
X40506Y358483D01*
X41147Y357647D01*
X41983Y357006D01*
X42956Y356603D01*
X44000Y356466D01*
X45044Y356603D01*
X46017Y357006D01*
X46853Y357647D01*
X47494Y358483D01*
X47897Y359456D01*
X48035Y360500D01*
X47897Y361544D01*
X47800Y361777D01*
X49739Y363716D01*
X60852D01*
X61042Y363216D01*
X60506Y362517D01*
X60486Y362469D01*
X64000D01*
Y360500D01*
X65969D01*
Y356986D01*
X66017Y357006D01*
X66853Y357647D01*
X67494Y358483D01*
X67716Y359018D01*
X68216Y358919D01*
Y346000D01*
X68352Y345317D01*
X68738Y344738D01*
X73978Y339499D01*
X73993Y339318D01*
X73900Y338882D01*
X73197Y338343D01*
X72563Y337517D01*
X72165Y336556D01*
X72029Y335524D01*
X72165Y334492D01*
X72563Y333530D01*
X73197Y332704D01*
X74022Y332071D01*
X74984Y331673D01*
X76016Y331537D01*
X77048Y331673D01*
X78009Y332071D01*
X78835Y332704D01*
X79469Y333530D01*
X79867Y334492D01*
X80003Y335524D01*
X79867Y336556D01*
X79469Y337517D01*
X78835Y338343D01*
X78009Y338976D01*
X77800Y339063D01*
Y339984D01*
X77800Y339984D01*
X77664Y340667D01*
X77277Y341246D01*
X77277Y341246D01*
X71958Y346565D01*
X71986Y346784D01*
X72512Y346964D01*
X82386Y337090D01*
X82165Y336556D01*
X82029Y335524D01*
X82165Y334492D01*
X82563Y333530D01*
X83197Y332704D01*
X84022Y332071D01*
X84984Y331673D01*
X86016Y331537D01*
X87048Y331673D01*
X88009Y332071D01*
X88441Y332402D01*
X88941Y332156D01*
Y328951D01*
X87486Y327496D01*
X41075D01*
X40531Y327388D01*
X40070Y327080D01*
X22995Y310005D01*
X22687Y309544D01*
X22579Y309000D01*
Y162729D01*
X22687Y162185D01*
X22995Y161724D01*
X26399Y158320D01*
X26165Y157847D01*
X25347Y157955D01*
X23853Y157758D01*
X22460Y157181D01*
X21264Y156263D01*
X20347Y155068D01*
X19770Y153675D01*
X19573Y152181D01*
Y147850D01*
X19770Y146356D01*
X20347Y144963D01*
X21264Y143767D01*
X22460Y142850D01*
X23853Y142273D01*
X25347Y142076D01*
X26841Y142273D01*
X28234Y142850D01*
X29430Y143767D01*
X30347Y144963D01*
X30924Y146356D01*
X31121Y147850D01*
Y152181D01*
X31013Y152999D01*
X31487Y153233D01*
X42079Y142640D01*
Y123500D01*
X42187Y122956D01*
X42495Y122495D01*
X53538Y111453D01*
X53330Y110953D01*
X52547D01*
Y109696D01*
X52520Y109559D01*
X52547Y109422D01*
Y103047D01*
X55058D01*
Y47341D01*
X54353Y47049D01*
X53321Y46257D01*
X52530Y45226D01*
X52192Y44409D01*
X51651D01*
X51313Y45226D01*
X50521Y46257D01*
X49490Y47049D01*
X48534Y47444D01*
Y103579D01*
X49319Y104181D01*
X49953Y105007D01*
X50351Y105968D01*
X50487Y107000D01*
X50351Y108032D01*
X49953Y108993D01*
X49319Y109819D01*
X48493Y110453D01*
X47532Y110851D01*
X46500Y110987D01*
X45468Y110851D01*
X44507Y110453D01*
X43681Y109819D01*
X43047Y108993D01*
X42649Y108032D01*
X42513Y107000D01*
X42649Y105968D01*
X43047Y105007D01*
X43681Y104181D01*
X44507Y103547D01*
X44966Y103357D01*
Y47237D01*
X44510Y47049D01*
X43479Y46257D01*
X42687Y45226D01*
X42349Y44409D01*
X41808D01*
X41470Y45226D01*
X40679Y46257D01*
X39647Y47049D01*
X38613Y47477D01*
Y103639D01*
X39319Y104181D01*
X39953Y105007D01*
X40351Y105968D01*
X40487Y107000D01*
X40351Y108032D01*
X39953Y108993D01*
X39319Y109819D01*
X38493Y110453D01*
X37532Y110851D01*
X36500Y110987D01*
X35468Y110851D01*
X34507Y110453D01*
X33681Y109819D01*
X33047Y108993D01*
X32649Y108032D01*
X32513Y107000D01*
X32649Y105968D01*
X33047Y105007D01*
X33681Y104181D01*
X34507Y103547D01*
X35045Y103324D01*
Y74184D01*
X34545Y74110D01*
X34345Y74768D01*
X33740Y75899D01*
X32926Y76891D01*
X31935Y77704D01*
X30804Y78309D01*
X29576Y78681D01*
X28300Y78807D01*
X27023Y78681D01*
X25796Y78309D01*
X24664Y77704D01*
X23673Y76891D01*
X22859Y75899D01*
X22254Y74768D01*
X21882Y73540D01*
X21756Y72264D01*
X21882Y70987D01*
X22254Y69760D01*
X22859Y68629D01*
X23673Y67637D01*
X24664Y66823D01*
X25796Y66219D01*
X27023Y65846D01*
X28300Y65720D01*
X29576Y65846D01*
X30804Y66219D01*
X31935Y66823D01*
X32926Y67637D01*
X33740Y68629D01*
X34345Y69760D01*
X34545Y70418D01*
X35045Y70343D01*
Y47205D01*
X34668Y47049D01*
X33636Y46257D01*
X32845Y45226D01*
X32348Y44025D01*
X32178Y42736D01*
X32348Y41447D01*
X32845Y40246D01*
X33636Y39215D01*
X34668Y38424D01*
X35737Y37981D01*
Y32961D01*
X35845Y32418D01*
X36153Y31956D01*
X36614Y31495D01*
X37075Y31187D01*
X37619Y31079D01*
X70500D01*
X71044Y31187D01*
X71505Y31495D01*
X79792Y39783D01*
X80100Y40244D01*
X80208Y40787D01*
Y101268D01*
X80100Y101812D01*
X79792Y102273D01*
X65482Y116583D01*
X65021Y116891D01*
X64477Y116999D01*
X57688D01*
X56916Y117771D01*
X56996Y118093D01*
X57113Y118281D01*
X58123Y118414D01*
X59133Y118832D01*
X59999Y119497D01*
X60664Y120364D01*
X60792Y120672D01*
X72500D01*
X73182Y120808D01*
X73761Y121195D01*
X78055Y125488D01*
X81468D01*
Y126154D01*
X81968Y126421D01*
X82264Y126224D01*
X83000Y126077D01*
X83736Y126224D01*
X84360Y126640D01*
X84776Y127264D01*
X84923Y128000D01*
X84776Y128736D01*
X84360Y129360D01*
X83736Y129776D01*
X83000Y129923D01*
X82264Y129776D01*
X81968Y129579D01*
X81468Y129846D01*
Y131819D01*
X81468D01*
Y132181D01*
X81468D01*
Y133562D01*
X92716D01*
Y74000D01*
Y64000D01*
X92852Y63317D01*
X93238Y62738D01*
X100398Y55579D01*
X100977Y55192D01*
X101660Y55056D01*
X175488D01*
Y54532D01*
X176716D01*
Y43000D01*
X176851Y42317D01*
X177238Y41738D01*
X179238Y39738D01*
X179238Y39738D01*
X179817Y39351D01*
X180500Y39216D01*
X180500Y39216D01*
X255621D01*
X256304Y39351D01*
X256883Y39738D01*
X266262Y49117D01*
X266262Y49117D01*
X266649Y49696D01*
X266784Y50379D01*
X266784Y50379D01*
Y70261D01*
X278262Y81738D01*
X278262Y81738D01*
X278648Y82317D01*
X278784Y83000D01*
X278784Y83000D01*
Y133562D01*
X298031D01*
Y132319D01*
X298031Y132181D01*
Y131819D01*
X298031Y131681D01*
Y125488D01*
X299216D01*
Y31879D01*
X299352Y31196D01*
X299738Y30617D01*
X300617Y29738D01*
X301196Y29351D01*
X301879Y29216D01*
X359500D01*
X360183Y29351D01*
X360762Y29738D01*
X364640Y33617D01*
X365027Y34196D01*
X365163Y34879D01*
Y113121D01*
X365163Y113121D01*
X365027Y113804D01*
X364640Y114383D01*
X364640Y114383D01*
X355305Y123718D01*
X354726Y124105D01*
X354044Y124241D01*
X346792D01*
X346665Y124549D01*
X345999Y125416D01*
X345132Y126081D01*
X344123Y126499D01*
X343040Y126642D01*
X342646D01*
X341563Y126499D01*
X340553Y126081D01*
X339687Y125416D01*
X339021Y124549D01*
X338603Y123540D01*
X338461Y122456D01*
X338603Y121373D01*
X339021Y120364D01*
X339687Y119497D01*
X340553Y118832D01*
X341563Y118414D01*
X342646Y118271D01*
X343040D01*
X344123Y118414D01*
X345132Y118832D01*
X345999Y119497D01*
X346665Y120364D01*
X346792Y120672D01*
X353305D01*
X361594Y112382D01*
Y35618D01*
X358761Y32784D01*
X302784D01*
Y125488D01*
X303969D01*
Y131681D01*
X303969Y131819D01*
Y132181D01*
X303969Y132319D01*
Y138512D01*
X298031D01*
Y137131D01*
X278784D01*
Y194000D01*
X278648Y194683D01*
X278262Y195262D01*
X255784Y217739D01*
Y269874D01*
X263650D01*
Y273902D01*
X263668Y273977D01*
X263665Y274001D01*
X263669Y274024D01*
X263650Y274122D01*
Y274886D01*
X263668Y274961D01*
X263665Y274985D01*
X263669Y275008D01*
X263669Y276976D01*
X263650Y277075D01*
Y280691D01*
X265517Y282558D01*
X265979Y282367D01*
Y218237D01*
X266115Y217554D01*
X266501Y216975D01*
X289746Y193731D01*
X290140Y193140D01*
X290764Y192724D01*
X291500Y192577D01*
X292236Y192724D01*
X292860Y193140D01*
X293276Y193764D01*
X293423Y194500D01*
X293276Y195236D01*
X293033Y195600D01*
X293279Y196133D01*
X293736Y196224D01*
X294360Y196640D01*
X294776Y197264D01*
X294923Y198000D01*
X294776Y198736D01*
X294360Y199360D01*
X293769Y199754D01*
X272047Y221476D01*
Y349398D01*
X272257Y349484D01*
X273082Y350118D01*
X273716Y350943D01*
X274114Y351905D01*
X274250Y352937D01*
X274114Y353969D01*
X273716Y354930D01*
X273082Y355756D01*
X272257Y356390D01*
X271295Y356788D01*
X270263Y356924D01*
X269231Y356788D01*
X268270Y356390D01*
X267444Y355756D01*
X266810Y354930D01*
X266412Y353969D01*
X266276Y352937D01*
X266412Y351905D01*
X266810Y350943D01*
X267444Y350118D01*
X268270Y349484D01*
X268479Y349398D01*
Y347898D01*
X268017Y347707D01*
X264028Y351696D01*
X264114Y351905D01*
X264250Y352937D01*
X264114Y353969D01*
X263716Y354930D01*
X263082Y355756D01*
X262257Y356390D01*
X261295Y356788D01*
X260263Y356924D01*
X259231Y356788D01*
X258270Y356390D01*
X257444Y355756D01*
X256810Y354930D01*
X256412Y353969D01*
X256276Y352937D01*
X256412Y351905D01*
X256810Y350943D01*
X257444Y350118D01*
X258270Y349484D01*
X259231Y349086D01*
X260263Y348950D01*
X261295Y349086D01*
X261504Y349173D01*
X265979Y344698D01*
Y337107D01*
X265479Y336885D01*
X265067Y337160D01*
X264384Y337296D01*
X253500D01*
X253500Y337296D01*
X252817Y337160D01*
X252238Y336773D01*
X252238Y336773D01*
X252187Y336722D01*
X251800Y336143D01*
X251665Y335461D01*
Y332184D01*
X249340D01*
X242047Y339476D01*
Y349398D01*
X242257Y349484D01*
X243082Y350118D01*
X243716Y350943D01*
X244114Y351905D01*
X244250Y352937D01*
X244114Y353969D01*
X243716Y354930D01*
X243390Y355355D01*
X243636Y355855D01*
X246890D01*
X247136Y355355D01*
X246810Y354930D01*
X246412Y353969D01*
X246276Y352937D01*
X246412Y351905D01*
X246810Y350943D01*
X247444Y350118D01*
X248270Y349484D01*
X249231Y349086D01*
X250263Y348950D01*
X251295Y349086D01*
X252257Y349484D01*
X253082Y350118D01*
X253716Y350943D01*
X254114Y351905D01*
X254250Y352937D01*
X254114Y353969D01*
X253716Y354930D01*
X253082Y355756D01*
X252257Y356390D01*
X251406Y356742D01*
Y357640D01*
X251270Y358323D01*
X251113Y358558D01*
X251276Y359031D01*
X251347Y359107D01*
X252257Y359484D01*
X253082Y360118D01*
X253716Y360944D01*
X254114Y361905D01*
X254250Y362937D01*
X254114Y363969D01*
X253716Y364930D01*
X253082Y365756D01*
X252257Y366390D01*
X251295Y366788D01*
X250263Y366924D01*
X249231Y366788D01*
X248270Y366390D01*
X247444Y365756D01*
X246810Y364930D01*
X246412Y363969D01*
X246276Y362937D01*
X246412Y361905D01*
X246810Y360944D01*
X247444Y360118D01*
X247697Y359924D01*
X247527Y359424D01*
X244216D01*
Y366890D01*
X236310D01*
Y359424D01*
X234018D01*
X234018Y359424D01*
X233336Y359288D01*
X232757Y358901D01*
X232757Y358901D01*
X231738Y357883D01*
X231351Y357304D01*
X231216Y356621D01*
Y348065D01*
X205666D01*
X205634Y348565D01*
X205795Y348586D01*
X206757Y348984D01*
X207582Y349618D01*
X208216Y350444D01*
X208226Y350468D01*
X201300D01*
X201310Y350444D01*
X201944Y349618D01*
X202770Y348984D01*
X203731Y348586D01*
X203893Y348565D01*
X203860Y348065D01*
X195666D01*
X195634Y348565D01*
X195795Y348586D01*
X196756Y348984D01*
X197582Y349618D01*
X198216Y350444D01*
X198614Y351405D01*
X198750Y352437D01*
X198614Y353469D01*
X198216Y354430D01*
X197582Y355256D01*
X196756Y355890D01*
X195795Y356288D01*
X194763Y356424D01*
X193731Y356288D01*
X192770Y355890D01*
X191944Y355256D01*
X191310Y354430D01*
X190912Y353469D01*
X190776Y352437D01*
X190912Y351405D01*
X191310Y350444D01*
X191944Y349618D01*
X192770Y348984D01*
X193731Y348586D01*
X193893Y348565D01*
X193860Y348065D01*
X185666D01*
X185634Y348565D01*
X185795Y348586D01*
X186757Y348984D01*
X187582Y349618D01*
X188216Y350444D01*
X188614Y351405D01*
X188750Y352437D01*
X188614Y353469D01*
X188216Y354430D01*
X187582Y355256D01*
X186757Y355890D01*
X185795Y356288D01*
X184763Y356424D01*
X183731Y356288D01*
X182770Y355890D01*
X181944Y355256D01*
X181310Y354430D01*
X180912Y353469D01*
X180776Y352437D01*
X180912Y351405D01*
X181310Y350444D01*
X181944Y349618D01*
X182770Y348984D01*
X183731Y348586D01*
X183893Y348565D01*
X183860Y348065D01*
X176784D01*
Y349006D01*
X177582Y349618D01*
X178216Y350444D01*
X178614Y351405D01*
X178750Y352437D01*
X178614Y353469D01*
X178216Y354430D01*
X177582Y355256D01*
X176757Y355890D01*
X175795Y356288D01*
X174763Y356424D01*
X173731Y356288D01*
X172770Y355890D01*
X171944Y355256D01*
X171310Y354430D01*
X170912Y353469D01*
X170776Y352437D01*
X170912Y351405D01*
X171310Y350444D01*
X171944Y349618D01*
X172770Y348984D01*
X173216Y348799D01*
Y347000D01*
X172812Y346616D01*
X172628Y346581D01*
X168377Y350833D01*
X168614Y351405D01*
X168750Y352437D01*
X168614Y353469D01*
X168216Y354430D01*
X167582Y355256D01*
X166756Y355890D01*
X165795Y356288D01*
X164763Y356424D01*
X163731Y356288D01*
X162770Y355890D01*
X161944Y355256D01*
X161310Y354430D01*
X160912Y353469D01*
X160776Y352437D01*
X160912Y351405D01*
X161310Y350444D01*
X161944Y349618D01*
X162770Y348984D01*
X163731Y348586D01*
X164763Y348450D01*
X165795Y348586D01*
X166367Y348823D01*
X171339Y343851D01*
X171800Y343544D01*
X172344Y343435D01*
X194055D01*
X197947Y339543D01*
X197664Y339119D01*
X197048Y339375D01*
X196016Y339510D01*
X194984Y339375D01*
X194022Y338976D01*
X193197Y338343D01*
X192563Y337517D01*
X192165Y336556D01*
X192029Y335524D01*
X192165Y334492D01*
X192251Y334283D01*
X181238Y323270D01*
X180851Y322691D01*
X180716Y322008D01*
Y306649D01*
X180250D01*
Y296146D01*
X184750D01*
Y306649D01*
X184284D01*
Y321269D01*
X194775Y331759D01*
X194984Y331673D01*
X196016Y331537D01*
X196366Y331583D01*
X196600Y331109D01*
X191995Y326505D01*
X191217Y325726D01*
X190909Y325265D01*
X190801Y324722D01*
Y321612D01*
X188023Y318835D01*
X189418Y317441D01*
X188738Y316762D01*
X188352Y316183D01*
X188216Y315500D01*
Y312000D01*
X188352Y311317D01*
X188738Y310738D01*
X190716Y308761D01*
Y306649D01*
X190250D01*
Y296146D01*
X190716D01*
Y292000D01*
X190851Y291317D01*
X191238Y290738D01*
X194238Y287738D01*
X194238Y287738D01*
X194817Y287351D01*
X195500Y287216D01*
X236000D01*
X236683Y287351D01*
X237262Y287738D01*
X244262Y294738D01*
X244262Y294738D01*
X244649Y295317D01*
X244784Y296000D01*
Y310261D01*
X245989Y311466D01*
X253206D01*
X253397Y311004D01*
X253125Y310732D01*
X252817Y310271D01*
X252800Y310184D01*
X250870D01*
X250174Y310322D01*
X249438Y310176D01*
X248814Y309759D01*
X248397Y309135D01*
X248251Y308400D01*
X248390Y307703D01*
Y296413D01*
X241738Y289762D01*
X241352Y289183D01*
X241216Y288500D01*
Y270739D01*
X223519Y253043D01*
X222215Y254347D01*
X218893Y251026D01*
X218431Y251217D01*
Y255353D01*
X218431Y255353D01*
X218295Y256036D01*
X217909Y256615D01*
X210762Y263762D01*
X210183Y264148D01*
X209500Y264284D01*
X204750D01*
Y268854D01*
X200250D01*
Y258350D01*
X204750D01*
Y260716D01*
X208761D01*
X214862Y254614D01*
Y246995D01*
X212770Y244903D01*
X212584Y244717D01*
X212240Y244849D01*
X212084Y245285D01*
Y247340D01*
X212084Y247340D01*
X212042Y247551D01*
X214026Y249535D01*
X208715Y254847D01*
X204917Y251049D01*
X204419Y251098D01*
X204409Y251115D01*
X199284Y256239D01*
Y258350D01*
X199750D01*
Y268854D01*
X195250D01*
Y258350D01*
X195716D01*
Y255500D01*
X195852Y254817D01*
X196176Y254331D01*
X196215Y253847D01*
X192893Y250526D01*
X192431Y250717D01*
Y253908D01*
X193762Y255238D01*
X193762Y255238D01*
X194149Y255817D01*
X194284Y256500D01*
Y258350D01*
X194750D01*
Y268854D01*
X190250D01*
Y258350D01*
X190716D01*
Y257239D01*
X189385Y255908D01*
X188998Y255330D01*
X188863Y254647D01*
Y246495D01*
X186449Y244081D01*
X191196Y239334D01*
X191005Y238872D01*
X190276D01*
Y234844D01*
X190257Y234769D01*
X190261Y234746D01*
X190256Y234722D01*
X190276Y234624D01*
Y233860D01*
X190257Y233785D01*
X190261Y233761D01*
X190256Y233738D01*
Y231770D01*
X190276Y231671D01*
Y231179D01*
X190467D01*
X190554Y231049D01*
X190885Y230827D01*
X191276Y230750D01*
X194425D01*
Y230195D01*
X195409D01*
Y227620D01*
X197716D01*
Y224284D01*
X185739D01*
X175949Y234075D01*
X177429Y235555D01*
X175886Y237097D01*
X174344Y238639D01*
X172864Y237159D01*
X170659Y239364D01*
X175032Y243737D01*
X173732Y245037D01*
Y248244D01*
X174736D01*
Y255756D01*
X173784D01*
Y258350D01*
X174750D01*
Y268854D01*
X170250D01*
Y263647D01*
X169750Y263869D01*
Y268854D01*
X168484D01*
Y263602D01*
Y258350D01*
X169716D01*
X169750Y258350D01*
X170216Y258268D01*
Y255756D01*
X168799D01*
Y248244D01*
X170163D01*
Y245037D01*
X167575Y242449D01*
X165284Y244739D01*
Y248244D01*
X166862D01*
Y255756D01*
X160925D01*
Y253784D01*
X139239D01*
X127284Y265739D01*
Y284804D01*
X127423Y285500D01*
X127276Y286236D01*
X126860Y286860D01*
X126236Y287276D01*
X125500Y287423D01*
X124764Y287276D01*
X124140Y286860D01*
X123724Y286236D01*
X123577Y285500D01*
X123716Y284804D01*
Y265000D01*
X123852Y264317D01*
X124238Y263738D01*
X137238Y250738D01*
X137238Y250738D01*
X137817Y250352D01*
X138500Y250216D01*
X138500Y250216D01*
X160925D01*
Y248244D01*
X161716D01*
Y244000D01*
X161852Y243317D01*
X162238Y242738D01*
X167696Y237281D01*
X163323Y232907D01*
X165048Y231182D01*
X165146Y231036D01*
X165277Y230904D01*
Y223439D01*
X165413Y222756D01*
X165800Y222177D01*
X169238Y218738D01*
X169238Y218738D01*
X169817Y218352D01*
X170500Y218216D01*
X239275D01*
X264038Y193453D01*
X263979Y192953D01*
X261547D01*
Y185047D01*
X269453D01*
Y192953D01*
X266921D01*
Y194000D01*
X266813Y194544D01*
X266505Y195005D01*
X241228Y220281D01*
X241148Y220683D01*
X240762Y221262D01*
X240183Y221649D01*
X239500Y221784D01*
X225974D01*
X225752Y222284D01*
X226027Y222696D01*
X226163Y223379D01*
Y246262D01*
X226027Y246944D01*
X225790Y247299D01*
X227526Y249036D01*
X226043Y250519D01*
X244262Y268738D01*
X244649Y269317D01*
X244784Y270000D01*
X244784Y270000D01*
Y287761D01*
X250912Y293889D01*
X251374Y293697D01*
Y291850D01*
X252965D01*
Y296000D01*
Y300150D01*
X251958D01*
Y301850D01*
X255425D01*
X255524Y301831D01*
X257492D01*
X257515Y301835D01*
X257539Y301832D01*
X257614Y301850D01*
X258378D01*
X258476Y301831D01*
X258500Y301835D01*
X258523Y301832D01*
X258598Y301850D01*
X262626D01*
Y309579D01*
X264198D01*
Y290482D01*
X263698Y290353D01*
X263360Y290860D01*
X262736Y291276D01*
X262364Y291350D01*
X262413Y291850D01*
X262626D01*
Y300150D01*
X258598D01*
X258523Y300168D01*
X258500Y300165D01*
X258476Y300169D01*
X258378Y300150D01*
X257614D01*
X257539Y300168D01*
X257515Y300165D01*
X257492Y300169D01*
X255524D01*
X255425Y300150D01*
X254933D01*
Y299958D01*
X254802Y299871D01*
X254581Y299540D01*
X254504Y299150D01*
Y296000D01*
Y292850D01*
X254581Y292460D01*
X254802Y292129D01*
X254933Y292042D01*
Y291850D01*
X255425D01*
X255524Y291831D01*
X257492D01*
X257515Y291835D01*
X257539Y291832D01*
X257614Y291850D01*
X258378D01*
X258476Y291831D01*
X258500Y291835D01*
X258523Y291832D01*
X258598Y291850D01*
X261587D01*
X261636Y291350D01*
X261264Y291276D01*
X260732Y290921D01*
X251000D01*
X250456Y290813D01*
X249995Y290505D01*
X249495Y290005D01*
X249187Y289544D01*
X249079Y289000D01*
Y281599D01*
X248819Y281153D01*
X248682Y281126D01*
X245850D01*
Y277075D01*
X245831Y276976D01*
Y275008D01*
X245835Y274985D01*
X245832Y274961D01*
X245850Y274886D01*
Y274122D01*
X245831Y274024D01*
X245835Y274001D01*
X245832Y273977D01*
X245850Y273902D01*
Y269874D01*
X252216D01*
Y217000D01*
X252351Y216317D01*
X252738Y215738D01*
X275216Y193261D01*
Y137131D01*
X257469D01*
Y138512D01*
X251532D01*
Y132284D01*
X246239D01*
X244801Y133722D01*
Y138712D01*
X245060Y138820D01*
X245906Y139469D01*
X246555Y140315D01*
X246964Y141301D01*
X247103Y142358D01*
X246964Y143416D01*
X246555Y144401D01*
X245906Y145248D01*
X245060Y145897D01*
X244074Y146305D01*
X243017Y146444D01*
X241959Y146305D01*
X240974Y145897D01*
X240127Y145248D01*
X239478Y144401D01*
X239070Y143416D01*
X238931Y142358D01*
X239070Y141301D01*
X239478Y140315D01*
X240127Y139469D01*
X240974Y138820D01*
X241232Y138712D01*
Y132983D01*
X241368Y132300D01*
X241755Y131722D01*
X244238Y129238D01*
X244238Y129238D01*
X244817Y128851D01*
X245500Y128716D01*
X245500Y128716D01*
X251532D01*
Y125488D01*
X257469D01*
Y131681D01*
X257469Y131819D01*
X257469D01*
Y132181D01*
X257469D01*
Y133562D01*
X275216D01*
Y83739D01*
X265000Y73523D01*
X262415Y76108D01*
X261836Y76495D01*
X261154Y76631D01*
X257469D01*
Y78012D01*
X251532D01*
Y71819D01*
X251532Y71681D01*
Y71319D01*
X251532Y71181D01*
Y69938D01*
X248586D01*
X244801Y73722D01*
Y75712D01*
X245060Y75820D01*
X245906Y76469D01*
X246555Y77315D01*
X246964Y78301D01*
X247103Y79358D01*
X246964Y80416D01*
X246555Y81401D01*
X245906Y82248D01*
X245060Y82897D01*
X244074Y83305D01*
X243017Y83444D01*
X241959Y83305D01*
X240974Y82897D01*
X240127Y82248D01*
X239478Y81401D01*
X239070Y80416D01*
X238931Y79358D01*
X239070Y78301D01*
X239478Y77315D01*
X240127Y76469D01*
X240974Y75820D01*
X241232Y75712D01*
Y72983D01*
X241368Y72300D01*
X241755Y71722D01*
X246585Y66892D01*
X246585Y66892D01*
X247164Y66505D01*
X247846Y66369D01*
X247847Y66369D01*
X251532D01*
Y64988D01*
X257469D01*
Y71181D01*
X257469Y71319D01*
Y71681D01*
X257469Y71819D01*
Y73062D01*
X260415D01*
X263216Y70261D01*
Y51118D01*
X254882Y42784D01*
X181239D01*
X180284Y43739D01*
Y54532D01*
X181681D01*
X181819Y54532D01*
X182181D01*
X182319Y54532D01*
X188512D01*
Y55716D01*
X190882D01*
X193216Y53382D01*
Y51369D01*
X192406Y50748D01*
X191757Y49901D01*
X191348Y48916D01*
X191209Y47858D01*
X191348Y46801D01*
X191757Y45815D01*
X192406Y44969D01*
X193252Y44320D01*
X194238Y43911D01*
X195295Y43772D01*
X196353Y43911D01*
X197338Y44320D01*
X198185Y44969D01*
X198834Y45815D01*
X199242Y46801D01*
X199381Y47858D01*
X199242Y48916D01*
X198834Y49901D01*
X198185Y50748D01*
X197338Y51397D01*
X196784Y51626D01*
Y54121D01*
X196784Y54121D01*
X196649Y54804D01*
X196262Y55383D01*
X196262Y55383D01*
X192883Y58762D01*
X192304Y59149D01*
X191621Y59284D01*
X188512D01*
Y60469D01*
X182319D01*
X182181Y60469D01*
X181819D01*
X181681Y60469D01*
X175488D01*
Y58625D01*
X149247D01*
Y63693D01*
X152132Y66579D01*
X223000D01*
X223544Y66687D01*
X224005Y66995D01*
X226005Y68995D01*
X226313Y69456D01*
X226421Y70000D01*
Y164500D01*
X226313Y165044D01*
X226005Y165505D01*
X218005Y173505D01*
X217544Y173813D01*
X217000Y173921D01*
X154589D01*
X152421Y176089D01*
Y185690D01*
X152921Y185937D01*
X153483Y185506D01*
X154456Y185103D01*
X155500Y184966D01*
X156544Y185103D01*
X157517Y185506D01*
X158353Y186147D01*
X158994Y186983D01*
X159397Y187956D01*
X159535Y189000D01*
X159397Y190044D01*
X158994Y191017D01*
X158353Y191853D01*
X157517Y192494D01*
X156544Y192897D01*
X155500Y193035D01*
X154456Y192897D01*
X153483Y192494D01*
X152921Y192063D01*
X152421Y192309D01*
Y198000D01*
X152313Y198544D01*
X152005Y199005D01*
X122421Y228589D01*
Y290911D01*
X152005Y320495D01*
X152313Y320956D01*
X152421Y321500D01*
Y332894D01*
X152921Y333064D01*
X153197Y332704D01*
X154022Y332071D01*
X154984Y331673D01*
X156016Y331537D01*
X157048Y331673D01*
X158009Y332071D01*
X158835Y332704D01*
X159468Y333530D01*
X159867Y334492D01*
X160003Y335524D01*
X159867Y336556D01*
X159468Y337517D01*
X158835Y338343D01*
X158009Y338976D01*
X157048Y339375D01*
X156016Y339510D01*
X154984Y339375D01*
X154022Y338976D01*
X153197Y338343D01*
X152921Y337984D01*
X152421Y338153D01*
Y355000D01*
X152313Y355544D01*
X152005Y356005D01*
X145068Y362942D01*
X144607Y363250D01*
X144063Y363358D01*
X132953D01*
X132716Y363930D01*
X132082Y364756D01*
X131256Y365390D01*
X130295Y365788D01*
X129263Y365924D01*
X128231Y365788D01*
X127270Y365390D01*
X126444Y364756D01*
X125810Y363930D01*
X125412Y362969D01*
X125276Y361937D01*
X125412Y360905D01*
X125810Y359944D01*
X126444Y359118D01*
X127270Y358484D01*
X128231Y358086D01*
X129263Y357950D01*
X130295Y358086D01*
X131256Y358484D01*
X132082Y359118D01*
X132716Y359944D01*
X132953Y360516D01*
X143474D01*
X149579Y354411D01*
Y338194D01*
X149079Y338025D01*
X148835Y338343D01*
X148009Y338976D01*
X147048Y339375D01*
X146016Y339510D01*
X144984Y339375D01*
X144022Y338976D01*
X143197Y338343D01*
X142563Y337517D01*
X142283Y336842D01*
X141783Y336941D01*
Y349826D01*
X141675Y350370D01*
X141367Y350831D01*
X139256Y352942D01*
X138795Y353250D01*
X138251Y353358D01*
X132953D01*
X132716Y353930D01*
X132082Y354756D01*
X131256Y355390D01*
X130295Y355788D01*
X129263Y355924D01*
X128231Y355788D01*
X127270Y355390D01*
X126444Y354756D01*
X125810Y353930D01*
X125412Y352969D01*
X125276Y351937D01*
X125412Y350905D01*
X125456Y350800D01*
X125032Y350516D01*
X123573Y351975D01*
X123213Y352216D01*
X123114Y352969D01*
X122716Y353930D01*
X122082Y354756D01*
X121256Y355390D01*
X120295Y355788D01*
X119263Y355924D01*
X118231Y355788D01*
X117270Y355390D01*
X116496Y354796D01*
X116032Y354896D01*
X115996Y354908D01*
Y358966D01*
X116032Y358978D01*
X116496Y359078D01*
X117270Y358484D01*
X118231Y358086D01*
X119263Y357950D01*
X120295Y358086D01*
X121256Y358484D01*
X122082Y359118D01*
X122716Y359944D01*
X123114Y360905D01*
X123250Y361937D01*
X123114Y362969D01*
X122716Y363930D01*
X122082Y364756D01*
X121256Y365390D01*
X120295Y365788D01*
X119263Y365924D01*
X118231Y365788D01*
X117270Y365390D01*
X116444Y364756D01*
X115810Y363930D01*
X115573Y363358D01*
X115437D01*
X114893Y363250D01*
X114432Y362942D01*
X113716Y362226D01*
X113205Y362371D01*
X113191Y362382D01*
X113114Y362969D01*
X112877Y363541D01*
X118202Y368866D01*
X284569D01*
X300792Y352643D01*
Y144788D01*
X300900Y144244D01*
X301208Y143783D01*
X305063Y139928D01*
Y113922D01*
X305171Y113378D01*
X305479Y112917D01*
X307188Y111208D01*
X307649Y110900D01*
X308193Y110792D01*
X308193Y110792D01*
X318699D01*
X320886Y108604D01*
X320649Y108032D01*
X320513Y107000D01*
X320649Y105968D01*
X321047Y105007D01*
X321681Y104181D01*
X322294Y103710D01*
Y47515D01*
X321167Y47049D01*
X320136Y46257D01*
X319344Y45226D01*
X318847Y44025D01*
X318677Y42736D01*
X318847Y41447D01*
X319344Y40246D01*
X320136Y39215D01*
X321167Y38424D01*
X322368Y37926D01*
X323657Y37757D01*
X324946Y37926D01*
X326147Y38424D01*
X327178Y39215D01*
X327970Y40246D01*
X328308Y41063D01*
X328849D01*
X329187Y40246D01*
X329978Y39215D01*
X331010Y38424D01*
X332211Y37926D01*
X333500Y37757D01*
X334788Y37926D01*
X335989Y38424D01*
X337021Y39215D01*
X337812Y40246D01*
X338150Y41063D01*
X338691D01*
X339030Y40246D01*
X339821Y39215D01*
X340852Y38424D01*
X342053Y37926D01*
X343342Y37757D01*
X344631Y37926D01*
X345832Y38424D01*
X346863Y39215D01*
X347654Y40246D01*
X348152Y41447D01*
X348322Y42736D01*
X348152Y44025D01*
X347654Y45226D01*
X346863Y46257D01*
X345832Y47049D01*
X345126Y47341D01*
Y103047D01*
X348453D01*
Y110953D01*
X342557D01*
X336921Y116589D01*
Y141000D01*
X336813Y141544D01*
X336505Y142005D01*
X307421Y171089D01*
Y355039D01*
X307313Y355582D01*
X307005Y356044D01*
X306544Y356505D01*
X306083Y356813D01*
X305601Y356909D01*
X287643Y374867D01*
X287182Y375175D01*
X286638Y375283D01*
D02*
G37*
G36*
X282232Y366400D02*
Y364906D01*
X283726D01*
X283716Y364930D01*
X283082Y365756D01*
X282257Y366390D01*
X282232Y366400D01*
D02*
G37*
G36*
X278295D02*
X278270Y366390D01*
X277444Y365756D01*
X276810Y364930D01*
X276800Y364906D01*
X278295D01*
Y366400D01*
D02*
G37*
G36*
X283726Y360968D02*
X282232D01*
Y359474D01*
X282257Y359484D01*
X283082Y360118D01*
X283716Y360944D01*
X283726Y360968D01*
D02*
G37*
G36*
X278295D02*
X276800D01*
X276810Y360944D01*
X277444Y360118D01*
X278270Y359484D01*
X278295Y359474D01*
Y360968D01*
D02*
G37*
G36*
X270263Y366924D02*
X269231Y366788D01*
X268270Y366390D01*
X267444Y365756D01*
X266810Y364930D01*
X266412Y363969D01*
X266276Y362937D01*
X266412Y361905D01*
X266810Y360944D01*
X267444Y360118D01*
X268270Y359484D01*
X269231Y359086D01*
X270263Y358950D01*
X271295Y359086D01*
X272257Y359484D01*
X273082Y360118D01*
X273716Y360944D01*
X274114Y361905D01*
X274250Y362937D01*
X274114Y363969D01*
X273716Y364930D01*
X273082Y365756D01*
X272257Y366390D01*
X271295Y366788D01*
X270263Y366924D01*
D02*
G37*
G36*
X260263D02*
X259231Y366788D01*
X258270Y366390D01*
X257444Y365756D01*
X256810Y364930D01*
X256412Y363969D01*
X256276Y362937D01*
X256412Y361905D01*
X256810Y360944D01*
X257444Y360118D01*
X258270Y359484D01*
X259231Y359086D01*
X260263Y358950D01*
X261295Y359086D01*
X262257Y359484D01*
X263082Y360118D01*
X263716Y360944D01*
X264114Y361905D01*
X264250Y362937D01*
X264114Y363969D01*
X263716Y364930D01*
X263082Y365756D01*
X262257Y366390D01*
X261295Y366788D01*
X260263Y366924D01*
D02*
G37*
G36*
X168716Y366390D02*
X160810D01*
Y358484D01*
X168716D01*
Y366390D01*
D02*
G37*
G36*
X204763Y366424D02*
X203731Y366288D01*
X202770Y365890D01*
X201944Y365256D01*
X201310Y364430D01*
X200912Y363469D01*
X200776Y362437D01*
X200912Y361405D01*
X201310Y360443D01*
X201944Y359618D01*
X202770Y358984D01*
X203731Y358586D01*
X204763Y358450D01*
X205795Y358586D01*
X206757Y358984D01*
X207582Y359618D01*
X208216Y360443D01*
X208614Y361405D01*
X208750Y362437D01*
X208614Y363469D01*
X208216Y364430D01*
X207582Y365256D01*
X206757Y365890D01*
X205795Y366288D01*
X204763Y366424D01*
D02*
G37*
G36*
X194763D02*
X193731Y366288D01*
X192770Y365890D01*
X191944Y365256D01*
X191310Y364430D01*
X190912Y363469D01*
X190776Y362437D01*
X190912Y361405D01*
X191310Y360443D01*
X191944Y359618D01*
X192770Y358984D01*
X193731Y358586D01*
X194763Y358450D01*
X195795Y358586D01*
X196756Y358984D01*
X197582Y359618D01*
X198216Y360443D01*
X198614Y361405D01*
X198750Y362437D01*
X198614Y363469D01*
X198216Y364430D01*
X197582Y365256D01*
X196756Y365890D01*
X195795Y366288D01*
X194763Y366424D01*
D02*
G37*
G36*
X184763D02*
X183731Y366288D01*
X182770Y365890D01*
X181944Y365256D01*
X181310Y364430D01*
X180912Y363469D01*
X180776Y362437D01*
X180912Y361405D01*
X181310Y360443D01*
X181944Y359618D01*
X182770Y358984D01*
X183731Y358586D01*
X184763Y358450D01*
X185795Y358586D01*
X186757Y358984D01*
X187582Y359618D01*
X188216Y360443D01*
X188614Y361405D01*
X188750Y362437D01*
X188614Y363469D01*
X188216Y364430D01*
X187582Y365256D01*
X186757Y365890D01*
X185795Y366288D01*
X184763Y366424D01*
D02*
G37*
G36*
X174763D02*
X173731Y366288D01*
X172770Y365890D01*
X171944Y365256D01*
X171310Y364430D01*
X170912Y363469D01*
X170776Y362437D01*
X170912Y361405D01*
X171310Y360443D01*
X171944Y359618D01*
X172770Y358984D01*
X173731Y358586D01*
X174763Y358450D01*
X175795Y358586D01*
X176757Y358984D01*
X177582Y359618D01*
X178216Y360443D01*
X178614Y361405D01*
X178750Y362437D01*
X178614Y363469D01*
X178216Y364430D01*
X177582Y365256D01*
X176757Y365890D01*
X175795Y366288D01*
X174763Y366424D01*
D02*
G37*
G36*
X16000Y371834D02*
X14569Y371694D01*
X13193Y371276D01*
X11925Y370598D01*
X10814Y369686D01*
X9902Y368575D01*
X9224Y367307D01*
X8806Y365931D01*
X8665Y364500D01*
X8806Y363069D01*
X9224Y361693D01*
X9902Y360425D01*
X10814Y359314D01*
X11925Y358402D01*
X13193Y357724D01*
X14569Y357306D01*
X16000Y357166D01*
X17431Y357306D01*
X18807Y357724D01*
X20075Y358402D01*
X21186Y359314D01*
X22098Y360425D01*
X22776Y361693D01*
X23194Y363069D01*
X23335Y364500D01*
X23194Y365931D01*
X22776Y367307D01*
X22098Y368575D01*
X21186Y369686D01*
X20075Y370598D01*
X18807Y371276D01*
X17431Y371694D01*
X16000Y371834D01*
D02*
G37*
G36*
X62032Y358531D02*
X60486D01*
X60506Y358483D01*
X61147Y357647D01*
X61983Y357006D01*
X62032Y356986D01*
Y358531D01*
D02*
G37*
G36*
X364500Y371335D02*
X363069Y371194D01*
X361693Y370776D01*
X360425Y370098D01*
X359314Y369186D01*
X358402Y368075D01*
X357724Y366807D01*
X357306Y365431D01*
X357166Y364000D01*
X357306Y362569D01*
X357724Y361193D01*
X358402Y359925D01*
X359314Y358814D01*
X360425Y357902D01*
X361693Y357224D01*
X363069Y356806D01*
X364500Y356665D01*
X365931Y356806D01*
X367307Y357224D01*
X368575Y357902D01*
X369686Y358814D01*
X370598Y359925D01*
X371276Y361193D01*
X371694Y362569D01*
X371834Y364000D01*
X371694Y365431D01*
X371276Y366807D01*
X370598Y368075D01*
X369686Y369186D01*
X368575Y370098D01*
X367307Y370776D01*
X365931Y371194D01*
X364500Y371335D01*
D02*
G37*
G36*
X206732Y355900D02*
Y354405D01*
X208226D01*
X208216Y354430D01*
X207582Y355256D01*
X206757Y355890D01*
X206732Y355900D01*
D02*
G37*
G36*
X202795D02*
X202770Y355890D01*
X201944Y355256D01*
X201310Y354430D01*
X201300Y354405D01*
X202795D01*
Y355900D01*
D02*
G37*
G36*
X280263Y356924D02*
X279231Y356788D01*
X278270Y356390D01*
X277444Y355756D01*
X276810Y354930D01*
X276412Y353969D01*
X276276Y352937D01*
X276412Y351905D01*
X276810Y350943D01*
X277444Y350118D01*
X278270Y349484D01*
X279231Y349086D01*
X280263Y348950D01*
X281295Y349086D01*
X282257Y349484D01*
X283082Y350118D01*
X283716Y350943D01*
X284114Y351905D01*
X284250Y352937D01*
X284114Y353969D01*
X283716Y354930D01*
X283082Y355756D01*
X282257Y356390D01*
X281295Y356788D01*
X280263Y356924D01*
D02*
G37*
G36*
X70716Y340224D02*
X67984D01*
Y337492D01*
X70716D01*
Y340224D01*
D02*
G37*
G36*
X64047D02*
X61316D01*
Y337492D01*
X64047D01*
Y340224D01*
D02*
G37*
G36*
X186016Y339510D02*
X184984Y339375D01*
X184022Y338976D01*
X183197Y338343D01*
X182563Y337517D01*
X182165Y336556D01*
X182029Y335524D01*
X182165Y334492D01*
X182251Y334283D01*
X176238Y328270D01*
X175852Y327691D01*
X175716Y327008D01*
Y306649D01*
X175250D01*
Y296146D01*
X179750D01*
Y306649D01*
X179284D01*
Y326269D01*
X184775Y331759D01*
X184984Y331673D01*
X186016Y331537D01*
X187048Y331673D01*
X188009Y332071D01*
X188835Y332704D01*
X189469Y333530D01*
X189867Y334492D01*
X190003Y335524D01*
X189867Y336556D01*
X189469Y337517D01*
X188835Y338343D01*
X188009Y338976D01*
X187048Y339375D01*
X186016Y339510D01*
D02*
G37*
G36*
X176016D02*
X174984Y339375D01*
X174022Y338976D01*
X173197Y338343D01*
X172563Y337517D01*
X172165Y336556D01*
X172029Y335524D01*
X172165Y334492D01*
X172563Y333530D01*
X172702Y333350D01*
X171238Y331887D01*
X170852Y331308D01*
X170716Y330625D01*
Y306650D01*
X170250D01*
Y296146D01*
X174750D01*
Y306650D01*
X174284D01*
Y329886D01*
X175945Y331546D01*
X176016Y331537D01*
X177048Y331673D01*
X178009Y332071D01*
X178835Y332704D01*
X179469Y333530D01*
X179867Y334492D01*
X180003Y335524D01*
X179867Y336556D01*
X179469Y337517D01*
X178835Y338343D01*
X178009Y338976D01*
X177048Y339375D01*
X176016Y339510D01*
D02*
G37*
G36*
X70716Y333555D02*
X67984D01*
Y330824D01*
X70716D01*
Y333555D01*
D02*
G37*
G36*
X64047D02*
X61316D01*
Y330824D01*
X64047D01*
Y333555D01*
D02*
G37*
G36*
X339638Y342067D02*
X338361Y341941D01*
X337134Y341569D01*
X336002Y340964D01*
X335011Y340150D01*
X334197Y339159D01*
X333593Y338028D01*
X333220Y336800D01*
X333095Y335524D01*
X333220Y334247D01*
X333593Y333020D01*
X334197Y331888D01*
X335011Y330897D01*
X336002Y330083D01*
X337134Y329478D01*
X338361Y329106D01*
X339638Y328980D01*
X340914Y329106D01*
X342142Y329478D01*
X343273Y330083D01*
X344265Y330897D01*
X345078Y331888D01*
X345683Y333020D01*
X346055Y334247D01*
X346181Y335524D01*
X346055Y336800D01*
X345683Y338028D01*
X345078Y339159D01*
X344265Y340150D01*
X343273Y340964D01*
X342142Y341569D01*
X340914Y341941D01*
X339638Y342067D01*
D02*
G37*
G36*
X44362D02*
X43086Y341941D01*
X41858Y341569D01*
X40727Y340964D01*
X39735Y340150D01*
X38922Y339159D01*
X38317Y338028D01*
X37945Y336800D01*
X37819Y335524D01*
X37945Y334247D01*
X38317Y333020D01*
X38922Y331888D01*
X39735Y330897D01*
X40727Y330083D01*
X41858Y329478D01*
X43086Y329106D01*
X44362Y328980D01*
X45639Y329106D01*
X46866Y329478D01*
X47997Y330083D01*
X48989Y330897D01*
X49803Y331888D01*
X50407Y333020D01*
X50780Y334247D01*
X50906Y335524D01*
X50780Y336800D01*
X50407Y338028D01*
X49803Y339159D01*
X48989Y340150D01*
X47997Y340964D01*
X46866Y341569D01*
X45639Y341941D01*
X44362Y342067D01*
D02*
G37*
G36*
X17165Y324413D02*
X13212D01*
Y322035D01*
X17165D01*
Y324413D01*
D02*
G37*
G36*
X11244D02*
X7291D01*
Y322035D01*
X11244D01*
Y324413D01*
D02*
G37*
G36*
X17165Y320067D02*
X13212D01*
Y317689D01*
X17165D01*
Y320067D01*
D02*
G37*
G36*
X11244D02*
X7291D01*
Y317689D01*
X11244D01*
Y320067D01*
D02*
G37*
G36*
X11443Y305502D02*
X10668Y305400D01*
X9946Y305101D01*
X9326Y304625D01*
X8850Y304005D01*
X8551Y303283D01*
X8449Y302508D01*
X8551Y301733D01*
X8850Y301011D01*
X9326Y300391D01*
X9946Y299915D01*
X10668Y299616D01*
X11443Y299514D01*
X12218Y299616D01*
X12940Y299915D01*
X13560Y300391D01*
X14036Y301011D01*
X14335Y301733D01*
X14437Y302508D01*
X14335Y303283D01*
X14036Y304005D01*
X13560Y304625D01*
X12940Y305101D01*
X12218Y305400D01*
X11443Y305502D01*
D02*
G37*
G36*
X189750Y306649D02*
X185250D01*
Y296146D01*
X189750D01*
Y306649D01*
D02*
G37*
G36*
X166016Y339510D02*
X164984Y339375D01*
X164022Y338976D01*
X163197Y338343D01*
X162563Y337517D01*
X162165Y336556D01*
X162029Y335524D01*
X162165Y334492D01*
X162563Y333530D01*
X163197Y332704D01*
X164022Y332071D01*
X164984Y331673D01*
X165216Y331642D01*
Y301898D01*
X165250Y301725D01*
Y296146D01*
X169750D01*
Y306649D01*
X168784D01*
Y332666D01*
X168835Y332704D01*
X169468Y333530D01*
X169867Y334492D01*
X170003Y335524D01*
X169867Y336556D01*
X169468Y337517D01*
X168835Y338343D01*
X168009Y338976D01*
X167048Y339375D01*
X166016Y339510D01*
D02*
G37*
G36*
X11433Y274006D02*
X10658Y273904D01*
X9936Y273605D01*
X9316Y273129D01*
X8840Y272509D01*
X8541Y271787D01*
X8439Y271012D01*
X8541Y270237D01*
X8840Y269515D01*
X9316Y268895D01*
X9936Y268419D01*
X10658Y268120D01*
X11433Y268018D01*
X12208Y268120D01*
X12930Y268419D01*
X13550Y268895D01*
X14026Y269515D01*
X14325Y270237D01*
X14427Y271012D01*
X14325Y271787D01*
X14026Y272509D01*
X13550Y273129D01*
X12930Y273605D01*
X12208Y273904D01*
X11433Y274006D01*
D02*
G37*
G36*
X166516Y268854D02*
X165250D01*
Y264587D01*
X166516D01*
Y268854D01*
D02*
G37*
G36*
X17165Y263311D02*
X13212D01*
Y260933D01*
X17165D01*
Y263311D01*
D02*
G37*
G36*
X11244D02*
X7291D01*
Y260933D01*
X11244D01*
Y263311D01*
D02*
G37*
G36*
X186000Y294921D02*
X152961D01*
X152417Y294813D01*
X151956Y294505D01*
X145392Y287941D01*
X144764Y287816D01*
X144140Y287399D01*
X143724Y286775D01*
X143577Y286039D01*
X143724Y285304D01*
X144140Y284680D01*
X144764Y284263D01*
X145500Y284117D01*
X146236Y284263D01*
X146860Y284680D01*
X147276Y285304D01*
X147401Y285931D01*
X150134Y288664D01*
X150677Y288499D01*
X150724Y288264D01*
X151140Y287640D01*
X151764Y287224D01*
X152500Y287077D01*
X153236Y287224D01*
X153860Y287640D01*
X154276Y288264D01*
X154401Y288892D01*
X154415Y288905D01*
X181079D01*
Y268854D01*
X180250D01*
Y258350D01*
X184750D01*
Y268854D01*
X183921D01*
Y289865D01*
X183813Y290409D01*
X183505Y290870D01*
X183044Y291331D01*
X182672Y291579D01*
X182729Y292013D01*
X182755Y292079D01*
X185411D01*
X186079Y291411D01*
Y268854D01*
X185250D01*
Y258350D01*
X189750D01*
Y268854D01*
X188921D01*
Y292000D01*
X188813Y292544D01*
X188505Y293005D01*
X187005Y294505D01*
X186544Y294813D01*
X186000Y294921D01*
D02*
G37*
G36*
X165500Y287923D02*
X164764Y287776D01*
X164140Y287360D01*
X163724Y286736D01*
X163577Y286000D01*
X163724Y285264D01*
X164140Y284640D01*
X164764Y284224D01*
X165500Y284077D01*
X166236Y284224D01*
X166768Y284579D01*
X174411D01*
X176079Y282911D01*
Y268854D01*
X175250D01*
Y258350D01*
X179750D01*
Y268854D01*
X178921D01*
Y283500D01*
X178813Y284044D01*
X178505Y284505D01*
X176005Y287005D01*
X175544Y287313D01*
X175000Y287421D01*
X166768D01*
X166236Y287776D01*
X165500Y287923D01*
D02*
G37*
G36*
X166516Y262618D02*
X165250D01*
Y258350D01*
X166516D01*
Y262618D01*
D02*
G37*
G36*
X17165Y258965D02*
X13212D01*
Y256587D01*
X17165D01*
Y258965D01*
D02*
G37*
G36*
X11244D02*
X7291D01*
Y256587D01*
X11244D01*
Y258965D01*
D02*
G37*
G36*
X177237Y241532D02*
X175736Y240031D01*
X176583Y239185D01*
X178083Y240686D01*
X177237Y241532D01*
D02*
G37*
G36*
X179475Y239294D02*
X177974Y237793D01*
X178821Y236947D01*
X180321Y238447D01*
X179475Y239294D01*
D02*
G37*
G36*
X193441Y229211D02*
X190276D01*
Y227620D01*
X193441D01*
Y229211D01*
D02*
G37*
G36*
X339638Y220020D02*
X338361Y219894D01*
X337134Y219522D01*
X336002Y218917D01*
X335011Y218103D01*
X334197Y217112D01*
X333593Y215980D01*
X333220Y214753D01*
X333095Y213476D01*
X333220Y212200D01*
X333593Y210972D01*
X334197Y209841D01*
X335011Y208850D01*
X336002Y208036D01*
X337134Y207431D01*
X338361Y207059D01*
X339638Y206933D01*
X340914Y207059D01*
X342142Y207431D01*
X343273Y208036D01*
X344265Y208850D01*
X345078Y209841D01*
X345683Y210972D01*
X346055Y212200D01*
X346181Y213476D01*
X346055Y214753D01*
X345683Y215980D01*
X345078Y217112D01*
X344265Y218103D01*
X343273Y218917D01*
X342142Y219522D01*
X340914Y219894D01*
X339638Y220020D01*
D02*
G37*
G36*
X255500Y192987D02*
X254468Y192851D01*
X253507Y192453D01*
X252681Y191819D01*
X252047Y190993D01*
X251649Y190032D01*
X251513Y189000D01*
X251649Y187968D01*
X252047Y187007D01*
X252681Y186181D01*
X253507Y185547D01*
X254468Y185149D01*
X255500Y185013D01*
X256532Y185149D01*
X257493Y185547D01*
X258319Y186181D01*
X258953Y187007D01*
X259351Y187968D01*
X259487Y189000D01*
X259351Y190032D01*
X258953Y190993D01*
X258319Y191819D01*
X257493Y192453D01*
X256532Y192851D01*
X255500Y192987D01*
D02*
G37*
G36*
X245500D02*
X244468Y192851D01*
X243507Y192453D01*
X242681Y191819D01*
X242047Y190993D01*
X241649Y190032D01*
X241513Y189000D01*
X241649Y187968D01*
X242047Y187007D01*
X242681Y186181D01*
X243507Y185547D01*
X244468Y185149D01*
X245500Y185013D01*
X246532Y185149D01*
X247493Y185547D01*
X248319Y186181D01*
X248953Y187007D01*
X249351Y187968D01*
X249487Y189000D01*
X249351Y190032D01*
X248953Y190993D01*
X248319Y191819D01*
X247493Y192453D01*
X246532Y192851D01*
X245500Y192987D01*
D02*
G37*
G36*
X235500D02*
X234468Y192851D01*
X233507Y192453D01*
X232681Y191819D01*
X232047Y190993D01*
X231649Y190032D01*
X231513Y189000D01*
X231649Y187968D01*
X232047Y187007D01*
X232681Y186181D01*
X233507Y185547D01*
X234468Y185149D01*
X235500Y185013D01*
X236532Y185149D01*
X237493Y185547D01*
X238319Y186181D01*
X238953Y187007D01*
X239351Y187968D01*
X239487Y189000D01*
X239351Y190032D01*
X238953Y190993D01*
X238319Y191819D01*
X237493Y192453D01*
X236532Y192851D01*
X235500Y192987D01*
D02*
G37*
G36*
X225500D02*
X224468Y192851D01*
X223507Y192453D01*
X222681Y191819D01*
X222047Y190993D01*
X221649Y190032D01*
X221513Y189000D01*
X221649Y187968D01*
X222047Y187007D01*
X222681Y186181D01*
X223507Y185547D01*
X224468Y185149D01*
X225500Y185013D01*
X226532Y185149D01*
X227493Y185547D01*
X228319Y186181D01*
X228953Y187007D01*
X229351Y187968D01*
X229487Y189000D01*
X229351Y190032D01*
X228953Y190993D01*
X228319Y191819D01*
X227493Y192453D01*
X226532Y192851D01*
X225500Y192987D01*
D02*
G37*
G36*
X215500Y193035D02*
X214456Y192897D01*
X213483Y192494D01*
X212647Y191853D01*
X212006Y191017D01*
X211603Y190044D01*
X211466Y189000D01*
X211603Y187956D01*
X212006Y186983D01*
X212647Y186147D01*
X213483Y185506D01*
X214456Y185103D01*
X215500Y184966D01*
X216544Y185103D01*
X217517Y185506D01*
X218353Y186147D01*
X218994Y186983D01*
X219397Y187956D01*
X219534Y189000D01*
X219397Y190044D01*
X218994Y191017D01*
X218353Y191853D01*
X217517Y192494D01*
X216544Y192897D01*
X215500Y193035D01*
D02*
G37*
G36*
X205500D02*
X204456Y192897D01*
X203483Y192494D01*
X202647Y191853D01*
X202006Y191017D01*
X201603Y190044D01*
X201466Y189000D01*
X201603Y187956D01*
X202006Y186983D01*
X202647Y186147D01*
X203483Y185506D01*
X204456Y185103D01*
X205500Y184966D01*
X206544Y185103D01*
X207517Y185506D01*
X208353Y186147D01*
X208994Y186983D01*
X209397Y187956D01*
X209535Y189000D01*
X209397Y190044D01*
X208994Y191017D01*
X208353Y191853D01*
X207517Y192494D01*
X206544Y192897D01*
X205500Y193035D01*
D02*
G37*
G36*
X195500D02*
X194456Y192897D01*
X193483Y192494D01*
X192647Y191853D01*
X192006Y191017D01*
X191603Y190044D01*
X191465Y189000D01*
X191603Y187956D01*
X192006Y186983D01*
X192647Y186147D01*
X193483Y185506D01*
X194456Y185103D01*
X195500Y184966D01*
X196544Y185103D01*
X197517Y185506D01*
X198353Y186147D01*
X198994Y186983D01*
X199397Y187956D01*
X199534Y189000D01*
X199397Y190044D01*
X198994Y191017D01*
X198353Y191853D01*
X197517Y192494D01*
X196544Y192897D01*
X195500Y193035D01*
D02*
G37*
G36*
X185500D02*
X184456Y192897D01*
X183483Y192494D01*
X182647Y191853D01*
X182006Y191017D01*
X181603Y190044D01*
X181465Y189000D01*
X181603Y187956D01*
X182006Y186983D01*
X182647Y186147D01*
X183483Y185506D01*
X184456Y185103D01*
X185500Y184966D01*
X186544Y185103D01*
X187517Y185506D01*
X188353Y186147D01*
X188994Y186983D01*
X189397Y187956D01*
X189534Y189000D01*
X189397Y190044D01*
X188994Y191017D01*
X188353Y191853D01*
X187517Y192494D01*
X186544Y192897D01*
X185500Y193035D01*
D02*
G37*
G36*
X175500D02*
X174456Y192897D01*
X173483Y192494D01*
X172647Y191853D01*
X172006Y191017D01*
X171603Y190044D01*
X171466Y189000D01*
X171603Y187956D01*
X172006Y186983D01*
X172647Y186147D01*
X173483Y185506D01*
X174456Y185103D01*
X175500Y184966D01*
X176544Y185103D01*
X177517Y185506D01*
X178353Y186147D01*
X178994Y186983D01*
X179397Y187956D01*
X179534Y189000D01*
X179397Y190044D01*
X178994Y191017D01*
X178353Y191853D01*
X177517Y192494D01*
X176544Y192897D01*
X175500Y193035D01*
D02*
G37*
G36*
X165500D02*
X164456Y192897D01*
X163483Y192494D01*
X162647Y191853D01*
X162006Y191017D01*
X161603Y190044D01*
X161466Y189000D01*
X161603Y187956D01*
X162006Y186983D01*
X162647Y186147D01*
X163483Y185506D01*
X164456Y185103D01*
X165500Y184966D01*
X166544Y185103D01*
X167517Y185506D01*
X168353Y186147D01*
X168994Y186983D01*
X169397Y187956D01*
X169535Y189000D01*
X169397Y190044D01*
X168994Y191017D01*
X168353Y191853D01*
X167517Y192494D01*
X166544Y192897D01*
X165500Y193035D01*
D02*
G37*
G36*
X334969Y183432D02*
Y181512D01*
X336890D01*
X336797Y181735D01*
X336100Y182643D01*
X335192Y183340D01*
X334969Y183432D01*
D02*
G37*
G36*
X331032Y183432D02*
X330808Y183340D01*
X329901Y182643D01*
X329204Y181735D01*
X329111Y181512D01*
X331032D01*
Y183432D01*
D02*
G37*
G36*
Y177575D02*
X329111D01*
X329204Y177351D01*
X329901Y176443D01*
X330808Y175747D01*
X331032Y175654D01*
Y177575D01*
D02*
G37*
G36*
X336890D02*
X334969D01*
Y175654D01*
X335192Y175747D01*
X336100Y176443D01*
X336797Y177351D01*
X336890Y177575D01*
D02*
G37*
G36*
X342843Y183927D02*
X341708Y183778D01*
X340651Y183340D01*
X339743Y182643D01*
X339046Y181735D01*
X338608Y180678D01*
X338459Y179543D01*
X338608Y178408D01*
X339046Y177351D01*
X339743Y176443D01*
X340651Y175747D01*
X341708Y175309D01*
X342843Y175159D01*
X343978Y175309D01*
X345035Y175747D01*
X345943Y176443D01*
X346640Y177351D01*
X347078Y178408D01*
X347227Y179543D01*
X347078Y180678D01*
X346640Y181735D01*
X345943Y182643D01*
X345035Y183340D01*
X343978Y183778D01*
X342843Y183927D01*
D02*
G37*
G36*
X323158D02*
X322023Y183778D01*
X320966Y183340D01*
X320058Y182643D01*
X319361Y181735D01*
X318923Y180678D01*
X318774Y179543D01*
X318923Y178408D01*
X319361Y177351D01*
X320058Y176443D01*
X320966Y175747D01*
X322023Y175309D01*
X323158Y175159D01*
X324293Y175309D01*
X325350Y175747D01*
X326258Y176443D01*
X326955Y177351D01*
X327393Y178408D01*
X327542Y179543D01*
X327393Y180678D01*
X326955Y181735D01*
X326258Y182643D01*
X325350Y183340D01*
X324293Y183778D01*
X323158Y183927D01*
D02*
G37*
G36*
X354654Y157955D02*
X353160Y157758D01*
X351767Y157181D01*
X350571Y156263D01*
X349654Y155068D01*
X349077Y153675D01*
X348880Y152181D01*
Y147850D01*
X349077Y146356D01*
X349654Y144963D01*
X350571Y143767D01*
X351767Y142850D01*
X353160Y142273D01*
X354654Y142076D01*
X356148Y142273D01*
X357541Y142850D01*
X358737Y143767D01*
X359654Y144963D01*
X360231Y146356D01*
X360428Y147850D01*
Y152181D01*
X360231Y153675D01*
X359654Y155068D01*
X358737Y156263D01*
X357541Y157181D01*
X356148Y157758D01*
X354654Y157955D01*
D02*
G37*
G36*
X244985Y128211D02*
Y126610D01*
X246586D01*
X246555Y126685D01*
X245906Y127531D01*
X245060Y128180D01*
X244985Y128211D01*
D02*
G37*
G36*
X241048Y128211D02*
X240974Y128180D01*
X240127Y127531D01*
X239478Y126685D01*
X239447Y126610D01*
X241048D01*
Y128211D01*
D02*
G37*
G36*
X39127Y126329D02*
Y124425D01*
X40916D01*
X40783Y124746D01*
X40117Y125613D01*
X39251Y126278D01*
X39127Y126329D01*
D02*
G37*
G36*
X35190D02*
X35065Y126278D01*
X34198Y125613D01*
X33533Y124746D01*
X33400Y124425D01*
X35190D01*
Y126329D01*
D02*
G37*
G36*
X246586Y122673D02*
X244985D01*
Y121072D01*
X245060Y121103D01*
X245906Y121752D01*
X246555Y122599D01*
X246586Y122673D01*
D02*
G37*
G36*
X241048D02*
X239447D01*
X239478Y122599D01*
X240127Y121752D01*
X240974Y121103D01*
X241048Y121072D01*
Y122673D01*
D02*
G37*
G36*
X40916Y120488D02*
X39127D01*
Y118583D01*
X39251Y118635D01*
X40117Y119300D01*
X40783Y120167D01*
X40916Y120488D01*
D02*
G37*
G36*
X35190D02*
X33400D01*
X33533Y120167D01*
X34198Y119300D01*
X35065Y118635D01*
X35190Y118583D01*
Y120488D01*
D02*
G37*
G36*
X352201Y78807D02*
X350924Y78681D01*
X349697Y78309D01*
X348566Y77704D01*
X347574Y76891D01*
X346760Y75899D01*
X346156Y74768D01*
X345783Y73540D01*
X345657Y72264D01*
X345783Y70987D01*
X346156Y69760D01*
X346760Y68629D01*
X347574Y67637D01*
X348566Y66823D01*
X349697Y66219D01*
X350924Y65846D01*
X352201Y65720D01*
X353477Y65846D01*
X354705Y66219D01*
X355836Y66823D01*
X356828Y67637D01*
X357641Y68629D01*
X358246Y69760D01*
X358618Y70987D01*
X358744Y72264D01*
X358618Y73540D01*
X358246Y74768D01*
X357641Y75899D01*
X356828Y76891D01*
X355836Y77704D01*
X354705Y78309D01*
X353477Y78681D01*
X352201Y78807D01*
D02*
G37*
G36*
X314799D02*
X313523Y78681D01*
X312295Y78309D01*
X311164Y77704D01*
X310172Y76891D01*
X309359Y75899D01*
X308754Y74768D01*
X308382Y73540D01*
X308256Y72264D01*
X308382Y70987D01*
X308754Y69760D01*
X309359Y68629D01*
X310172Y67637D01*
X311164Y66823D01*
X312295Y66219D01*
X313523Y65846D01*
X314799Y65720D01*
X316076Y65846D01*
X317303Y66219D01*
X318435Y66823D01*
X319426Y67637D01*
X320240Y68629D01*
X320844Y69760D01*
X321217Y70987D01*
X321342Y72264D01*
X321217Y73540D01*
X320844Y74768D01*
X320240Y75899D01*
X319426Y76891D01*
X318435Y77704D01*
X317303Y78309D01*
X316076Y78681D01*
X314799Y78807D01*
D02*
G37*
G36*
X244985Y65211D02*
Y63610D01*
X246586D01*
X246555Y63685D01*
X245906Y64531D01*
X245060Y65180D01*
X244985Y65211D01*
D02*
G37*
G36*
X241048Y65211D02*
X240974Y65180D01*
X240127Y64531D01*
X239478Y63685D01*
X239447Y63610D01*
X241048D01*
Y65211D01*
D02*
G37*
G36*
X246586Y59673D02*
X244985D01*
Y58072D01*
X245060Y58103D01*
X245906Y58752D01*
X246555Y59599D01*
X246586Y59673D01*
D02*
G37*
G36*
X241048D02*
X239447D01*
X239478Y59599D01*
X240127Y58752D01*
X240974Y58103D01*
X241048Y58072D01*
Y59673D01*
D02*
G37*
G36*
X217426Y65728D02*
X216369Y65589D01*
X215383Y65180D01*
X214537Y64531D01*
X213887Y63685D01*
X213479Y62699D01*
X213340Y61642D01*
X213479Y60584D01*
X213887Y59599D01*
X214537Y58752D01*
X215383Y58103D01*
X216369Y57695D01*
X217426Y57556D01*
X218484Y57695D01*
X219469Y58103D01*
X220316Y58752D01*
X220965Y59599D01*
X221373Y60584D01*
X221512Y61642D01*
X221373Y62699D01*
X220965Y63685D01*
X220316Y64531D01*
X219469Y65180D01*
X218484Y65589D01*
X217426Y65728D01*
D02*
G37*
G36*
X173756Y51910D02*
X165654D01*
Y43807D01*
X173756D01*
Y51910D01*
D02*
G37*
G36*
X197264Y33711D02*
Y32110D01*
X198865D01*
X198834Y32185D01*
X198185Y33031D01*
X197338Y33680D01*
X197264Y33711D01*
D02*
G37*
G36*
X193327D02*
X193252Y33680D01*
X192406Y33031D01*
X191757Y32185D01*
X191726Y32110D01*
X193327D01*
Y33711D01*
D02*
G37*
G36*
X198865Y28173D02*
X197264D01*
Y26572D01*
X197338Y26603D01*
X198185Y27252D01*
X198834Y28099D01*
X198865Y28173D01*
D02*
G37*
G36*
X193327D02*
X191726D01*
X191757Y28099D01*
X192406Y27252D01*
X193252Y26603D01*
X193327Y26572D01*
Y28173D01*
D02*
G37*
G36*
X169705Y34228D02*
X168647Y34089D01*
X167662Y33680D01*
X166815Y33031D01*
X166166Y32185D01*
X165758Y31199D01*
X165619Y30142D01*
X165758Y29084D01*
X166166Y28099D01*
X166815Y27252D01*
X167662Y26603D01*
X168647Y26195D01*
X169705Y26056D01*
X170762Y26195D01*
X171748Y26603D01*
X172594Y27252D01*
X173243Y28099D01*
X173652Y29084D01*
X173791Y30142D01*
X173652Y31199D01*
X173243Y32185D01*
X172594Y33031D01*
X171748Y33680D01*
X170762Y34089D01*
X169705Y34228D01*
D02*
G37*
G36*
X14500Y25835D02*
X13069Y25694D01*
X11693Y25276D01*
X10425Y24598D01*
X9314Y23686D01*
X8402Y22575D01*
X7724Y21307D01*
X7306Y19931D01*
X7165Y18500D01*
X7306Y17069D01*
X7724Y15693D01*
X8402Y14425D01*
X9314Y13314D01*
X10425Y12402D01*
X11693Y11724D01*
X13069Y11306D01*
X14500Y11165D01*
X15931Y11306D01*
X17307Y11724D01*
X18575Y12402D01*
X19686Y13314D01*
X20598Y14425D01*
X21276Y15693D01*
X21694Y17069D01*
X21835Y18500D01*
X21694Y19931D01*
X21276Y21307D01*
X20598Y22575D01*
X19686Y23686D01*
X18575Y24598D01*
X17307Y25276D01*
X15931Y25694D01*
X14500Y25835D01*
D02*
G37*
G36*
X364500Y23834D02*
X363069Y23694D01*
X361693Y23276D01*
X360425Y22598D01*
X359314Y21686D01*
X358402Y20575D01*
X357724Y19307D01*
X357306Y17931D01*
X357166Y16500D01*
X357306Y15069D01*
X357724Y13693D01*
X358402Y12425D01*
X359314Y11314D01*
X360425Y10402D01*
X361693Y9724D01*
X363069Y9306D01*
X364500Y9166D01*
X365931Y9306D01*
X367307Y9724D01*
X368575Y10402D01*
X369686Y11314D01*
X370598Y12425D01*
X371276Y13693D01*
X371694Y15069D01*
X371834Y16500D01*
X371694Y17931D01*
X371276Y19307D01*
X370598Y20575D01*
X369686Y21686D01*
X368575Y22598D01*
X367307Y23276D01*
X365931Y23694D01*
X364500Y23834D01*
D02*
G37*
%LPD*%
G36*
X138941Y349237D02*
Y338891D01*
X138441Y338645D01*
X138009Y338976D01*
X137048Y339375D01*
X136016Y339510D01*
X134984Y339375D01*
X134022Y338976D01*
X133197Y338343D01*
X132882Y337933D01*
X132382Y338103D01*
Y342577D01*
X132382Y342578D01*
X132274Y343121D01*
X131966Y343582D01*
X131544Y344005D01*
X131544Y344005D01*
X127843Y347706D01*
X128126Y348130D01*
X128231Y348086D01*
X129263Y347950D01*
X130295Y348086D01*
X131256Y348484D01*
X132082Y349118D01*
X132716Y349943D01*
X132953Y350516D01*
X137663D01*
X138941Y349237D01*
D02*
G37*
G36*
X129534Y341995D02*
X129534Y341995D01*
X129540Y341989D01*
Y338245D01*
X129040Y338075D01*
X128835Y338343D01*
X128009Y338976D01*
X127048Y339375D01*
X126016Y339510D01*
X124984Y339375D01*
X124022Y338976D01*
X123197Y338343D01*
X122563Y337517D01*
X122283Y336842D01*
X121783Y336941D01*
Y340138D01*
X121675Y340682D01*
X121367Y341143D01*
X115996Y346514D01*
Y348966D01*
X116032Y348978D01*
X116496Y349078D01*
X117270Y348484D01*
X118231Y348086D01*
X119263Y347950D01*
X120295Y348086D01*
X121256Y348484D01*
X122082Y349118D01*
X122391Y349138D01*
X129534Y341995D01*
D02*
G37*
G36*
X112970Y349819D02*
X113154Y349728D01*
Y345925D01*
X113262Y345381D01*
X113570Y344920D01*
X118941Y339549D01*
Y338891D01*
X118441Y338645D01*
X118009Y338976D01*
X117048Y339375D01*
X116016Y339510D01*
X114984Y339375D01*
X114022Y338976D01*
X113197Y338343D01*
X112563Y337517D01*
X112283Y336842D01*
X111783Y336941D01*
Y348888D01*
X112082Y349118D01*
X112654Y349863D01*
X112970Y349819D01*
D02*
G37*
G36*
X237137Y355355D02*
X236810Y354930D01*
X236412Y353969D01*
X236276Y352937D01*
X236412Y351905D01*
X236810Y350943D01*
X237444Y350118D01*
X238270Y349484D01*
X238479Y349398D01*
Y338737D01*
X238599Y338131D01*
X238414Y337952D01*
X238187Y337836D01*
X234784Y341239D01*
Y346000D01*
Y355855D01*
X236890D01*
X237137Y355355D01*
D02*
G37*
G36*
X231216Y340500D02*
X231351Y339817D01*
X231738Y339238D01*
X233889Y337088D01*
X233697Y336626D01*
X226350D01*
Y335011D01*
X221426D01*
X221426Y335011D01*
X220743Y334875D01*
X220391Y334639D01*
X219924Y334929D01*
X220003Y335524D01*
X219867Y336556D01*
X219468Y337517D01*
X218835Y338343D01*
X218009Y338976D01*
X217048Y339375D01*
X216016Y339510D01*
X214984Y339375D01*
X214022Y338976D01*
X213197Y338343D01*
X212563Y337517D01*
X212165Y336556D01*
X212029Y335524D01*
X212165Y334492D01*
X212563Y333530D01*
X213197Y332704D01*
X214022Y332071D01*
X214714Y331784D01*
X214615Y331284D01*
X208929D01*
Y332827D01*
X209469Y333530D01*
X209867Y334492D01*
X210003Y335524D01*
X209867Y336556D01*
X209469Y337517D01*
X208835Y338343D01*
X208009Y338976D01*
X207048Y339375D01*
X206016Y339510D01*
X204984Y339375D01*
X204022Y338976D01*
X203197Y338343D01*
X202921Y337984D01*
X202421Y338153D01*
Y338500D01*
X202313Y339044D01*
X202005Y339505D01*
X202005Y339505D01*
X201774Y339735D01*
X201774Y339735D01*
X196749Y344761D01*
X196940Y345223D01*
X231216D01*
Y340500D01*
D02*
G37*
G36*
X203197Y332704D02*
X204022Y332071D01*
X204984Y331673D01*
X205360Y331623D01*
Y330234D01*
X205496Y329551D01*
X205883Y328972D01*
X206617Y328238D01*
X207196Y327852D01*
X207879Y327716D01*
X217700D01*
X218382Y327852D01*
X218961Y328238D01*
X222165Y331442D01*
X226331D01*
Y330508D01*
X226335Y330485D01*
X226332Y330461D01*
X226350Y330386D01*
Y329622D01*
X226331Y329524D01*
X226335Y329501D01*
X226332Y329477D01*
X226350Y329402D01*
Y325374D01*
X225975Y325074D01*
X201317D01*
X197950Y328440D01*
X201659Y332150D01*
X201664Y332145D01*
X201664Y332145D01*
X201859Y332399D01*
X201880Y332425D01*
X201988Y332567D01*
X202005Y332578D01*
X202183Y332821D01*
X202555Y333094D01*
X202847Y333160D01*
X203197Y332704D01*
D02*
G37*
G36*
X233650Y330508D02*
X230500Y331984D01*
X227350Y330508D01*
Y332476D01*
X233650D01*
Y330508D01*
D02*
G37*
G36*
Y329524D02*
X227350D01*
X230500Y331000D01*
X233650Y329524D01*
D02*
G37*
G36*
X92563Y333530D02*
X93197Y332704D01*
X94022Y332071D01*
X94984Y331673D01*
X96016Y331537D01*
X97048Y331673D01*
X98009Y332071D01*
X98835Y332704D01*
X99079Y333023D01*
X99579Y332853D01*
Y329589D01*
X95699Y325708D01*
X90371D01*
X90180Y326170D01*
X91367Y327357D01*
X91675Y327818D01*
X91783Y328362D01*
Y334106D01*
X92283Y334206D01*
X92563Y333530D01*
D02*
G37*
G36*
X257976Y324850D02*
X256500Y328000D01*
X257976Y331150D01*
Y324850D01*
D02*
G37*
G36*
X255516Y328000D02*
X256992Y324850D01*
X255024D01*
Y331150D01*
X256992D01*
X255516Y328000D01*
D02*
G37*
G36*
X248216Y322761D02*
Y321284D01*
X243500D01*
X242817Y321148D01*
X242238Y320762D01*
X242238Y320762D01*
X236738Y315262D01*
X236351Y314683D01*
X236216Y314000D01*
Y298739D01*
X233261Y295784D01*
X205085D01*
X204750Y296146D01*
Y304126D01*
X206963Y306339D01*
X209175Y304126D01*
X209401Y303901D01*
X209627Y303676D01*
X211071Y302231D01*
X213170Y304330D01*
X215269Y306429D01*
X213825Y307874D01*
X213599Y308099D01*
X213374Y308325D01*
X210779Y310919D01*
Y312506D01*
X210779Y312506D01*
X210643Y313188D01*
X210256Y313767D01*
X210256Y313767D01*
X207417Y316606D01*
X208323Y317511D01*
X204790Y321043D01*
X204982Y321505D01*
X229121D01*
X229804Y321641D01*
X230383Y322028D01*
X231262Y322906D01*
X231648Y323485D01*
X231784Y324168D01*
Y325340D01*
X235063D01*
X235394Y325009D01*
X235640Y324640D01*
X236264Y324224D01*
X237000Y324077D01*
X237736Y324224D01*
X238360Y324640D01*
X238776Y325264D01*
X238923Y326000D01*
X238776Y326736D01*
X238360Y327360D01*
X237736Y327776D01*
X237658Y327792D01*
X237064Y328386D01*
X236485Y328772D01*
X235803Y328908D01*
X234650D01*
Y329402D01*
X234668Y329477D01*
X234665Y329501D01*
X234669Y329524D01*
X234650Y329622D01*
Y330386D01*
X234668Y330461D01*
X234665Y330485D01*
X234669Y330508D01*
Y332476D01*
X234650Y332575D01*
Y335674D01*
X235111Y335865D01*
X248216Y322761D01*
D02*
G37*
G36*
X103197Y332704D02*
X104022Y332071D01*
X104984Y331673D01*
X106016Y331537D01*
X107048Y331673D01*
X108009Y332071D01*
X108441Y332402D01*
X108941Y332156D01*
Y326951D01*
X105911Y323921D01*
X98584D01*
X98392Y324383D01*
X102005Y327995D01*
X102313Y328456D01*
X102421Y329000D01*
Y332894D01*
X102921Y333064D01*
X103197Y332704D01*
D02*
G37*
G36*
X263479Y315034D02*
X262126D01*
Y323150D01*
X258098D01*
X258023Y323168D01*
X257999Y323165D01*
X257976Y323169D01*
X257878Y323150D01*
X257114D01*
X257039Y323168D01*
X257015Y323165D01*
X256992Y323169D01*
X255024D01*
X254925Y323150D01*
X252109D01*
X252019Y323372D01*
X252357Y323850D01*
X254925D01*
X255024Y323831D01*
X256992D01*
X257015Y323835D01*
X257039Y323832D01*
X257114Y323850D01*
X257878D01*
X257976Y323831D01*
X257999Y323835D01*
X258023Y323832D01*
X258098Y323850D01*
X262126D01*
Y332150D01*
X258098D01*
X258023Y332168D01*
X257999Y332165D01*
X257976Y332169D01*
X257878Y332150D01*
X257114D01*
X257039Y332168D01*
X257015Y332165D01*
X256992Y332169D01*
X255233D01*
Y333728D01*
X263479D01*
Y315034D01*
D02*
G37*
G36*
X122563Y333530D02*
X123197Y332704D01*
X124022Y332071D01*
X124984Y331673D01*
X126016Y331537D01*
X127048Y331673D01*
X128009Y332071D01*
X128835Y332704D01*
X129040Y332972D01*
X129540Y332802D01*
Y329550D01*
X122245Y322255D01*
X121783Y322446D01*
Y334106D01*
X122283Y334206D01*
X122563Y333530D01*
D02*
G37*
G36*
X112563D02*
X113197Y332704D01*
X114022Y332071D01*
X114984Y331673D01*
X116016Y331537D01*
X117048Y331673D01*
X118009Y332071D01*
X118441Y332402D01*
X118941Y332156D01*
Y299034D01*
X114633Y294726D01*
X114325Y294265D01*
X114217Y293721D01*
Y212226D01*
X99495Y197505D01*
X99187Y197044D01*
X99079Y196500D01*
Y152000D01*
X99187Y151456D01*
X99495Y150995D01*
X111479Y139012D01*
X111272Y138512D01*
X106032D01*
Y137131D01*
X81468D01*
Y138512D01*
X75532D01*
Y132181D01*
X75532D01*
Y131819D01*
X75532D01*
Y128012D01*
X71761Y124241D01*
X60792D01*
X60664Y124549D01*
X59999Y125416D01*
X59133Y126081D01*
X58123Y126499D01*
X57040Y126642D01*
X56646D01*
X55563Y126499D01*
X54553Y126081D01*
X53687Y125416D01*
X53022Y124549D01*
X52603Y123540D01*
X52516Y122878D01*
X51988Y122699D01*
X48496Y126191D01*
Y144710D01*
X48388Y145253D01*
X48080Y145714D01*
X29921Y163873D01*
Y304911D01*
X46089Y321079D01*
X46668D01*
Y319361D01*
X50424D01*
X54180D01*
Y321079D01*
X106500D01*
X107044Y321187D01*
X107505Y321495D01*
X111367Y325357D01*
X111675Y325818D01*
X111783Y326362D01*
Y334106D01*
X112283Y334206D01*
X112563Y333530D01*
D02*
G37*
G36*
X257976Y315850D02*
X256500Y319000D01*
X257976Y322150D01*
Y315850D01*
D02*
G37*
G36*
X255516Y319000D02*
X256992Y315850D01*
X255024D01*
Y322150D01*
X256992D01*
X255516Y319000D01*
D02*
G37*
G36*
X142563Y333530D02*
X143197Y332704D01*
X144022Y332071D01*
X144984Y331673D01*
X146016Y331537D01*
X147048Y331673D01*
X148009Y332071D01*
X148835Y332704D01*
X149079Y333023D01*
X149579Y332853D01*
Y322089D01*
X142245Y314755D01*
X141783Y314946D01*
Y334106D01*
X142283Y334206D01*
X142563Y333530D01*
D02*
G37*
G36*
X258476Y302850D02*
X257000Y306000D01*
X258476Y309150D01*
Y302850D01*
D02*
G37*
G36*
X256016Y306000D02*
X257492Y302850D01*
X255524D01*
Y309150D01*
X257492D01*
X256016Y306000D01*
D02*
G37*
G36*
X133197Y332704D02*
X134022Y332071D01*
X134984Y331673D01*
X136016Y331537D01*
X137048Y331673D01*
X138009Y332071D01*
X138441Y332402D01*
X138941Y332156D01*
Y313979D01*
X124670Y299708D01*
X124208Y299899D01*
Y320199D01*
X131966Y327956D01*
X132274Y328417D01*
X132382Y328961D01*
Y332944D01*
X132882Y333114D01*
X133197Y332704D01*
D02*
G37*
G36*
X198903Y319091D02*
X198816Y318627D01*
X198813Y318624D01*
X204124Y313313D01*
X204894Y314083D01*
X207210Y311766D01*
Y310919D01*
X206574Y310283D01*
X205923Y310154D01*
X205344Y309767D01*
X205344Y309767D01*
X202227Y306649D01*
X200250D01*
Y296644D01*
X200000Y296493D01*
X199750Y296644D01*
Y306650D01*
X199284D01*
Y308424D01*
X199819Y308958D01*
X199916Y309104D01*
X202755Y311943D01*
X197443Y317255D01*
X197530Y317719D01*
X197533Y317722D01*
X193643Y321612D01*
Y323644D01*
X194143Y323852D01*
X198903Y319091D01*
D02*
G37*
G36*
X258476Y292850D02*
X257000Y296000D01*
X258476Y299150D01*
Y292850D01*
D02*
G37*
G36*
X256016Y296000D02*
X257492Y292850D01*
X255524D01*
Y299150D01*
X257492D01*
X256016Y296000D01*
D02*
G37*
G36*
X250874Y315034D02*
X245250D01*
X244567Y314898D01*
X243988Y314512D01*
X241738Y312262D01*
X241352Y311683D01*
X241216Y311000D01*
Y296739D01*
X235261Y290784D01*
X196239D01*
X194284Y292739D01*
Y296146D01*
X194750D01*
Y306649D01*
X194284D01*
Y309500D01*
X194149Y310183D01*
X193762Y310762D01*
X193762Y310762D01*
X191784Y312739D01*
Y314367D01*
X192284Y314574D01*
X193335Y313524D01*
X193248Y313060D01*
X193245Y313057D01*
X196094Y310208D01*
X195852Y309846D01*
X195716Y309163D01*
Y306650D01*
X195250D01*
Y296146D01*
X195716D01*
Y295000D01*
X195852Y294317D01*
X196238Y293738D01*
X197238Y292738D01*
X197238Y292738D01*
X197817Y292352D01*
X198500Y292216D01*
X234000D01*
X234683Y292352D01*
X235262Y292738D01*
X239262Y296738D01*
X239262Y296738D01*
X239649Y297317D01*
X239784Y298000D01*
Y313261D01*
X244239Y317716D01*
X250874D01*
Y315034D01*
D02*
G37*
G36*
X264198Y288518D02*
Y285259D01*
X260065Y281126D01*
X257343D01*
X257205Y281153D01*
X257068Y281126D01*
X255350D01*
Y277075D01*
X255331Y276976D01*
Y275008D01*
X255335Y274985D01*
X255332Y274961D01*
X255350Y274886D01*
Y274233D01*
X254150D01*
Y274886D01*
X254168Y274961D01*
X254165Y274985D01*
X254169Y275008D01*
Y276976D01*
X254150Y277075D01*
Y281126D01*
X251921D01*
Y288079D01*
X260732D01*
X261264Y287724D01*
X262000Y287577D01*
X262736Y287724D01*
X263360Y288140D01*
X263698Y288648D01*
X264198Y288518D01*
D02*
G37*
G36*
X262650Y275008D02*
X259500Y276484D01*
X256350Y275008D01*
Y276976D01*
X262650D01*
X262650Y275008D01*
D02*
G37*
G36*
X253150D02*
X250000Y276484D01*
X246850Y275008D01*
Y276976D01*
X253150D01*
Y275008D01*
D02*
G37*
G36*
X262650Y274024D02*
X256350D01*
X259500Y275500D01*
X262650Y274024D01*
D02*
G37*
G36*
X253150D02*
X246850D01*
X250000Y275500D01*
X253150Y274024D01*
D02*
G37*
G36*
X215425Y233246D02*
X212276Y234722D01*
X218575D01*
X215425Y233246D01*
D02*
G37*
G36*
X204925D02*
X201776Y234722D01*
X208075D01*
X204925Y233246D01*
D02*
G37*
G36*
X194425D02*
X191276Y234722D01*
X197575D01*
X194425Y233246D01*
D02*
G37*
G36*
X218575Y231770D02*
X212276D01*
Y233738D01*
X215425Y232262D01*
X218575Y233738D01*
Y231770D01*
D02*
G37*
G36*
X208075D02*
X201776D01*
Y233738D01*
X204925Y232262D01*
X208075Y233738D01*
Y231770D01*
D02*
G37*
G36*
X197575D02*
X191276D01*
Y233738D01*
X194425Y232262D01*
X197575Y233738D01*
Y231770D01*
D02*
G37*
G36*
X221412Y246754D02*
X221510Y246607D01*
X222594Y245523D01*
Y227784D01*
X219575D01*
Y229211D01*
X215425D01*
Y230750D01*
X218575D01*
X218965Y230827D01*
X219296Y231049D01*
X219383Y231179D01*
X219575D01*
Y231671D01*
X219594Y231770D01*
Y233738D01*
X219590Y233761D01*
X219593Y233785D01*
X219575Y233860D01*
Y234624D01*
X219594Y234722D01*
X219590Y234746D01*
X219593Y234769D01*
X219575Y234844D01*
Y238872D01*
X219545D01*
Y241054D01*
X221958Y243468D01*
X218431Y246995D01*
Y249081D01*
X218893Y249272D01*
X221412Y246754D01*
D02*
G37*
G36*
X205909Y227620D02*
X208516D01*
Y226879D01*
X208651Y226196D01*
X209038Y225617D01*
X209871Y224784D01*
X209846Y224592D01*
X209697Y224284D01*
X201284D01*
Y227620D01*
X203941D01*
Y230195D01*
X205909D01*
Y227620D01*
D02*
G37*
G36*
X182730Y222246D02*
X182539Y221784D01*
X171239D01*
X168846Y224178D01*
Y231644D01*
X168743Y232159D01*
X170781Y234196D01*
X182730Y222246D01*
D02*
G37*
G36*
X149579Y197411D02*
Y190911D01*
X149079Y190812D01*
X148994Y191017D01*
X148353Y191853D01*
X147517Y192494D01*
X146544Y192897D01*
X145500Y193035D01*
X144456Y192897D01*
X143483Y192494D01*
X142647Y191853D01*
X142006Y191017D01*
X141603Y190044D01*
X141465Y189000D01*
X141603Y187956D01*
X142006Y186983D01*
X142647Y186147D01*
X143483Y185506D01*
X144456Y185103D01*
X145500Y184966D01*
X146544Y185103D01*
X147517Y185506D01*
X148353Y186147D01*
X148994Y186983D01*
X149079Y187188D01*
X149579Y187089D01*
Y175500D01*
X149687Y174956D01*
X149995Y174495D01*
X151895Y172596D01*
X151704Y172134D01*
X150376D01*
X143217Y179292D01*
X142756Y179600D01*
X142213Y179708D01*
X108421D01*
Y193911D01*
X120217Y205708D01*
X120525Y206169D01*
X120634Y206713D01*
Y225704D01*
X121096Y225895D01*
X149579Y197411D01*
D02*
G37*
G36*
X334079Y140411D02*
Y116000D01*
X334187Y115456D01*
X334495Y114995D01*
X340547Y108943D01*
Y103047D01*
X341558D01*
Y47341D01*
X340852Y47049D01*
X339821Y46257D01*
X339030Y45226D01*
X338691Y44409D01*
X338150D01*
X337812Y45226D01*
X337021Y46257D01*
X335989Y47049D01*
X335784Y47134D01*
Y103253D01*
X336493Y103547D01*
X337319Y104181D01*
X337953Y105007D01*
X338351Y105968D01*
X338487Y107000D01*
X338351Y108032D01*
X337953Y108993D01*
X337319Y109819D01*
X336493Y110453D01*
X335532Y110851D01*
X334500Y110987D01*
X333468Y110851D01*
X332507Y110453D01*
X331681Y109819D01*
X331213Y109789D01*
X325997Y115005D01*
X325536Y115313D01*
X324992Y115421D01*
X310481D01*
X309692Y116210D01*
Y141811D01*
X309702Y141841D01*
X310192Y142228D01*
X311347Y142076D01*
X312841Y142273D01*
X314234Y142850D01*
X315430Y143767D01*
X316347Y144963D01*
X316924Y146356D01*
X317121Y147850D01*
Y152181D01*
X316924Y153675D01*
X316347Y155068D01*
X315430Y156263D01*
X314234Y157181D01*
X312841Y157758D01*
X311347Y157955D01*
X309853Y157758D01*
X308460Y157181D01*
X307264Y156263D01*
X306347Y155068D01*
X305921Y154040D01*
X305421Y154139D01*
Y168416D01*
X305883Y168607D01*
X334079Y140411D01*
D02*
G37*
G36*
X223579Y163911D02*
Y138868D01*
X223117Y138677D01*
X221477Y140317D01*
Y146409D01*
X213375D01*
Y138307D01*
X219468D01*
X221792Y135983D01*
Y125995D01*
X221292Y125896D01*
X220965Y126685D01*
X220316Y127531D01*
X219469Y128180D01*
X218484Y128589D01*
X217426Y128728D01*
X216369Y128589D01*
X215383Y128180D01*
X214537Y127531D01*
X213887Y126685D01*
X213479Y125699D01*
X213340Y124642D01*
X213479Y123584D01*
X213887Y122599D01*
X214537Y121752D01*
X215383Y121103D01*
X216369Y120695D01*
X217426Y120556D01*
X218484Y120695D01*
X219469Y121103D01*
X220316Y121752D01*
X220965Y122599D01*
X221292Y123388D01*
X221792Y123288D01*
Y83779D01*
X221477Y83410D01*
X215385D01*
X211921Y86873D01*
Y165000D01*
X211813Y165544D01*
X211505Y166005D01*
X206892Y170617D01*
X207084Y171079D01*
X216411D01*
X223579Y163911D01*
D02*
G37*
G36*
X121903Y128588D02*
X121638Y128180D01*
X120652Y128589D01*
X119595Y128728D01*
X118537Y128589D01*
X117551Y128180D01*
X116705Y127531D01*
X116056Y126685D01*
X115683Y125784D01*
X114196D01*
X111969Y128012D01*
Y131681D01*
X111969Y131819D01*
Y132181D01*
X111969Y132319D01*
Y137815D01*
X112469Y138022D01*
X121903Y128588D01*
D02*
G37*
G36*
X102912Y196674D02*
X103169Y196452D01*
X103079Y196000D01*
Y178500D01*
X103187Y177956D01*
X103495Y177495D01*
X105495Y175495D01*
X105956Y175187D01*
X106500Y175079D01*
X137911D01*
X165036Y147954D01*
Y79043D01*
X165144Y78499D01*
X165452Y78038D01*
X172995Y70495D01*
X173456Y70187D01*
X174000Y70079D01*
X221000D01*
X221544Y70187D01*
X222005Y70495D01*
X223117Y71608D01*
X223579Y71416D01*
Y70589D01*
X222411Y69421D01*
X151543D01*
X150999Y69313D01*
X150539Y69005D01*
X147227Y65693D01*
X141144D01*
Y58625D01*
X123026D01*
X122780Y59125D01*
X123143Y59599D01*
X123552Y60584D01*
X123691Y61642D01*
X123552Y62699D01*
X123143Y63685D01*
X122494Y64531D01*
X121648Y65180D01*
X120662Y65589D01*
X119605Y65728D01*
X118547Y65589D01*
X117562Y65180D01*
X116715Y64531D01*
X116433Y64163D01*
X114317D01*
X111969Y66512D01*
Y70319D01*
X111969D01*
Y70681D01*
X111969D01*
Y77012D01*
X106032D01*
Y75631D01*
X96284D01*
Y133562D01*
X106032D01*
Y132319D01*
X106032Y132181D01*
Y131819D01*
X106032Y131681D01*
Y125488D01*
X109445D01*
X112195Y122738D01*
X112195Y122738D01*
X112774Y122352D01*
X113457Y122216D01*
X113457Y122216D01*
X116350D01*
X116705Y121752D01*
X117551Y121103D01*
X118537Y120695D01*
X119595Y120556D01*
X120652Y120695D01*
X121638Y121103D01*
X122484Y121752D01*
X123133Y122599D01*
X123541Y123584D01*
X123681Y124642D01*
X123541Y125699D01*
X123133Y126685D01*
X123540Y126950D01*
X126854Y123637D01*
X127314Y123329D01*
X127858Y123221D01*
X141134D01*
Y120591D01*
X149236D01*
Y128693D01*
X141134D01*
Y126063D01*
X128447D01*
X101921Y152589D01*
Y195911D01*
X102757Y196747D01*
X102912Y196674D01*
D02*
G37*
G36*
X71186Y101805D02*
Y76634D01*
X70686Y76455D01*
X70328Y76891D01*
X69337Y77704D01*
X68205Y78309D01*
X66978Y78681D01*
X65701Y78807D01*
X64425Y78681D01*
X63197Y78309D01*
X62066Y77704D01*
X61075Y76891D01*
X60261Y75899D01*
X59656Y74768D01*
X59284Y73540D01*
X59158Y72264D01*
X59284Y70987D01*
X59656Y69760D01*
X60261Y68629D01*
X61075Y67637D01*
X62066Y66823D01*
X63197Y66219D01*
X64425Y65846D01*
X65701Y65720D01*
X66978Y65846D01*
X68205Y66219D01*
X69337Y66823D01*
X70328Y67637D01*
X70686Y68073D01*
X71186Y67894D01*
Y44195D01*
X69911Y42921D01*
X61798D01*
X61652Y44025D01*
X61155Y45226D01*
X60364Y46257D01*
X59332Y47049D01*
X58627Y47341D01*
Y103047D01*
X60453D01*
Y110582D01*
X62408D01*
X71186Y101805D01*
D02*
G37*
G36*
X148783Y169708D02*
X149244Y169400D01*
X149787Y169292D01*
X204199D01*
X209079Y164411D01*
Y86284D01*
X209187Y85741D01*
X209495Y85280D01*
X213375Y81400D01*
Y75307D01*
X221477D01*
X221792Y74937D01*
Y74301D01*
X220411Y72921D01*
X174589D01*
X167878Y79631D01*
Y148543D01*
X167770Y149087D01*
X167462Y149548D01*
X140605Y176405D01*
X140796Y176866D01*
X141624D01*
X148783Y169708D01*
D02*
G37*
G36*
X106032Y70681D02*
X106032D01*
Y70319D01*
X106032D01*
Y63988D01*
X109445D01*
X112081Y61352D01*
X112238Y61117D01*
X112817Y60730D01*
X113500Y60594D01*
X115656D01*
X115658Y60584D01*
X116066Y59599D01*
X116430Y59125D01*
X116183Y58625D01*
X102399D01*
X96284Y64739D01*
Y72062D01*
X106032D01*
Y70681D01*
D02*
G37*
G36*
X330106Y106877D02*
X330567Y106569D01*
X330570Y106568D01*
X330649Y105968D01*
X331047Y105007D01*
X331681Y104181D01*
X332215Y103771D01*
Y47547D01*
X332211Y47546D01*
X331010Y47049D01*
X329978Y46257D01*
X329187Y45226D01*
X328849Y44409D01*
X328308D01*
X327970Y45226D01*
X327178Y46257D01*
X326147Y47049D01*
X325863Y47166D01*
Y103286D01*
X326493Y103547D01*
X327319Y104181D01*
X327953Y105007D01*
X328351Y105968D01*
X328487Y107000D01*
X328367Y107908D01*
X328724Y108143D01*
X328813Y108170D01*
X330106Y106877D01*
D02*
G37*
G36*
X75579Y99939D02*
Y44089D01*
X74350Y42860D01*
X74195Y42933D01*
X73938Y43155D01*
X74028Y43607D01*
X74028Y43607D01*
Y100837D01*
X74490Y101028D01*
X75579Y99939D01*
D02*
G37*
G36*
X52530Y40246D02*
X53321Y39215D01*
X54353Y38424D01*
X55554Y37926D01*
X56842Y37757D01*
X58131Y37926D01*
X59332Y38424D01*
X60364Y39215D01*
X61027Y40079D01*
X70500D01*
X70952Y40169D01*
X71174Y39912D01*
X71247Y39757D01*
X68411Y36921D01*
X48421D01*
Y37981D01*
X49490Y38424D01*
X50521Y39215D01*
X51313Y40246D01*
X51651Y41063D01*
X52192D01*
X52530Y40246D01*
D02*
G37*
G36*
X42687D02*
X43479Y39215D01*
X44510Y38424D01*
X45579Y37981D01*
Y35961D01*
X45687Y35418D01*
X45995Y34956D01*
X46457Y34495D01*
X46567Y34421D01*
X46416Y33921D01*
X38579D01*
Y37981D01*
X39647Y38424D01*
X40679Y39215D01*
X41470Y40246D01*
X41808Y41063D01*
X42349D01*
X42687Y40246D01*
D02*
G37*
%LPC*%
G36*
X216661Y305037D02*
X215258Y303634D01*
X216801Y302091D01*
X218204Y303494D01*
X216661Y305037D01*
D02*
G37*
G36*
X213866Y302242D02*
X212463Y300839D01*
X214006Y299296D01*
X215409Y300699D01*
X213866Y302242D01*
D02*
G37*
G36*
X54180Y317392D02*
X51408D01*
Y315014D01*
X54180D01*
Y317392D01*
D02*
G37*
G36*
X49440D02*
X46668D01*
Y315014D01*
X49440D01*
Y317392D01*
D02*
G37*
G36*
X80500Y317423D02*
X79764Y317276D01*
X79140Y316860D01*
X78724Y316236D01*
X78577Y315500D01*
X78724Y314764D01*
X79140Y314140D01*
X79744Y313737D01*
Y312421D01*
X77268D01*
X76736Y312776D01*
X76000Y312923D01*
X75264Y312776D01*
X74640Y312360D01*
X74224Y311736D01*
X74077Y311000D01*
X74224Y310264D01*
X74640Y309640D01*
X75264Y309224D01*
X76000Y309077D01*
X76736Y309224D01*
X77268Y309579D01*
X79744D01*
Y308299D01*
X87256D01*
Y314079D01*
X88244D01*
Y308299D01*
X95756D01*
Y314236D01*
X93421D01*
Y314500D01*
X93313Y315044D01*
X93005Y315505D01*
X92005Y316505D01*
X91544Y316813D01*
X91000Y316921D01*
X81768D01*
X81236Y317276D01*
X80500Y317423D01*
D02*
G37*
G36*
X95756Y306362D02*
X88244D01*
Y300425D01*
X89275D01*
Y298772D01*
X88775Y298362D01*
X88500Y298417D01*
X87817Y298281D01*
X87239Y297894D01*
X87202D01*
X86624Y298281D01*
X85941Y298417D01*
X85666Y298362D01*
X85166Y298772D01*
Y300425D01*
X87256D01*
Y306362D01*
X79744D01*
Y300425D01*
X81598D01*
Y298382D01*
X79073D01*
Y295108D01*
X80823D01*
Y293139D01*
X79073D01*
Y290899D01*
X72579D01*
X71321Y292158D01*
X70742Y292545D01*
X70059Y292681D01*
X57331D01*
Y297376D01*
Y301739D01*
X50213D01*
Y297011D01*
X45227D01*
X45227Y297011D01*
X44544Y296875D01*
X43965Y296489D01*
X43965Y296488D01*
X36238Y288762D01*
X35851Y288183D01*
X35716Y287500D01*
Y246965D01*
X35851Y246282D01*
X36238Y245703D01*
X39703Y242238D01*
X40282Y241851D01*
X40964Y241716D01*
X97000D01*
X97683Y241851D01*
X98262Y242238D01*
X102762Y246738D01*
X103148Y247317D01*
X103284Y248000D01*
Y268489D01*
X103148Y269172D01*
X102762Y269751D01*
X101883Y270629D01*
X101304Y271016D01*
X100621Y271152D01*
X97961D01*
Y271876D01*
X97961Y271879D01*
Y274386D01*
X97825Y275068D01*
X97439Y275647D01*
X96860Y276034D01*
X96177Y276169D01*
X95495Y276034D01*
X94916Y275647D01*
X94879D01*
X94301Y276034D01*
X93618Y276169D01*
X92936Y276034D01*
X92357Y275647D01*
X92320D01*
X92043Y275832D01*
Y275178D01*
X91970Y275068D01*
X91834Y274386D01*
Y271881D01*
X91833Y271876D01*
X90284D01*
Y274386D01*
X90148Y275068D01*
X90075Y275178D01*
Y275832D01*
X89798Y275647D01*
X89761D01*
X89183Y276034D01*
X88500Y276169D01*
X87817Y276034D01*
X87239Y275647D01*
X87202D01*
X86624Y276034D01*
X85941Y276169D01*
X85258Y276034D01*
X84680Y275647D01*
X84643D01*
X84065Y276034D01*
X83382Y276169D01*
X83275Y276148D01*
X83044Y276379D01*
X82906Y276585D01*
X82776Y277236D01*
X82360Y277860D01*
X81736Y278276D01*
X81000Y278423D01*
X80264Y278276D01*
X79640Y277860D01*
X79224Y277236D01*
X79077Y276500D01*
X79224Y275764D01*
X79432Y275453D01*
X79175Y275068D01*
X79039Y274386D01*
Y271538D01*
X76348D01*
X75804Y271430D01*
X75343Y271122D01*
X73709Y269489D01*
X71994Y271204D01*
X67796Y267006D01*
X68838Y265964D01*
X67791Y264917D01*
X66505Y266203D01*
X62029Y261727D01*
X61694Y261392D01*
X61194D01*
X57331Y265254D01*
Y267062D01*
Y271392D01*
Y275723D01*
Y276920D01*
X53772D01*
X50213D01*
Y275358D01*
X43879D01*
X43196Y275222D01*
X42617Y274835D01*
X41921Y274139D01*
X41421Y274346D01*
Y285098D01*
X41467Y285144D01*
X50213D01*
Y280054D01*
Y278888D01*
X53772D01*
X57331D01*
Y280451D01*
X85214D01*
X85897Y280586D01*
X86476Y280973D01*
X94879Y289376D01*
X94879Y289376D01*
X95064Y289653D01*
X95193Y289747D01*
Y289845D01*
X95266Y289955D01*
X95289Y290069D01*
X95402Y290638D01*
Y294121D01*
X95403Y294124D01*
X95402Y294126D01*
Y296633D01*
X95266Y297315D01*
X95193Y297425D01*
Y298079D01*
X94916Y297894D01*
X94879D01*
X94301Y298281D01*
X93618Y298417D01*
X93343Y298362D01*
X92843Y298772D01*
Y300425D01*
X95756D01*
Y306362D01*
D02*
G37*
G36*
X97161Y298079D02*
Y295108D01*
X97961D01*
Y296633D01*
X97825Y297315D01*
X97439Y297894D01*
X97161Y298079D01*
D02*
G37*
G36*
X97961Y293139D02*
X97161D01*
Y290168D01*
X97439Y290353D01*
X97825Y290932D01*
X97961Y291614D01*
Y293139D01*
D02*
G37*
G36*
X44362Y220020D02*
X43086Y219894D01*
X41858Y219522D01*
X40727Y218917D01*
X39735Y218103D01*
X38922Y217112D01*
X38317Y215980D01*
X37945Y214753D01*
X37819Y213476D01*
X37945Y212200D01*
X38317Y210972D01*
X38922Y209841D01*
X39735Y208850D01*
X40727Y208036D01*
X41858Y207431D01*
X43086Y207059D01*
X44362Y206933D01*
X45639Y207059D01*
X46866Y207431D01*
X47997Y208036D01*
X48989Y208850D01*
X49803Y209841D01*
X50407Y210972D01*
X50780Y212200D01*
X50906Y213476D01*
X50780Y214753D01*
X50407Y215980D01*
X49803Y217112D01*
X48989Y218103D01*
X47997Y218917D01*
X46866Y219522D01*
X45639Y219894D01*
X44362Y220020D01*
D02*
G37*
G36*
X48969Y183432D02*
Y181512D01*
X50890D01*
X50797Y181735D01*
X50100Y182643D01*
X49193Y183340D01*
X48969Y183432D01*
D02*
G37*
G36*
X45032D02*
X44809Y183340D01*
X43901Y182643D01*
X43204Y181735D01*
X43111Y181512D01*
X45032D01*
Y183432D01*
D02*
G37*
G36*
X50890Y177575D02*
X48969D01*
Y175654D01*
X49193Y175747D01*
X50100Y176443D01*
X50797Y177351D01*
X50890Y177575D01*
D02*
G37*
G36*
X45032D02*
X43111D01*
X43204Y177351D01*
X43901Y176443D01*
X44809Y175747D01*
X45032Y175654D01*
Y177575D01*
D02*
G37*
G36*
X56843Y183927D02*
X55708Y183778D01*
X54651Y183340D01*
X53743Y182643D01*
X53046Y181735D01*
X52608Y180678D01*
X52459Y179543D01*
X52608Y178408D01*
X53046Y177351D01*
X53743Y176443D01*
X54651Y175747D01*
X55708Y175309D01*
X56843Y175159D01*
X57978Y175309D01*
X59035Y175747D01*
X59943Y176443D01*
X60640Y177351D01*
X61078Y178408D01*
X61227Y179543D01*
X61078Y180678D01*
X60640Y181735D01*
X59943Y182643D01*
X59035Y183340D01*
X57978Y183778D01*
X56843Y183927D01*
D02*
G37*
G36*
X37158D02*
X36023Y183778D01*
X34966Y183340D01*
X34058Y182643D01*
X33361Y181735D01*
X32923Y180678D01*
X32774Y179543D01*
X32923Y178408D01*
X33361Y177351D01*
X34058Y176443D01*
X34966Y175747D01*
X36023Y175309D01*
X37158Y175159D01*
X38293Y175309D01*
X39350Y175747D01*
X40258Y176443D01*
X40955Y177351D01*
X41393Y178408D01*
X41542Y179543D01*
X41393Y180678D01*
X40955Y181735D01*
X40258Y182643D01*
X39350Y183340D01*
X38293Y183778D01*
X37158Y183927D01*
D02*
G37*
G36*
X68654Y157955D02*
X67160Y157758D01*
X65767Y157181D01*
X64571Y156263D01*
X63654Y155068D01*
X63077Y153675D01*
X62880Y152181D01*
Y147850D01*
X63077Y146356D01*
X63654Y144963D01*
X64571Y143767D01*
X65767Y142850D01*
X67160Y142273D01*
X68654Y142076D01*
X70148Y142273D01*
X71541Y142850D01*
X72737Y143767D01*
X73654Y144963D01*
X74231Y146356D01*
X74428Y147850D01*
Y152181D01*
X74231Y153675D01*
X73654Y155068D01*
X72737Y156263D01*
X71541Y157181D01*
X70148Y157758D01*
X68654Y157955D01*
D02*
G37*
%LPD*%
G36*
X50213Y287986D02*
X41217D01*
X41010Y288487D01*
X45966Y293443D01*
X50213D01*
Y287986D01*
D02*
G37*
G36*
X89275Y294121D02*
Y291614D01*
X89411Y290932D01*
X89484Y290822D01*
Y290168D01*
X89836Y290001D01*
X89917Y289461D01*
X84475Y284019D01*
X71012D01*
Y287008D01*
X71512Y287396D01*
X71841Y287331D01*
X71841Y287331D01*
X84677D01*
X85360Y287466D01*
X85938Y287853D01*
X87202Y289117D01*
X87202Y289117D01*
X87507Y289573D01*
X87516Y289584D01*
Y289586D01*
X87589Y289696D01*
X87612Y289809D01*
X87725Y290379D01*
Y294121D01*
X87725Y294124D01*
X89275D01*
X89275Y294121D01*
D02*
G37*
G36*
X96177Y267583D02*
X96177Y267583D01*
X96178Y267583D01*
X99716D01*
Y248739D01*
X96261Y245284D01*
X88947D01*
X88756Y245746D01*
X90505Y247495D01*
X90813Y247956D01*
X90921Y248500D01*
Y251665D01*
X91237Y252024D01*
X91412Y252031D01*
X93079D01*
Y251268D01*
X92724Y250736D01*
X92577Y250000D01*
X92724Y249264D01*
X93140Y248640D01*
X93764Y248224D01*
X94500Y248077D01*
X95236Y248224D01*
X95860Y248640D01*
X96276Y249264D01*
X96423Y250000D01*
X96276Y250736D01*
X95921Y251268D01*
Y252031D01*
X98756D01*
Y257968D01*
X91427D01*
X91244Y257968D01*
X90927Y258337D01*
Y258426D01*
X90819Y258970D01*
X90511Y259431D01*
X90049Y259893D01*
X89588Y260201D01*
X89045Y260309D01*
X88756D01*
Y263877D01*
X89000Y264077D01*
X89736Y264224D01*
X90360Y264640D01*
X90716Y265173D01*
X91159Y265113D01*
X91216Y265090D01*
Y262606D01*
X91244Y262464D01*
Y259906D01*
X98756D01*
Y265843D01*
X95239D01*
X95181Y265898D01*
X94987Y266342D01*
X95266Y266760D01*
X95368Y267273D01*
X95418Y267449D01*
X95902Y267638D01*
X96177Y267583D01*
D02*
G37*
G36*
X69767Y256456D02*
X70228Y256148D01*
X70772Y256040D01*
X79461D01*
X80004Y256148D01*
X80465Y256456D01*
X80782Y256773D01*
X81244Y256581D01*
Y251764D01*
X81244D01*
X81195Y251284D01*
X58158D01*
X57956Y251784D01*
X58276Y252264D01*
X58401Y252892D01*
X59900Y254391D01*
X61495Y252797D01*
X65971Y257273D01*
X65971Y257273D01*
X66227Y257529D01*
X66325Y257627D01*
X67461Y258762D01*
X69767Y256456D01*
D02*
G37*
G36*
X50213Y267062D02*
Y263944D01*
X46668D01*
Y261565D01*
X50424D01*
X54180D01*
Y262731D01*
X54808D01*
X58920Y258618D01*
X57297Y256995D01*
X57891Y256400D01*
X56392Y254901D01*
X55764Y254776D01*
X55140Y254360D01*
X54724Y253736D01*
X54577Y253000D01*
X54724Y252264D01*
X55044Y251784D01*
X54842Y251284D01*
X45239D01*
X44784Y251739D01*
Y271789D01*
X50213D01*
Y267062D01*
D02*
G37*
%LPC*%
G36*
X54180Y259597D02*
X51408D01*
Y257219D01*
X54180D01*
Y259597D01*
D02*
G37*
G36*
X49440D02*
X46668D01*
Y257219D01*
X49440D01*
Y259597D01*
D02*
G37*
G36*
X117469Y192514D02*
Y190969D01*
X119014D01*
X118994Y191017D01*
X118353Y191853D01*
X117517Y192494D01*
X117469Y192514D01*
D02*
G37*
G36*
X113531D02*
X113483Y192494D01*
X112647Y191853D01*
X112006Y191017D01*
X111986Y190969D01*
X113531D01*
Y192514D01*
D02*
G37*
G36*
X119014Y187031D02*
X117469D01*
Y185486D01*
X117517Y185506D01*
X118353Y186147D01*
X118994Y186983D01*
X119014Y187031D01*
D02*
G37*
G36*
X113531D02*
X111986D01*
X112006Y186983D01*
X112647Y186147D01*
X113483Y185506D01*
X113531Y185486D01*
Y187031D01*
D02*
G37*
G36*
X135500Y193035D02*
X134456Y192897D01*
X133483Y192494D01*
X132647Y191853D01*
X132006Y191017D01*
X131603Y190044D01*
X131465Y189000D01*
X131603Y187956D01*
X132006Y186983D01*
X132647Y186147D01*
X133483Y185506D01*
X134456Y185103D01*
X135500Y184966D01*
X136544Y185103D01*
X137517Y185506D01*
X138353Y186147D01*
X138994Y186983D01*
X139397Y187956D01*
X139534Y189000D01*
X139397Y190044D01*
X138994Y191017D01*
X138353Y191853D01*
X137517Y192494D01*
X136544Y192897D01*
X135500Y193035D01*
D02*
G37*
G36*
X125500D02*
X124456Y192897D01*
X123483Y192494D01*
X122647Y191853D01*
X122006Y191017D01*
X121603Y190044D01*
X121466Y189000D01*
X121603Y187956D01*
X122006Y186983D01*
X122647Y186147D01*
X123483Y185506D01*
X124456Y185103D01*
X125500Y184966D01*
X126544Y185103D01*
X127517Y185506D01*
X128353Y186147D01*
X128994Y186983D01*
X129397Y187956D01*
X129534Y189000D01*
X129397Y190044D01*
X128994Y191017D01*
X128353Y191853D01*
X127517Y192494D01*
X126544Y192897D01*
X125500Y193035D01*
D02*
G37*
G36*
X325127Y126329D02*
Y124425D01*
X326916D01*
X326783Y124746D01*
X326117Y125613D01*
X325251Y126278D01*
X325127Y126329D01*
D02*
G37*
G36*
X321189Y126329D02*
X321065Y126278D01*
X320198Y125613D01*
X319533Y124746D01*
X319400Y124425D01*
X321189D01*
Y126329D01*
D02*
G37*
G36*
X326916Y120488D02*
X325127D01*
Y118583D01*
X325251Y118635D01*
X326117Y119300D01*
X326783Y120167D01*
X326916Y120488D01*
D02*
G37*
G36*
X321189D02*
X319400D01*
X319533Y120167D01*
X320198Y119300D01*
X321065Y118635D01*
X321189Y118583D01*
Y120488D01*
D02*
G37*
G36*
X121563Y145928D02*
Y144327D01*
X123164D01*
X123133Y144401D01*
X122484Y145248D01*
X121638Y145897D01*
X121563Y145928D01*
D02*
G37*
G36*
X117626D02*
X117551Y145897D01*
X116705Y145248D01*
X116056Y144401D01*
X116025Y144327D01*
X117626D01*
Y145928D01*
D02*
G37*
G36*
X123164Y140390D02*
X121563D01*
Y138789D01*
X121638Y138820D01*
X122484Y139469D01*
X123133Y140315D01*
X123164Y140390D01*
D02*
G37*
G36*
X117626D02*
X116025D01*
X116056Y140315D01*
X116705Y139469D01*
X117551Y138820D01*
X117626Y138789D01*
Y140390D01*
D02*
G37*
G36*
X145185Y146444D02*
X144128Y146305D01*
X143142Y145897D01*
X142296Y145248D01*
X141646Y144401D01*
X141238Y143416D01*
X141099Y142358D01*
X141238Y141301D01*
X141646Y140315D01*
X142296Y139469D01*
X143142Y138820D01*
X144128Y138411D01*
X145185Y138272D01*
X146243Y138411D01*
X147228Y138820D01*
X148074Y139469D01*
X148724Y140315D01*
X149132Y141301D01*
X149271Y142358D01*
X149132Y143416D01*
X148724Y144401D01*
X148074Y145248D01*
X147228Y145897D01*
X146243Y146305D01*
X145185Y146444D01*
D02*
G37*
G36*
X121573Y82928D02*
Y81327D01*
X123174D01*
X123143Y81401D01*
X122494Y82248D01*
X121648Y82897D01*
X121573Y82928D01*
D02*
G37*
G36*
X117636D02*
X117562Y82897D01*
X116715Y82248D01*
X116066Y81401D01*
X116035Y81327D01*
X117636D01*
Y82928D01*
D02*
G37*
G36*
X123174Y77390D02*
X121573D01*
Y75789D01*
X121648Y75820D01*
X122494Y76469D01*
X123143Y77315D01*
X123174Y77390D01*
D02*
G37*
G36*
X117636D02*
X116035D01*
X116066Y77315D01*
X116715Y76469D01*
X117562Y75820D01*
X117636Y75789D01*
Y77390D01*
D02*
G37*
G36*
X145195Y83444D02*
X144138Y83305D01*
X143152Y82897D01*
X142306Y82248D01*
X141657Y81401D01*
X141248Y80416D01*
X141109Y79358D01*
X141248Y78301D01*
X141657Y77315D01*
X142306Y76469D01*
X143152Y75820D01*
X144138Y75411D01*
X145195Y75272D01*
X146253Y75411D01*
X147238Y75820D01*
X148085Y76469D01*
X148734Y77315D01*
X149142Y78301D01*
X149281Y79358D01*
X149142Y80416D01*
X148734Y81401D01*
X148085Y82248D01*
X147238Y82897D01*
X146253Y83305D01*
X145195Y83444D01*
D02*
G37*
%LPD*%
D13*
X200655Y333155D02*
G03*
X201000Y333583I-1829J1829D01*
G01*
X254130Y306181D02*
Y309727D01*
X151543Y68000D02*
X223000D01*
X145185Y61642D02*
X151543Y68000D01*
X166457Y79043D02*
Y148543D01*
X106500Y176500D02*
X138500D01*
X166457Y148543D01*
X142213Y178287D02*
X149787Y170713D01*
X204787D01*
X107461Y178287D02*
X142213D01*
X151000Y175500D02*
X154000Y172500D01*
X151000Y175500D02*
Y198000D01*
X154000Y172500D02*
X217000D01*
X250500Y279051D02*
Y289000D01*
X251000Y289500D02*
X262000D01*
X250000Y278551D02*
X250500Y279051D01*
X262000Y289234D02*
Y289500D01*
X248819Y279732D02*
X250000Y278551D01*
X250500Y289000D02*
X251000Y289500D01*
X259500Y278551D02*
X265619Y284671D01*
Y310539D01*
X258386Y278551D02*
X259500D01*
X80823Y271876D02*
X80911Y271965D01*
Y276411D01*
X81000Y276500D01*
X60634Y257134D02*
X61634D01*
X56500Y253000D02*
X60634Y257134D01*
X94500Y254500D02*
X95000Y255000D01*
X94500Y250000D02*
Y254500D01*
X92000Y311268D02*
Y314500D01*
X91000Y315500D02*
X92000Y314500D01*
X80500Y315500D02*
X91000D01*
X83232Y311000D02*
X83500Y311268D01*
X76000Y311000D02*
X83232D01*
X88500Y266766D02*
Y271876D01*
Y266766D02*
X89000Y266266D01*
Y266000D02*
Y266266D01*
X253949Y306000D02*
X254130Y306181D01*
X122787Y298343D02*
Y320787D01*
X115638Y211638D02*
Y293721D01*
X117425Y292981D02*
X122787Y298343D01*
X119213Y206713D02*
Y292240D01*
X121000Y291500D02*
X151000Y321500D01*
X115638Y293721D02*
X120362Y298446D01*
X117425Y208925D02*
Y292981D01*
X120362Y298446D02*
Y340138D01*
X140362Y313390D02*
Y349826D01*
X121000Y228000D02*
Y291500D01*
X151000Y321500D02*
Y355000D01*
X119213Y292240D02*
X140362Y313390D01*
X121000Y228000D02*
X151000Y198000D01*
X104500Y196000D02*
X117425Y208925D01*
X107000Y194500D02*
X119213Y206713D01*
X100500Y196500D02*
X115638Y211638D01*
X114575Y345925D02*
X120362Y340138D01*
X122787Y320787D02*
X130961Y328961D01*
X165500Y286000D02*
X175000D01*
X177500Y283500D01*
X182039Y290326D02*
X182500Y289865D01*
X152500Y289000D02*
X153826Y290326D01*
X182500Y263602D02*
Y289865D01*
X153826Y290326D02*
X182039D01*
X177500Y263602D02*
Y283500D01*
X145500Y286039D02*
X152961Y293500D01*
X186000D01*
X187500Y292000D01*
Y263602D02*
Y292000D01*
X138251Y351937D02*
X140362Y349826D01*
X129263Y351937D02*
X138251D01*
X78500Y128654D02*
X79154Y128000D01*
X83000D01*
X255403Y311000D02*
X265158D01*
X265619Y310539D01*
X286638Y373862D02*
X305000Y355500D01*
X304000Y146545D02*
X308271Y142274D01*
X305000Y355500D02*
X305539D01*
X306000Y355039D01*
X304000Y146545D02*
Y353972D01*
X302213Y144788D02*
X306484Y140516D01*
X306000Y170500D02*
X335500Y141000D01*
X306000Y170500D02*
Y355039D01*
X302213Y144788D02*
Y353232D01*
X285897Y372075D02*
X304000Y353972D01*
X285157Y370287D02*
X302213Y353232D01*
X308271Y115621D02*
X309892Y114000D01*
X324992D02*
X331111Y107882D01*
X308193Y112213D02*
X319287D01*
X306484Y113922D02*
X308193Y112213D01*
X306484Y113922D02*
Y140516D01*
X309892Y114000D02*
X324992D01*
X308271Y115621D02*
Y142274D01*
X319287Y112213D02*
X324500Y107000D01*
X331111Y107882D02*
X333618D01*
X334500Y107000D01*
X335500Y116000D02*
Y141000D01*
X225000Y70000D02*
Y164500D01*
X217000Y172500D02*
X225000Y164500D01*
X210500Y86284D02*
Y165000D01*
X204787Y170713D02*
X210500Y165000D01*
X130961Y328961D02*
Y342578D01*
X144063Y361937D02*
X151000Y355000D01*
X114575Y345925D02*
Y361075D01*
X115437Y361937D02*
X119263D01*
X114575Y361075D02*
X115437Y361937D01*
X130539Y343000D02*
X130539D01*
X119263Y351937D02*
X120229Y350971D01*
X122568D01*
X130539Y343000D01*
X130539D02*
X130961Y342578D01*
X100500Y152000D02*
Y196500D01*
X104500Y178500D02*
Y196000D01*
X107000Y178749D02*
Y194500D01*
Y178749D02*
X107461Y178287D01*
X104500Y178500D02*
X106500Y176500D01*
X127858Y124642D02*
X145185D01*
X100500Y152000D02*
X127858Y124642D01*
X217426Y142358D02*
X223213Y136572D01*
X221000Y71500D02*
X223213Y73713D01*
Y136572D01*
X223000Y68000D02*
X225000Y70000D01*
X174000Y71500D02*
X221000D01*
X166457Y79043D02*
X174000Y71500D01*
X210500Y86284D02*
X217426Y79358D01*
X101188Y373862D02*
X286638D01*
X108075Y372075D02*
X285897D01*
X117614Y370287D02*
X285157D01*
X89263Y361937D02*
X101188Y373862D01*
X99263Y363263D02*
X108075Y372075D01*
X109263Y361937D02*
X117614Y370287D01*
X129263Y361937D02*
X144063D01*
X41075Y326075D02*
X88075D01*
X90362Y328362D02*
Y348917D01*
X88075Y326075D02*
X90362Y328362D01*
X89263Y351937D02*
X90242Y350958D01*
Y349036D02*
X90362Y348917D01*
X90242Y349036D02*
Y350958D01*
X109263Y351937D02*
X110242Y350958D01*
Y349036D02*
Y350958D01*
X110362Y326362D02*
Y348917D01*
X110242Y349036D02*
X110362Y348917D01*
X101000Y329000D02*
Y350000D01*
X99263Y351737D02*
Y351937D01*
Y351737D02*
X101000Y350000D01*
X60500Y322500D02*
X106500D01*
X110362Y326362D01*
X45500Y322500D02*
X60500D01*
X28500Y305500D02*
X45500Y322500D01*
X25787Y307287D02*
X42787Y324287D01*
X24000Y309000D02*
X41075Y326075D01*
X96287Y324287D02*
X101000Y329000D01*
X42787Y324287D02*
X96287D01*
X25787Y163469D02*
Y307287D01*
X24000Y162729D02*
Y309000D01*
X37619Y32500D02*
X70500D01*
X78787Y40787D02*
Y101268D01*
X70500Y32500D02*
X78787Y40787D01*
X47461Y35500D02*
X69000D01*
X77000Y43500D02*
Y100528D01*
X69000Y35500D02*
X77000Y43500D01*
X72607Y43607D02*
Y102393D01*
X58079Y41500D02*
X70500D01*
X72607Y43607D01*
X37157Y32961D02*
Y42736D01*
Y32961D02*
X37619Y32500D01*
X47000Y35961D02*
Y42736D01*
Y35961D02*
X47461Y35500D01*
X56842Y42736D02*
X58079Y41500D01*
X64477Y115578D02*
X78787Y101268D01*
X63737Y113791D02*
X77000Y100528D01*
X54997Y112004D02*
X62997D01*
X43500Y123500D02*
Y143229D01*
Y123500D02*
X54997Y112004D01*
X28500Y163284D02*
X47075Y144710D01*
Y125602D02*
Y144710D01*
X25787Y163469D02*
X45287Y143969D01*
Y124862D02*
Y143969D01*
X24000Y162729D02*
X43500Y143229D01*
X45287Y124862D02*
X56359Y113791D01*
X47075Y125602D02*
X57099Y115578D01*
X28500Y163284D02*
Y305500D01*
X335500Y116000D02*
X344500Y107000D01*
X56359Y113791D02*
X63737D01*
X57099Y115578D02*
X64477D01*
X62997Y112004D02*
X72607Y102393D01*
X53941Y109559D02*
X56500Y107000D01*
X99263Y361937D02*
Y363263D01*
X257205Y279732D02*
X258386Y278551D01*
X254130Y309727D02*
X255403Y311000D01*
X265500Y189000D02*
Y194000D01*
X239500Y220000D02*
X265500Y194000D01*
X175000Y347000D02*
X175356Y346644D01*
X232356D01*
X233000Y346000D01*
X164763Y352437D02*
X172344Y344856D01*
X194644D01*
X200769Y338731D02*
Y338731D01*
X194644Y344856D02*
X200769Y338731D01*
X193000Y325500D02*
X200655Y333155D01*
X192222Y318835D02*
Y324722D01*
Y318835D02*
X192778Y318278D01*
X192222Y324722D02*
X193000Y325500D01*
X201000Y333583D02*
Y338500D01*
X200769Y338731D02*
X201000Y338500D01*
X89506Y252039D02*
Y258426D01*
X80888Y258888D02*
X89045D01*
X89506Y258426D01*
X79461Y257461D02*
X80888Y258888D01*
X66366Y261866D02*
X70772Y257461D01*
X79461D01*
X89500Y248500D02*
Y252033D01*
X89506Y252039D01*
X42000Y246000D02*
X87000D01*
X89500Y248500D01*
X40000Y285687D02*
X40879Y286565D01*
X40000Y248000D02*
Y285687D01*
Y248000D02*
X42000Y246000D01*
X40879Y286565D02*
X53772D01*
X72134Y266866D02*
X73097D01*
X76348Y270117D01*
X80822D01*
X80823Y270118D01*
Y271876D01*
X66366Y261866D02*
X66750D01*
X71750Y266866D01*
X72134D01*
X61121Y286533D02*
X61154Y286500D01*
X53805Y286533D02*
X61121D01*
X53772Y286565D02*
X53805Y286533D01*
D17*
X85000Y254732D02*
D03*
Y262606D02*
D03*
X95000Y262874D02*
D03*
Y255000D02*
D03*
X83500Y303394D02*
D03*
Y311268D02*
D03*
X92000Y303394D02*
D03*
Y311268D02*
D03*
D31*
X195295Y30142D02*
D03*
X169705D02*
D03*
X195295Y47858D02*
D03*
X243017Y79358D02*
D03*
X217426Y61642D02*
D03*
X243017D02*
D03*
X119605D02*
D03*
X145195Y79358D02*
D03*
X119605D02*
D03*
X243017Y142358D02*
D03*
X217426Y124642D02*
D03*
X243017D02*
D03*
X119595D02*
D03*
X145185Y142358D02*
D03*
X119595D02*
D03*
D32*
X169705Y47858D02*
D03*
X217426Y79358D02*
D03*
X145195Y61642D02*
D03*
X217426Y142358D02*
D03*
X145185Y124642D02*
D03*
D36*
X50424Y312124D02*
Y318377D01*
X50000Y311700D02*
X50424Y312124D01*
X88500Y289100D02*
Y294124D01*
X88300Y288900D02*
X88500Y289100D01*
X84677Y289115D02*
X85940Y290379D01*
X71841Y289115D02*
X84677D01*
X85940Y290379D02*
Y294123D01*
X85941Y294124D01*
X75576D02*
X80823D01*
X75200Y294500D02*
X75576Y294124D01*
X96177D02*
X101176D01*
X101200Y294100D01*
X83441Y275214D02*
X83636Y275408D01*
X83441Y274444D02*
Y275214D01*
X83636Y275408D02*
Y276936D01*
X83382Y274385D02*
X83441Y274444D01*
X83636Y276936D02*
X84600Y277900D01*
X85940Y267765D02*
Y271876D01*
X85941Y271876D01*
X91059Y277859D02*
X91100Y277900D01*
Y278100D01*
X91059Y271876D02*
Y277859D01*
X78448Y265853D02*
Y266048D01*
X76727Y262273D02*
X76866Y262134D01*
X76727Y262273D02*
Y263996D01*
X77280Y264549D01*
Y264686D01*
X78448Y265853D01*
Y266048D02*
X78500Y266100D01*
X199500Y222500D02*
X223500D01*
X185000D02*
X199500D01*
Y238422D01*
X163500Y244000D02*
X185000Y222500D01*
X224379Y223379D02*
Y246262D01*
X223500Y222500D02*
X224379Y223379D01*
X210300Y226879D02*
Y247340D01*
X209271Y248369D02*
X210300Y247340D01*
X211179Y226000D02*
X223500D01*
X210300Y226879D02*
X211179Y226000D01*
X223500D02*
X224200Y226700D01*
X167062Y223439D02*
X170500Y220000D01*
X239500D01*
X203450Y230020D02*
X204750D01*
X202800Y229370D02*
X203450Y230020D01*
X202800Y227600D02*
Y229370D01*
X215425Y230195D02*
X220395D01*
X220900Y230700D01*
X187705Y230195D02*
X194425D01*
X187300Y230600D02*
X187705Y230195D01*
X53772Y277904D02*
X58710D01*
X59055Y277559D01*
X67847Y286500D02*
X68914Y285433D01*
X72835D01*
X197500Y301398D02*
Y309163D01*
X255621Y41000D02*
X265000Y50379D01*
Y71000D01*
X261154Y74846D02*
X265000Y71000D01*
X254500Y74846D02*
X261154D01*
X265000Y71000D02*
X277000Y83000D01*
X265000Y71000D02*
Y71000D01*
X277000Y83000D02*
Y135346D01*
X180500Y41000D02*
X255621D01*
X178500Y57346D02*
X178654Y57500D01*
X178500Y43000D02*
Y57346D01*
Y43000D02*
X180500Y41000D01*
X94500Y64000D02*
X101660Y56840D01*
X94500Y64000D02*
Y74000D01*
X94654Y73846D01*
X109000D01*
X94500Y74000D02*
Y135346D01*
X125500Y265000D02*
Y285500D01*
X138500Y252000D02*
X163894D01*
X125500Y265000D02*
X138500Y252000D01*
X243000Y296000D02*
Y311000D01*
X236000Y289000D02*
X243000Y296000D01*
X195500Y289000D02*
X236000D01*
X223543Y250543D02*
X243000Y270000D01*
Y288500D02*
X250174Y295674D01*
X243000Y270000D02*
Y288500D01*
X250174Y295674D02*
Y308400D01*
X198500Y294000D02*
X234000D01*
X197500Y295000D02*
X198500Y294000D01*
X197500Y295000D02*
Y301398D01*
X233000Y346644D02*
Y356621D01*
Y346000D02*
Y346644D01*
X234000Y294000D02*
X238000Y298000D01*
X192500Y292000D02*
Y301398D01*
Y292000D02*
X195500Y289000D01*
X192500Y301398D02*
Y309500D01*
X243000Y311000D02*
X245250Y313250D01*
X250174Y308400D02*
X253124D01*
X254000Y217000D02*
X277000Y194000D01*
X254000Y217000D02*
Y272449D01*
X259500D01*
X250000D02*
X254000D01*
X277000Y135346D02*
Y194000D01*
X230325Y327124D02*
X235803D01*
X253774Y306175D02*
Y307750D01*
X253124Y308400D02*
X253774Y307750D01*
X230000Y327449D02*
X230325Y327124D01*
X235803D02*
X236927Y326000D01*
X237000D01*
X270263Y220737D02*
X293000Y198000D01*
X270263Y220737D02*
Y352937D01*
X260263D02*
X267763Y345437D01*
X253500Y335512D02*
X264384D01*
X265263Y314129D02*
Y334633D01*
X245250Y313250D02*
X264384D01*
X265263Y314129D01*
X267763Y218237D02*
X291500Y194500D01*
X264384Y335512D02*
X265263Y334633D01*
X267763Y218237D02*
Y345437D01*
X222771Y247869D02*
Y249036D01*
X363379Y34879D02*
Y113121D01*
X354044Y122456D02*
X363379Y113121D01*
X301000Y31879D02*
Y128654D01*
X301879Y31000D02*
X359500D01*
X301000Y31879D02*
X301879Y31000D01*
X359500D02*
X363379Y34879D01*
X342843Y122456D02*
X354044D01*
X101660Y56840D02*
X178191D01*
X70000Y346000D02*
Y364621D01*
Y346000D02*
X76016Y339984D01*
Y335524D02*
Y339984D01*
X64000Y337539D02*
X66016Y335524D01*
X64000Y337539D02*
Y360500D01*
X44000D02*
X49000Y365500D01*
X69121D01*
X70000Y364621D01*
X198903Y323289D02*
X229121D01*
X230000Y324168D02*
Y327449D01*
X229121Y323289D02*
X230000Y324168D01*
X198346Y323846D02*
X198903Y323289D01*
X163500Y251606D02*
X163894Y252000D01*
X163500Y244000D02*
Y251606D01*
X209271Y248369D02*
Y250092D01*
X222771Y247869D02*
X224379Y246262D01*
X197328Y240594D02*
Y248535D01*
X196771Y249092D02*
X197328Y248535D01*
Y240594D02*
X199500Y238422D01*
X233000Y340500D02*
Y346000D01*
X175000Y347000D02*
Y352200D01*
X174763Y352437D02*
X175000Y352200D01*
X207145Y330234D02*
X207879Y329500D01*
X217700D02*
X221426Y333226D01*
X229675D01*
X207145Y330234D02*
Y334395D01*
X206016Y335524D02*
X207145Y334395D01*
X207879Y329500D02*
X217700D01*
X229675Y333226D02*
X230500Y334051D01*
X250000Y319500D02*
Y323500D01*
X233000Y340500D02*
X250000Y323500D01*
Y319500D02*
X252949D01*
X243500D02*
X250000D01*
X240263Y338737D02*
X248600Y330400D01*
X240263Y338737D02*
Y352937D01*
X253449Y328000D02*
Y329575D01*
X252624Y330400D02*
X253449Y329575D01*
X248600Y330400D02*
X252624D01*
X253449Y329575D02*
Y335461D01*
X253500Y335512D01*
X238000Y298000D02*
Y314000D01*
X243500Y319500D01*
X252949D02*
X253274Y319175D01*
X234018Y357640D02*
X249621D01*
Y353579D02*
X250263Y352937D01*
X249621Y353579D02*
Y357640D01*
X233000Y356621D02*
X234018Y357640D01*
X166407Y232907D02*
X167062Y233561D01*
X166407Y232298D02*
Y232907D01*
Y232298D02*
X167062Y231644D01*
Y223439D02*
Y231644D01*
X217204Y244024D02*
X217760Y243468D01*
X216647Y244581D02*
X217204Y244024D01*
X215425Y236297D02*
X216936D01*
X217760Y237122D01*
Y243468D01*
X204260Y236962D02*
X204925Y236297D01*
X204260Y236962D02*
Y243968D01*
X203704Y244525D02*
X204260Y243968D01*
X202500Y263000D02*
Y263602D01*
Y263000D02*
X203000Y262500D01*
X209500D01*
X216647Y244581D02*
Y255353D01*
X209500Y262500D02*
X216647Y255353D01*
X197500Y255500D02*
Y263602D01*
X203147Y245081D02*
X203704Y244525D01*
X203147Y245081D02*
Y249853D01*
X197500Y255500D02*
X203147Y249853D01*
X194250Y236472D02*
Y240478D01*
X190647Y244081D02*
X194250Y240478D01*
X192500Y256500D02*
Y263602D01*
X190647Y244081D02*
Y254647D01*
X192500Y256500D01*
X171768Y252000D02*
X172000Y252232D01*
Y263102D02*
X172500Y263602D01*
X172000Y252232D02*
Y263102D01*
X171293Y243082D02*
X171947Y243737D01*
Y251820D01*
X171768Y252000D02*
X171947Y251820D01*
X203568Y318068D02*
Y318346D01*
X198346Y323568D02*
X203568Y318346D01*
X198346Y323568D02*
Y323846D01*
X208995Y308506D02*
X209134Y308366D01*
X208995Y308506D02*
X208995Y308506D01*
X203568Y317932D02*
Y318068D01*
Y317932D02*
X208995Y312506D01*
Y308506D02*
Y312506D01*
X202500Y301398D02*
Y304399D01*
X206606Y308506D01*
X208995D01*
X197500Y309163D02*
X198557Y310220D01*
Y311943D01*
X198000Y312500D02*
X198557Y311943D01*
X192778Y318278D02*
Y318278D01*
X190000Y315500D02*
X192778Y318278D01*
X190000Y312000D02*
Y315500D01*
Y312000D02*
X192500Y309500D01*
X182500Y301398D02*
Y322008D01*
X196016Y335524D01*
X167000Y301898D02*
X167500Y301398D01*
X167000Y301898D02*
Y334539D01*
X166016Y335524D02*
X167000Y334539D01*
X172500Y301398D02*
Y330625D01*
X176016Y334141D01*
Y335524D01*
X177500Y301398D02*
Y327008D01*
X186016Y335524D01*
X54000Y370500D02*
X71500D01*
X73500Y368500D01*
Y348500D02*
Y368500D01*
X86016Y335524D02*
Y335984D01*
X73500Y348500D02*
X86016Y335984D01*
X101500Y248000D02*
Y268489D01*
X97000Y243500D02*
X101500Y248000D01*
X96178Y269368D02*
X100621D01*
X101500Y268489D01*
X85121Y249500D02*
X86000Y250379D01*
X85000Y254732D02*
X86000Y253732D01*
X44500Y249500D02*
X85121D01*
X86000Y250379D02*
Y253732D01*
X43000Y251000D02*
X44500Y249500D01*
X43000Y251000D02*
Y272695D01*
X37500Y246965D02*
X40964Y243500D01*
X37500Y287500D02*
X45227Y295227D01*
X40964Y243500D02*
X97000D01*
X37500Y246965D02*
Y287500D01*
X43879Y273573D02*
X53772D01*
X43000Y272695D02*
X43879Y273573D01*
X53772Y264912D02*
X55150D01*
X61634Y258428D01*
Y257134D02*
Y258428D01*
X45227Y295227D02*
X53772D01*
X96177Y269368D02*
Y271876D01*
Y269368D02*
X96178Y269368D01*
X85214Y282235D02*
X93618Y290638D01*
X53772Y282235D02*
X85214D01*
X93618Y290638D02*
Y294123D01*
X93618Y294124D01*
X70059Y290896D02*
X71841Y289115D01*
X53772Y290896D02*
X70059D01*
X83382Y294124D02*
Y303276D01*
X83500Y303394D01*
X91059Y294124D02*
Y302453D01*
X92000Y303394D01*
X85000Y262606D02*
Y266825D01*
X85940Y267765D01*
X93000Y262606D02*
Y266825D01*
X93618Y267442D01*
Y271876D01*
X93618Y271876D01*
X277000Y135346D02*
X301000D01*
X254500D02*
X277000D01*
X94500D02*
X109000D01*
X78500D02*
X94500D01*
X36829Y43065D02*
X37157Y42736D01*
X36829Y43065D02*
Y106671D01*
X36500Y107000D02*
X36829Y106671D01*
X46750Y42986D02*
X47000Y42736D01*
X46750Y42986D02*
Y106750D01*
X46500Y107000D02*
X46750Y106750D01*
X56842Y42736D02*
Y106658D01*
X56500Y107000D02*
X56842Y106658D01*
X343342Y42736D02*
Y105842D01*
X344500Y107000D01*
X333500Y42736D02*
X334000Y43237D01*
Y106500D01*
X334500Y107000D01*
X323657Y42736D02*
X324078Y43158D01*
Y106579D01*
X324500Y107000D01*
X195000Y48154D02*
Y54121D01*
X185346Y57500D02*
X191621D01*
X195000Y54121D01*
Y48154D02*
X195295Y47858D01*
X113500Y62379D02*
Y62457D01*
X118858Y62379D02*
X119595Y61642D01*
X113500Y62379D02*
X118858D01*
X109000Y66957D02*
Y67154D01*
Y66957D02*
X113500Y62457D01*
X243017Y72983D02*
Y79358D01*
X247846Y68154D02*
X254500D01*
X243017Y72983D02*
X247846Y68154D01*
X243017Y132983D02*
Y142358D01*
Y132983D02*
X245500Y130500D01*
X254500Y128654D02*
Y128850D01*
X253281Y130069D02*
X254500Y128850D01*
X253085Y130069D02*
X253281D01*
X252654Y130500D02*
X253085Y130069D01*
X245500Y130500D02*
X252654D01*
X118953Y124000D02*
X119595Y124642D01*
X109000Y128457D02*
Y128654D01*
Y128457D02*
X113457Y124000D01*
X118953D01*
X56843Y122456D02*
X72500D01*
X78500Y128457D01*
Y128654D01*
D37*
X344500Y107000D02*
D03*
X89263Y361937D02*
D03*
X265500Y189000D02*
D03*
X56500Y107000D02*
D03*
X164763Y362437D02*
D03*
X240263Y362937D02*
D03*
D38*
X334500Y107000D02*
D03*
X324500D02*
D03*
X129263Y351937D02*
D03*
Y361937D02*
D03*
X119263Y351937D02*
D03*
Y361937D02*
D03*
X109263Y351937D02*
D03*
Y361937D02*
D03*
X99263Y351937D02*
D03*
Y361937D02*
D03*
X89263Y351937D02*
D03*
X76016Y335524D02*
D03*
X86016D02*
D03*
X96016D02*
D03*
X106016D02*
D03*
X116016D02*
D03*
X126016D02*
D03*
X136016D02*
D03*
X146016D02*
D03*
X156016D02*
D03*
X166016D02*
D03*
X176016D02*
D03*
X186016D02*
D03*
X196016D02*
D03*
X206016D02*
D03*
X216016D02*
D03*
X255500Y189000D02*
D03*
X245500D02*
D03*
X235500D02*
D03*
X225500D02*
D03*
X36500Y107000D02*
D03*
X46500D02*
D03*
X164763Y352437D02*
D03*
X174763Y362437D02*
D03*
Y352437D02*
D03*
X184763Y362437D02*
D03*
Y352437D02*
D03*
X194763Y362437D02*
D03*
Y352437D02*
D03*
X204763Y362437D02*
D03*
Y352437D02*
D03*
X240263Y352937D02*
D03*
X250263Y362937D02*
D03*
Y352937D02*
D03*
X260263Y362937D02*
D03*
Y352937D02*
D03*
X270263Y362937D02*
D03*
Y352937D02*
D03*
X280263Y362937D02*
D03*
Y352937D02*
D03*
D39*
X11443Y302508D02*
D03*
X11433Y271012D02*
D03*
D40*
X64000Y360500D02*
D03*
X54000Y370500D02*
D03*
X44000Y360500D02*
D03*
X215500Y189000D02*
D03*
X205500D02*
D03*
X195500D02*
D03*
X185500D02*
D03*
X175500D02*
D03*
X165500D02*
D03*
X155500D02*
D03*
X145500D02*
D03*
X135500D02*
D03*
X125500D02*
D03*
X115500D02*
D03*
D41*
X323657Y42736D02*
D03*
X333500D02*
D03*
X343342D02*
D03*
X56842D02*
D03*
X47000D02*
D03*
X37157D02*
D03*
D42*
X314799Y72264D02*
D03*
X352201D02*
D03*
X65701D02*
D03*
X28300D02*
D03*
D43*
X14500Y18500D02*
D03*
X364500Y364000D02*
D03*
X16000Y364500D02*
D03*
X364500Y16500D02*
D03*
D44*
X342843Y179543D02*
D03*
X333000D02*
D03*
X323158D02*
D03*
X37158D02*
D03*
X47001D02*
D03*
X56843D02*
D03*
D45*
X342843Y122456D02*
D03*
X56843D02*
D03*
D46*
X323158D02*
D03*
X37158D02*
D03*
D47*
X354654Y150015D02*
D03*
X311347D02*
D03*
X25347D02*
D03*
X68654D02*
D03*
D48*
X66016Y335524D02*
D03*
D49*
X44362D02*
D03*
Y213476D02*
D03*
X339638Y335524D02*
D03*
Y213476D02*
D03*
D50*
X72300Y285200D02*
D03*
X78500Y266100D02*
D03*
X170900Y231900D02*
D03*
X180800Y222900D02*
D03*
X172100Y225800D02*
D03*
X202800Y227600D02*
D03*
X189100Y231300D02*
D03*
X220700D02*
D03*
X372441Y337008D02*
D03*
Y313386D02*
D03*
Y289764D02*
D03*
Y266142D02*
D03*
Y242520D02*
D03*
Y218898D02*
D03*
Y195275D02*
D03*
Y171653D02*
D03*
Y148031D02*
D03*
Y124409D02*
D03*
Y100787D02*
D03*
Y77165D02*
D03*
Y53543D02*
D03*
Y29921D02*
D03*
Y6299D02*
D03*
X366535Y348819D02*
D03*
X360630Y337008D02*
D03*
X366535Y325197D02*
D03*
X360630Y313386D02*
D03*
X366535Y301575D02*
D03*
X360630Y289764D02*
D03*
X366535Y277953D02*
D03*
X360630Y266142D02*
D03*
X366535Y254331D02*
D03*
X360630Y242520D02*
D03*
X366535Y230709D02*
D03*
X360630Y218898D02*
D03*
X366535Y207086D02*
D03*
X360630Y195275D02*
D03*
X366535Y183465D02*
D03*
X360630Y171653D02*
D03*
X366535Y159842D02*
D03*
Y136220D02*
D03*
X360630Y124409D02*
D03*
Y6299D02*
D03*
X354724Y372441D02*
D03*
X348819Y360630D02*
D03*
X354724Y348819D02*
D03*
X348819Y337008D02*
D03*
X354724Y325197D02*
D03*
X348819Y313386D02*
D03*
X354724Y301575D02*
D03*
Y159842D02*
D03*
Y136220D02*
D03*
X348819Y100787D02*
D03*
Y53543D02*
D03*
X354724Y41732D02*
D03*
Y18110D02*
D03*
X348819Y6299D02*
D03*
X342913Y372441D02*
D03*
X337008Y360630D02*
D03*
X342913Y325197D02*
D03*
X337008Y313386D02*
D03*
Y289764D02*
D03*
X342913Y277953D02*
D03*
X337008Y266142D02*
D03*
X342913Y254331D02*
D03*
X337008Y242520D02*
D03*
X342913Y230709D02*
D03*
X337008Y171653D02*
D03*
Y148031D02*
D03*
X342913Y18110D02*
D03*
X337008Y6299D02*
D03*
X331102Y372441D02*
D03*
X325197Y360630D02*
D03*
X331102Y348819D02*
D03*
X325197Y337008D02*
D03*
X331102Y325197D02*
D03*
X325197Y289764D02*
D03*
X331102Y277953D02*
D03*
X325197Y266142D02*
D03*
X331102Y254331D02*
D03*
X325197Y242520D02*
D03*
X331102Y230709D02*
D03*
X325197Y218898D02*
D03*
X331102Y207086D02*
D03*
X325197Y171653D02*
D03*
X331102Y159842D02*
D03*
Y136220D02*
D03*
Y112598D02*
D03*
Y18110D02*
D03*
X325197Y6299D02*
D03*
X319291Y372441D02*
D03*
X313386Y360630D02*
D03*
Y337008D02*
D03*
Y313386D02*
D03*
X319291Y301575D02*
D03*
X313386Y289764D02*
D03*
X319291Y277953D02*
D03*
X313386Y266142D02*
D03*
X319291Y254331D02*
D03*
X313386Y242520D02*
D03*
X319291Y230709D02*
D03*
X313386Y218898D02*
D03*
X319291Y207086D02*
D03*
X313386Y171653D02*
D03*
X319291Y136220D02*
D03*
X313386Y124409D02*
D03*
Y100787D02*
D03*
X319291Y88976D02*
D03*
Y18110D02*
D03*
X313386Y6299D02*
D03*
X307480Y372441D02*
D03*
Y159842D02*
D03*
Y88976D02*
D03*
Y65354D02*
D03*
Y18110D02*
D03*
X301575Y6299D02*
D03*
X295669Y372441D02*
D03*
Y348819D02*
D03*
X289764Y337008D02*
D03*
X295669Y325197D02*
D03*
X289764Y313386D02*
D03*
X295669Y301575D02*
D03*
X289764Y289764D02*
D03*
X295669Y277953D02*
D03*
X289764Y266142D02*
D03*
X295669Y254331D02*
D03*
X289764Y242520D02*
D03*
X295669Y230709D02*
D03*
X289764Y218898D02*
D03*
X295669Y207086D02*
D03*
Y183465D02*
D03*
X289764Y171653D02*
D03*
X295669Y159842D02*
D03*
X289764Y148031D02*
D03*
Y124409D02*
D03*
X295669Y112598D02*
D03*
X289764Y100787D02*
D03*
X295669Y88976D02*
D03*
X289764Y77165D02*
D03*
X295669Y65354D02*
D03*
X289764Y53543D02*
D03*
Y29921D02*
D03*
X295669Y18110D02*
D03*
X289764Y6299D02*
D03*
X283858Y159842D02*
D03*
Y112598D02*
D03*
Y88976D02*
D03*
X277953Y77165D02*
D03*
X283858Y65354D02*
D03*
X277953Y53543D02*
D03*
Y29921D02*
D03*
X283858Y18110D02*
D03*
X277953Y6299D02*
D03*
X266142Y171653D02*
D03*
Y148031D02*
D03*
Y124409D02*
D03*
Y100787D02*
D03*
X272047Y88976D02*
D03*
Y65354D02*
D03*
X266142Y29921D02*
D03*
X272047Y18110D02*
D03*
X266142Y6299D02*
D03*
X260236Y254331D02*
D03*
Y230709D02*
D03*
Y183465D02*
D03*
X254331Y171653D02*
D03*
X260236Y159842D02*
D03*
X254331Y148031D02*
D03*
X260236Y88976D02*
D03*
Y65354D02*
D03*
X254331Y53543D02*
D03*
Y29921D02*
D03*
X260236Y18110D02*
D03*
X254331Y6299D02*
D03*
X248425Y183465D02*
D03*
X242520Y171653D02*
D03*
X248425Y159842D02*
D03*
Y136220D02*
D03*
Y112598D02*
D03*
X242520Y100787D02*
D03*
Y53543D02*
D03*
Y29921D02*
D03*
X248425Y18110D02*
D03*
X242520Y6299D02*
D03*
X230709Y266142D02*
D03*
Y242520D02*
D03*
Y195275D02*
D03*
Y171653D02*
D03*
X236614Y159842D02*
D03*
X230709Y148031D02*
D03*
X236614Y136220D02*
D03*
X230709Y124409D02*
D03*
X236614Y112598D02*
D03*
X230709Y100787D02*
D03*
Y77165D02*
D03*
X236614Y65354D02*
D03*
X230709Y53543D02*
D03*
Y29921D02*
D03*
X236614Y18110D02*
D03*
X230709Y6299D02*
D03*
X218898Y360630D02*
D03*
Y100787D02*
D03*
X224803Y65354D02*
D03*
X218898Y53543D02*
D03*
Y29921D02*
D03*
X224803Y18110D02*
D03*
X218898Y6299D02*
D03*
X212992Y183465D02*
D03*
X207086Y148031D02*
D03*
Y124409D02*
D03*
Y100787D02*
D03*
Y77165D02*
D03*
Y53543D02*
D03*
Y29921D02*
D03*
X212992Y18110D02*
D03*
X207086Y6299D02*
D03*
X201181Y277953D02*
D03*
Y207086D02*
D03*
Y183465D02*
D03*
Y159842D02*
D03*
X195275Y148031D02*
D03*
X201181Y136220D02*
D03*
X195275Y124409D02*
D03*
X201181Y112598D02*
D03*
X195275Y100787D02*
D03*
Y77165D02*
D03*
X201181Y18110D02*
D03*
X195275Y6299D02*
D03*
X189370Y207086D02*
D03*
Y183465D02*
D03*
Y159842D02*
D03*
X183465Y148031D02*
D03*
X189370Y136220D02*
D03*
X183465Y124409D02*
D03*
X189370Y112598D02*
D03*
X183465Y77165D02*
D03*
Y29921D02*
D03*
X189370Y18110D02*
D03*
X183465Y6299D02*
D03*
X171653Y195275D02*
D03*
X177559Y183465D02*
D03*
Y159842D02*
D03*
X171653Y148031D02*
D03*
Y124409D02*
D03*
X177559Y18110D02*
D03*
X171653Y6299D02*
D03*
X159842Y266142D02*
D03*
Y242520D02*
D03*
Y218898D02*
D03*
Y195275D02*
D03*
X165748Y159842D02*
D03*
X159842Y148031D02*
D03*
Y124409D02*
D03*
Y100787D02*
D03*
Y77165D02*
D03*
Y29921D02*
D03*
X165748Y18110D02*
D03*
X159842Y6299D02*
D03*
X148031Y148031D02*
D03*
X153937Y136220D02*
D03*
Y112598D02*
D03*
X148031Y100787D02*
D03*
X153937Y41732D02*
D03*
X148031Y29921D02*
D03*
X153937Y18110D02*
D03*
X148031Y6299D02*
D03*
X142126Y183465D02*
D03*
X136220Y171653D02*
D03*
X142126Y159842D02*
D03*
X136220Y148031D02*
D03*
X142126Y136220D02*
D03*
Y112598D02*
D03*
X136220Y100787D02*
D03*
Y77165D02*
D03*
X142126Y41732D02*
D03*
X136220Y29921D02*
D03*
X142126Y18110D02*
D03*
X136220Y6299D02*
D03*
X130315Y277953D02*
D03*
Y254331D02*
D03*
Y230709D02*
D03*
Y207086D02*
D03*
X124409Y171653D02*
D03*
X130315Y159842D02*
D03*
X124409Y148031D02*
D03*
X130315Y136220D02*
D03*
Y112598D02*
D03*
X124409Y100787D02*
D03*
X130315Y65354D02*
D03*
Y41732D02*
D03*
X124409Y29921D02*
D03*
X130315Y18110D02*
D03*
X124409Y6299D02*
D03*
X112598Y195275D02*
D03*
X118504Y183465D02*
D03*
X112598Y171653D02*
D03*
X118504Y159842D02*
D03*
X112598Y148031D02*
D03*
X118504Y112598D02*
D03*
Y41732D02*
D03*
X112598Y29921D02*
D03*
X118504Y18110D02*
D03*
X112598Y6299D02*
D03*
X106693Y277953D02*
D03*
Y254331D02*
D03*
Y230709D02*
D03*
X100787Y218898D02*
D03*
Y124409D02*
D03*
Y100787D02*
D03*
X106693Y88976D02*
D03*
Y41732D02*
D03*
X100787Y29921D02*
D03*
X106693Y18110D02*
D03*
X100787Y6299D02*
D03*
X94882Y230709D02*
D03*
X88976Y218898D02*
D03*
X94882Y207086D02*
D03*
X88976Y195275D02*
D03*
Y171653D02*
D03*
X94882Y159842D02*
D03*
X88976Y148031D02*
D03*
Y100787D02*
D03*
Y77165D02*
D03*
Y53543D02*
D03*
X94882Y41732D02*
D03*
X88976Y29921D02*
D03*
X94882Y18110D02*
D03*
X88976Y6299D02*
D03*
X83071Y348819D02*
D03*
Y230709D02*
D03*
X77165Y218898D02*
D03*
X83071Y207086D02*
D03*
Y183465D02*
D03*
X77165Y171653D02*
D03*
X83071Y159842D02*
D03*
X77165Y148031D02*
D03*
X83071Y112598D02*
D03*
Y88976D02*
D03*
Y65354D02*
D03*
Y41732D02*
D03*
X77165Y29921D02*
D03*
X83071Y18110D02*
D03*
X77165Y6299D02*
D03*
X71260Y301575D02*
D03*
Y230709D02*
D03*
X65354Y218898D02*
D03*
Y195275D02*
D03*
X71260Y183465D02*
D03*
X65354Y171653D02*
D03*
X71260Y159842D02*
D03*
X65354Y100787D02*
D03*
Y53543D02*
D03*
X71260Y18110D02*
D03*
X65354Y6299D02*
D03*
X53543Y360630D02*
D03*
X59449Y301575D02*
D03*
Y277953D02*
D03*
Y230709D02*
D03*
Y207086D02*
D03*
X53543Y195275D02*
D03*
Y171653D02*
D03*
Y148031D02*
D03*
X59449Y18110D02*
D03*
X53543Y6299D02*
D03*
X47638Y372441D02*
D03*
Y348819D02*
D03*
X41732Y313386D02*
D03*
X47638Y301575D02*
D03*
Y277953D02*
D03*
X41732Y195275D02*
D03*
Y171653D02*
D03*
X47638Y159842D02*
D03*
X41732Y100787D02*
D03*
Y77165D02*
D03*
Y53543D02*
D03*
X47638Y18110D02*
D03*
X41732Y6299D02*
D03*
X35827Y372441D02*
D03*
X29921Y360630D02*
D03*
X35827Y348819D02*
D03*
X29921Y337008D02*
D03*
X35827Y301575D02*
D03*
Y230709D02*
D03*
Y207086D02*
D03*
X29921Y124409D02*
D03*
Y100787D02*
D03*
Y53543D02*
D03*
Y29921D02*
D03*
X35827Y18110D02*
D03*
X29921Y6299D02*
D03*
X24016Y372441D02*
D03*
Y348819D02*
D03*
X18110Y337008D02*
D03*
X24016Y325197D02*
D03*
X18110Y313386D02*
D03*
Y289764D02*
D03*
Y266142D02*
D03*
Y242520D02*
D03*
Y218898D02*
D03*
Y195275D02*
D03*
Y171653D02*
D03*
X24016Y136220D02*
D03*
X18110Y124409D02*
D03*
X24016Y112598D02*
D03*
X18110Y100787D02*
D03*
X24016Y88976D02*
D03*
X18110Y77165D02*
D03*
Y53543D02*
D03*
X24016Y41732D02*
D03*
X18110Y29921D02*
D03*
X24016Y18110D02*
D03*
X18110Y6299D02*
D03*
X6299Y360630D02*
D03*
X12205Y348819D02*
D03*
X6299Y337008D02*
D03*
Y313386D02*
D03*
Y289764D02*
D03*
X12205Y277953D02*
D03*
X6299Y266142D02*
D03*
X12205Y254331D02*
D03*
X6299Y242520D02*
D03*
X12205Y230709D02*
D03*
X6299Y218898D02*
D03*
X12205Y207086D02*
D03*
X6299Y195275D02*
D03*
X12205Y183465D02*
D03*
X6299Y171653D02*
D03*
X12205Y159842D02*
D03*
X6299Y148031D02*
D03*
X12205Y136220D02*
D03*
X6299Y124409D02*
D03*
X12205Y112598D02*
D03*
X6299Y100787D02*
D03*
X12205Y88976D02*
D03*
X6299Y77165D02*
D03*
X12205Y65354D02*
D03*
X6299Y53543D02*
D03*
X12205Y41732D02*
D03*
X6299Y29921D02*
D03*
Y6299D02*
D03*
X368580Y341772D02*
D03*
X343496Y350528D02*
D03*
X345418Y365407D02*
D03*
X324565Y329467D02*
D03*
X348018Y305107D02*
D03*
X356038Y331834D02*
D03*
X317466Y347925D02*
D03*
X324565Y366856D02*
D03*
X218218Y298207D02*
D03*
X211518Y304707D02*
D03*
X214018Y312107D02*
D03*
X220218Y306107D02*
D03*
X235200Y306200D02*
D03*
X209289Y296950D02*
D03*
X246118Y323307D02*
D03*
X248200Y283900D02*
D03*
X40588Y305120D02*
D03*
X13318Y288807D02*
D03*
X76818Y273207D02*
D03*
X59618Y264907D02*
D03*
X71018Y279007D02*
D03*
X47618Y269607D02*
D03*
X53168Y261818D02*
D03*
X47262Y255912D02*
D03*
X250174Y308400D02*
D03*
X262000Y289500D02*
D03*
X81000Y276500D02*
D03*
X56500Y253000D02*
D03*
X94500Y250000D02*
D03*
X80500Y315500D02*
D03*
X76000Y311000D02*
D03*
X89000Y266000D02*
D03*
X237000Y326000D02*
D03*
X125500Y285500D02*
D03*
X165500Y286000D02*
D03*
X152500Y289000D02*
D03*
X145500Y286039D02*
D03*
X83000Y128000D02*
D03*
X293000Y198000D02*
D03*
X291500Y194500D02*
D03*
D51*
X72134Y266866D02*
D03*
X76866Y262134D02*
D03*
X209134Y308366D02*
D03*
X213866Y303634D02*
D03*
D52*
X12228Y259949D02*
D03*
Y321051D02*
D03*
D53*
X50424Y318377D02*
D03*
Y260581D02*
D03*
D54*
X53772Y264912D02*
D03*
Y269243D02*
D03*
Y273573D02*
D03*
Y277904D02*
D03*
Y282235D02*
D03*
Y286565D02*
D03*
Y290896D02*
D03*
Y295227D02*
D03*
Y299558D02*
D03*
D55*
X194425Y236297D02*
D03*
Y230195D02*
D03*
X230500Y334051D02*
D03*
Y327949D02*
D03*
X204925Y230195D02*
D03*
Y236297D02*
D03*
X215425Y230195D02*
D03*
Y236297D02*
D03*
X250000Y278551D02*
D03*
Y272449D02*
D03*
X259500Y278551D02*
D03*
Y272449D02*
D03*
D56*
X167062Y233561D02*
D03*
X176583Y237793D02*
D03*
X171293Y243082D02*
D03*
D57*
X185346Y57500D02*
D03*
X178654D02*
D03*
X61154Y286500D02*
D03*
X67847D02*
D03*
D58*
X202500Y301398D02*
D03*
X197500Y301398D02*
D03*
X192500Y301398D02*
D03*
X187500D02*
D03*
X182500D02*
D03*
X177500D02*
D03*
X172500Y301398D02*
D03*
X167500Y301398D02*
D03*
Y263602D02*
D03*
X172500Y263602D02*
D03*
X177500Y263602D02*
D03*
X182500D02*
D03*
X187500D02*
D03*
X192500D02*
D03*
X197500Y263602D02*
D03*
X202500Y263602D02*
D03*
D59*
X80823Y271876D02*
D03*
X83382D02*
D03*
X85941D02*
D03*
X88500D02*
D03*
X91059D02*
D03*
X93618D02*
D03*
X96177D02*
D03*
Y294124D02*
D03*
X93618D02*
D03*
X91059D02*
D03*
X88500D02*
D03*
X85941D02*
D03*
X83382D02*
D03*
D60*
X80823D02*
D03*
D61*
X66366Y261866D02*
D03*
X61634Y257134D02*
D03*
D62*
X203704Y244525D02*
D03*
X209271Y250092D02*
D03*
X191204Y243525D02*
D03*
X196771Y249092D02*
D03*
X217204Y244024D02*
D03*
X222771Y249592D02*
D03*
X192778Y318278D02*
D03*
X198346Y323846D02*
D03*
X198000Y312500D02*
D03*
X203568Y318068D02*
D03*
D63*
X163894Y252000D02*
D03*
X171768D02*
D03*
D64*
X253949Y296000D02*
D03*
X260051D02*
D03*
X253949Y306000D02*
D03*
X260051D02*
D03*
X253449Y319000D02*
D03*
X259551D02*
D03*
X253449Y328000D02*
D03*
X259551D02*
D03*
D65*
X301000Y135346D02*
D03*
Y128654D02*
D03*
X254500Y135346D02*
D03*
Y128654D02*
D03*
Y74846D02*
D03*
Y68154D02*
D03*
X109000Y73846D02*
D03*
Y67154D02*
D03*
Y135346D02*
D03*
Y128654D02*
D03*
X78500Y135346D02*
D03*
Y128654D02*
D03*
M02*
