G04*
G04 #@! TF.GenerationSoftware,Altium Limited,Altium Designer,23.10.1 (27)*
G04*
G04 Layer_Color=32896*
%FSLAX25Y25*%
%MOIN*%
G70*
G04*
G04 #@! TF.SameCoordinates,F6535FD2-0468-4A63-920D-5F40DC5DF58B*
G04*
G04*
G04 #@! TF.FilePolarity,Positive*
G04*
G01*
G75*
%ADD10C,0.00600*%
%ADD11C,0.01000*%
%ADD12C,0.00984*%
%ADD13C,0.00787*%
%ADD14C,0.00394*%
%ADD81C,0.01968*%
%ADD82C,0.00400*%
%ADD83C,0.00098*%
%ADD84R,0.05600X0.03847*%
D10*
X171671Y240707D02*
X174207Y238171D01*
X163784Y238837D02*
X166683Y235937D01*
X163784Y238837D02*
X168662Y243716D01*
X169437Y233184D02*
X172337Y230284D01*
X177216Y235162D01*
D11*
X53920Y364970D02*
G03*
X54000Y364970I40J-4472D01*
G01*
X63990Y372000D02*
G03*
X64000Y372000I5J-300D01*
G01*
X205445Y286457D02*
G03*
X205442Y278284I-1J-4087D01*
G01*
X208419Y265500D02*
G03*
X208419Y265500I-1419J0D01*
G01*
X16846Y261500D02*
X46410D01*
X16596Y319500D02*
X46096D01*
X40000Y362500D02*
Y374500D01*
X68000D01*
Y362500D02*
Y374500D01*
Y348500D02*
Y362500D01*
Y346500D02*
Y348500D01*
X66000Y346500D02*
X68000D01*
X66000D02*
Y348500D01*
X62000D02*
X66000D01*
X62000Y346500D02*
Y348500D01*
X56000Y346500D02*
X62000D01*
X56000D02*
Y348500D01*
X52000D02*
X56000D01*
X52000Y346500D02*
Y348500D01*
X46000Y346500D02*
X52000D01*
X46000D02*
Y348500D01*
X42000D02*
X46000D01*
X42000Y346500D02*
Y348500D01*
X40000Y346500D02*
X42000D01*
X40000D02*
Y348500D01*
Y364500D01*
X50000Y360500D02*
X58000D01*
X54000Y356500D02*
Y364500D01*
X164500Y269072D02*
Y296000D01*
X205442Y269072D02*
Y278284D01*
X205445Y286457D02*
Y296000D01*
X164500Y269072D02*
X205445D01*
X164500Y296000D02*
X205445D01*
X310500Y52096D02*
Y46098D01*
X306501D01*
X300503Y51096D02*
X301503Y52096D01*
X303502D01*
X304502Y51096D01*
Y47097D01*
X303502Y46098D01*
X301503D01*
X300503Y47097D01*
X298504Y52096D02*
Y46098D01*
X295505D01*
X294505Y47097D01*
Y51096D01*
X295505Y52096D01*
X298504D01*
X282509Y51096D02*
X283509Y52096D01*
X285508D01*
X286508Y51096D01*
Y47097D01*
X285508Y46098D01*
X283509D01*
X282509Y47097D01*
X279510Y46098D02*
X277511D01*
X276511Y47097D01*
Y49097D01*
X277511Y50096D01*
X279510D01*
X280510Y49097D01*
Y47097D01*
X279510Y46098D01*
X274512D02*
Y50096D01*
X271513D01*
X270513Y49097D01*
Y46098D01*
X267514Y51096D02*
Y50096D01*
X268514D01*
X266514D01*
X267514D01*
Y47097D01*
X266514Y46098D01*
X263515Y50096D02*
Y46098D01*
Y48097D01*
X262515Y49097D01*
X261516Y50096D01*
X260516D01*
X256518Y46098D02*
X254518D01*
X253518Y47097D01*
Y49097D01*
X254518Y50096D01*
X256518D01*
X257517Y49097D01*
Y47097D01*
X256518Y46098D01*
X251519D02*
X249520D01*
X250519D01*
Y52096D01*
X251519D01*
X246521Y46098D02*
X244521D01*
X245521D01*
Y52096D01*
X246521D01*
X238523Y46098D02*
X240523D01*
X241522Y47097D01*
Y49097D01*
X240523Y50096D01*
X238523D01*
X237524Y49097D01*
Y48097D01*
X241522D01*
X235524Y50096D02*
Y46098D01*
Y48097D01*
X234525Y49097D01*
X233525Y50096D01*
X232525D01*
X310500Y42498D02*
Y38499D01*
X308501Y36500D01*
X306501Y38499D01*
Y42498D01*
X301503Y36500D02*
X303502D01*
X304502Y37500D01*
Y39499D01*
X303502Y40499D01*
X301503D01*
X300503Y39499D01*
Y38499D01*
X304502D01*
X298504Y40499D02*
Y36500D01*
Y38499D01*
X297504Y39499D01*
X296504Y40499D01*
X295505D01*
X292506Y36500D02*
X289507D01*
X288507Y37500D01*
X289507Y38499D01*
X291506D01*
X292506Y39499D01*
X291506Y40499D01*
X288507D01*
X286508Y36500D02*
X284508D01*
X285508D01*
Y40499D01*
X286508D01*
X280510Y36500D02*
X278510D01*
X277511Y37500D01*
Y39499D01*
X278510Y40499D01*
X280510D01*
X281509Y39499D01*
Y37500D01*
X280510Y36500D01*
X275511D02*
Y40499D01*
X272512D01*
X271513Y39499D01*
Y36500D01*
X263515Y40499D02*
X262515D01*
Y39499D01*
X263515D01*
Y40499D01*
Y37500D02*
X262515D01*
Y36500D01*
X263515D01*
Y37500D01*
X252519Y42498D02*
Y38499D01*
X250519Y36500D01*
X248520Y38499D01*
Y42498D01*
X246521Y36500D02*
Y37500D01*
X245521D01*
Y36500D01*
X246521D01*
X241522D02*
X239523D01*
X240523D01*
Y42498D01*
X241522Y41498D01*
X236524Y36500D02*
Y37500D01*
X235524D01*
Y36500D01*
X236524D01*
X231526Y41498D02*
X230526Y42498D01*
X228526D01*
X227527Y41498D01*
Y37500D01*
X228526Y36500D01*
X230526D01*
X231526Y37500D01*
Y41498D01*
X225528Y36500D02*
Y37500D01*
X224528D01*
Y36500D01*
X225528D01*
X220529Y41498D02*
X219529Y42498D01*
X217530D01*
X216530Y41498D01*
Y37500D01*
X217530Y36500D01*
X219529D01*
X220529Y37500D01*
Y41498D01*
X348777Y31495D02*
Y25497D01*
X345778D01*
X344778Y26497D01*
Y30495D01*
X345778Y31495D01*
X348777D01*
X339780Y25497D02*
X341779D01*
X342779Y26497D01*
Y28496D01*
X341779Y29496D01*
X339780D01*
X338780Y28496D01*
Y27496D01*
X342779D01*
X336781Y25497D02*
X333782D01*
X332782Y26497D01*
X333782Y27496D01*
X335781D01*
X336781Y28496D01*
X335781Y29496D01*
X332782D01*
X330783Y25497D02*
X328783D01*
X329783D01*
Y29496D01*
X330783D01*
X323785Y23498D02*
X322785D01*
X321786Y24497D01*
Y29496D01*
X324785D01*
X325784Y28496D01*
Y26497D01*
X324785Y25497D01*
X321786D01*
X319786D02*
Y29496D01*
X316787D01*
X315788Y28496D01*
Y25497D01*
X310789D02*
X312789D01*
X313788Y26497D01*
Y28496D01*
X312789Y29496D01*
X310789D01*
X309789Y28496D01*
Y27496D01*
X313788D01*
X303791Y31495D02*
Y25497D01*
X306790D01*
X307790Y26497D01*
Y28496D01*
X306790Y29496D01*
X303791D01*
X295794Y31495D02*
Y25497D01*
X292795D01*
X291795Y26497D01*
Y27496D01*
Y28496D01*
X292795Y29496D01*
X295794D01*
X289796D02*
Y26497D01*
X288796Y25497D01*
X285797D01*
Y24497D01*
X286797Y23498D01*
X287797D01*
X285797Y25497D02*
Y29496D01*
X277800D02*
X276800D01*
Y28496D01*
X277800D01*
Y29496D01*
Y26497D02*
X276800D01*
Y25497D01*
X277800D01*
Y26497D01*
X266803Y31495D02*
X262805D01*
X264804D01*
Y25497D01*
X260805D02*
Y31495D01*
X256807Y25497D01*
Y31495D01*
X248809D02*
X246810D01*
X247810D01*
Y25497D01*
X248809D01*
X246810D01*
X243811D02*
Y29496D01*
X240812D01*
X239812Y28496D01*
Y25497D01*
X237813Y29496D02*
X235813Y25497D01*
X233814Y29496D01*
X228816Y25497D02*
X230815D01*
X231815Y26497D01*
Y28496D01*
X230815Y29496D01*
X228816D01*
X227816Y28496D01*
Y27496D01*
X231815D01*
X225817Y25497D02*
Y29496D01*
X222818D01*
X221818Y28496D01*
Y25497D01*
X218819Y30495D02*
Y29496D01*
X219819D01*
X217819D01*
X218819D01*
Y26497D01*
X217819Y25497D01*
X213821D02*
X211821D01*
X210822Y26497D01*
Y28496D01*
X211821Y29496D01*
X213821D01*
X214820Y28496D01*
Y26497D01*
X213821Y25497D01*
X208822Y29496D02*
Y25497D01*
Y27496D01*
X207822Y28496D01*
X206823Y29496D01*
X205823D01*
X284298Y13900D02*
X288296D01*
X284298Y17899D01*
Y18898D01*
X285297Y19898D01*
X287297D01*
X288296Y18898D01*
X282298D02*
X281299Y19898D01*
X279299D01*
X278300Y18898D01*
Y14900D01*
X279299Y13900D01*
X281299D01*
X282298Y14900D01*
Y18898D01*
X272302Y13900D02*
X276300D01*
X272302Y17899D01*
Y18898D01*
X273301Y19898D01*
X275301D01*
X276300Y18898D01*
X270302D02*
X269303Y19898D01*
X267303D01*
X266303Y18898D01*
Y17899D01*
X267303Y16899D01*
X268303D01*
X267303D01*
X266303Y15899D01*
Y14900D01*
X267303Y13900D01*
X269303D01*
X270302Y14900D01*
X120499Y207999D02*
X121499Y208999D01*
X123498D01*
X124498Y207999D01*
Y204001D01*
X123498Y203001D01*
X121499D01*
X120499Y204001D01*
X118500Y203001D02*
Y208999D01*
X114501Y203001D01*
Y208999D01*
X112502Y203001D02*
X110502D01*
X111502D01*
Y208999D01*
X112502Y207999D01*
X107499Y279002D02*
X102501D01*
X101501Y280001D01*
Y282001D01*
X102501Y283000D01*
X107499D01*
X106499Y285000D02*
X107499Y285999D01*
Y287999D01*
X106499Y288998D01*
X105500D01*
X104500Y287999D01*
Y286999D01*
Y287999D01*
X103500Y288998D01*
X102501D01*
X101501Y287999D01*
Y285999D01*
X102501Y285000D01*
X158414Y292155D02*
X161948Y288621D01*
Y287207D01*
X160534Y285793D01*
X159121D01*
X155586Y289328D01*
Y280845D02*
X158414Y283672D01*
X152759D01*
X152052Y284379D01*
Y285793D01*
X153466Y287207D01*
X154879D01*
X189497Y63501D02*
Y69499D01*
X186498D01*
X185499Y68499D01*
Y66500D01*
X186498Y65500D01*
X189497D01*
X187498D02*
X185499Y63501D01*
X179501D02*
X183499D01*
X179501Y67500D01*
Y68499D01*
X180500Y69499D01*
X182500D01*
X183499Y68499D01*
X173503Y63501D02*
X177501D01*
X173503Y67500D01*
Y68499D01*
X174502Y69499D01*
X176502D01*
X177501Y68499D01*
X93327Y235931D02*
X97569Y240173D01*
X95448Y242293D01*
X94034D01*
X92621Y240879D01*
Y239466D01*
X94741Y237345D01*
X93327Y238759D02*
X90500D01*
X86259Y243000D02*
X89086Y240173D01*
Y245828D01*
X89793Y246534D01*
X91207D01*
X92621Y245121D01*
Y243707D01*
X84845Y244414D02*
X83431Y245828D01*
X84138Y245121D01*
X88379Y249362D01*
Y247948D01*
X108034Y238724D02*
X112276Y242966D01*
X110155Y245086D01*
X108741D01*
X107327Y243672D01*
Y242259D01*
X109448Y240138D01*
X108034Y241552D02*
X105207D01*
X100966Y245793D02*
X103793Y242966D01*
Y248621D01*
X104500Y249327D01*
X105914D01*
X107327Y247914D01*
Y246500D01*
X103086Y250741D02*
Y252155D01*
X101672Y253569D01*
X100259D01*
X97431Y250741D01*
Y249327D01*
X98845Y247914D01*
X100259D01*
X103086Y250741D01*
X158498Y249501D02*
Y255499D01*
X155499D01*
X154499Y254499D01*
Y252500D01*
X155499Y251500D01*
X158498D01*
X156498D02*
X154499Y249501D01*
X152499D02*
X150500D01*
X151500D01*
Y255499D01*
X152499Y254499D01*
X147501Y250501D02*
X146501Y249501D01*
X144502D01*
X143502Y250501D01*
Y254499D01*
X144502Y255499D01*
X146501D01*
X147501Y254499D01*
Y253500D01*
X146501Y252500D01*
X143502D01*
X112498Y305001D02*
Y310999D01*
X109499D01*
X108499Y309999D01*
Y308000D01*
X109499Y307000D01*
X112498D01*
X110498D02*
X108499Y305001D01*
X106500D02*
X104500D01*
X105500D01*
Y310999D01*
X106500Y309999D01*
X101501D02*
X100501Y310999D01*
X98502D01*
X97502Y309999D01*
Y309000D01*
X98502Y308000D01*
X97502Y307000D01*
Y306001D01*
X98502Y305001D01*
X100501D01*
X101501Y306001D01*
Y307000D01*
X100501Y308000D01*
X101501Y309000D01*
Y309999D01*
X100501Y308000D02*
X98502D01*
X77998Y305501D02*
Y311499D01*
X74998D01*
X73999Y310499D01*
Y308500D01*
X74998Y307500D01*
X77998D01*
X75998D02*
X73999Y305501D01*
X72000D02*
X70000D01*
X71000D01*
Y311499D01*
X72000Y310499D01*
X67001Y311499D02*
X63002D01*
Y310499D01*
X67001Y306501D01*
Y305501D01*
X265498Y80501D02*
Y86499D01*
X262498D01*
X261499Y85499D01*
Y83500D01*
X262498Y82500D01*
X265498D01*
X263498D02*
X261499Y80501D01*
X259500D02*
X257500D01*
X258500D01*
Y86499D01*
X259500Y85499D01*
X250502Y86499D02*
X252502Y85499D01*
X254501Y83500D01*
Y81501D01*
X253502Y80501D01*
X251502D01*
X250502Y81501D01*
Y82500D01*
X251502Y83500D01*
X254501D01*
X192922Y252181D02*
X188681Y256422D01*
X186560Y254302D01*
Y252888D01*
X187974Y251474D01*
X189388D01*
X191508Y253595D01*
X190095Y252181D02*
Y249353D01*
X188681Y247940D02*
X187267Y246526D01*
X187974Y247233D01*
X183733Y251474D01*
X185147D01*
X178078Y245819D02*
X180905Y248646D01*
X183026Y246526D01*
X180905Y245819D01*
X180198Y245112D01*
Y243698D01*
X181612Y242285D01*
X183026D01*
X184440Y243698D01*
Y245112D01*
X194922Y328181D02*
X190681Y332422D01*
X188560Y330302D01*
Y328888D01*
X189974Y327474D01*
X191388D01*
X193509Y329595D01*
X192095Y328181D02*
Y325353D01*
X190681Y323940D02*
X189267Y322526D01*
X189974Y323233D01*
X185733Y327474D01*
X187147D01*
X185026Y318285D02*
X180785Y322526D01*
X185026D01*
X182198Y319698D01*
X111998Y79501D02*
Y85499D01*
X108999D01*
X107999Y84499D01*
Y82500D01*
X108999Y81500D01*
X111998D01*
X109998D02*
X107999Y79501D01*
X106000D02*
X104000D01*
X105000D01*
Y85499D01*
X106000Y84499D01*
X101001D02*
X100001Y85499D01*
X98002D01*
X97002Y84499D01*
Y83500D01*
X98002Y82500D01*
X99002D01*
X98002D01*
X97002Y81500D01*
Y80501D01*
X98002Y79501D01*
X100001D01*
X101001Y80501D01*
X224922Y262681D02*
X220681Y266922D01*
X218560Y264802D01*
Y263388D01*
X219974Y261974D01*
X221388D01*
X223509Y264095D01*
X222095Y262681D02*
Y259853D01*
X220681Y258440D02*
X219267Y257026D01*
X219974Y257733D01*
X215733Y261974D01*
X217146D01*
X214319Y252078D02*
X217146Y254905D01*
X211491D01*
X210785Y255612D01*
Y257026D01*
X212198Y258440D01*
X213612D01*
X220215Y324974D02*
X215974Y329215D01*
X213853Y327095D01*
Y325681D01*
X215267Y324267D01*
X216681D01*
X218802Y326388D01*
X217388Y324974D02*
Y322147D01*
X215974Y320733D02*
X214560Y319319D01*
X215267Y320026D01*
X211026Y324267D01*
X212440D01*
Y317198D02*
X211026Y315785D01*
X211733Y316492D01*
X207491Y320733D01*
X208905D01*
X238922Y247681D02*
X234681Y251922D01*
X232560Y249802D01*
Y248388D01*
X233974Y246974D01*
X235388D01*
X237509Y249095D01*
X236095Y247681D02*
Y244853D01*
X234681Y243440D02*
X233267Y242026D01*
X233974Y242733D01*
X229733Y246974D01*
X231147D01*
X227612Y243440D02*
X226198D01*
X224785Y242026D01*
Y240612D01*
X227612Y237785D01*
X229026D01*
X230440Y239198D01*
Y240612D01*
X227612Y243440D01*
X259998Y140501D02*
Y146499D01*
X256999D01*
X256000Y145499D01*
Y143500D01*
X256999Y142500D01*
X259998D01*
X257999D02*
X256000Y140501D01*
X254000Y141501D02*
X253001Y140501D01*
X251001D01*
X250002Y141501D01*
Y145499D01*
X251001Y146499D01*
X253001D01*
X254000Y145499D01*
Y144500D01*
X253001Y143500D01*
X250002D01*
X58155Y250914D02*
X53914Y255155D01*
X51793Y253034D01*
Y251621D01*
X53207Y250207D01*
X54621D01*
X56741Y252327D01*
X55327Y250914D02*
Y248086D01*
X50379Y250207D02*
X48966D01*
X47552Y248793D01*
Y247379D01*
X48259Y246673D01*
X49672D01*
Y245259D01*
X50379Y244552D01*
X51793D01*
X53207Y245966D01*
Y247379D01*
X52500Y248086D01*
X51086D01*
Y249500D01*
X50379Y250207D01*
X51086Y248086D02*
X49672Y246673D01*
X112498Y140501D02*
Y146499D01*
X109499D01*
X108500Y145499D01*
Y143500D01*
X109499Y142500D01*
X112498D01*
X110499D02*
X108500Y140501D01*
X106500Y146499D02*
X102502D01*
Y145499D01*
X106500Y141501D01*
Y140501D01*
X36498Y358501D02*
Y364499D01*
X33499D01*
X32500Y363499D01*
Y361500D01*
X33499Y360500D01*
X36498D01*
X34499D02*
X32500Y358501D01*
X27501D02*
Y364499D01*
X30500Y361500D01*
X26502D01*
X303998Y141001D02*
Y146999D01*
X300999D01*
X300000Y145999D01*
Y144000D01*
X300999Y143000D01*
X303998D01*
X301999D02*
X300000Y141001D01*
X294002D02*
X298000D01*
X294002Y145000D01*
Y145999D01*
X295001Y146999D01*
X297001D01*
X298000Y145999D01*
X83499Y140001D02*
Y145999D01*
X80500D01*
X79500Y144999D01*
Y143000D01*
X80500Y142000D01*
X83499D01*
X81499D02*
X79500Y140001D01*
X77501D02*
X75501D01*
X76501D01*
Y145999D01*
X77501Y144999D01*
X158000Y231001D02*
Y234999D01*
X159000Y235999D01*
X160999D01*
X161999Y234999D01*
Y231001D01*
X160999Y230001D01*
X159000D01*
X159999Y232000D02*
X158000Y230001D01*
X159000D02*
X158000Y231001D01*
X156001Y230001D02*
X154001D01*
X155001D01*
Y235999D01*
X156001Y234999D01*
X92448Y380298D02*
X96447D01*
Y374300D01*
X92448D01*
X96447Y377299D02*
X94447D01*
X90448Y380298D02*
X86450Y374300D01*
Y380298D02*
X90448Y374300D01*
X84450D02*
Y380298D01*
X81451D01*
X80452Y379298D01*
Y377299D01*
X81451Y376299D01*
X84450D01*
X78452Y379298D02*
X77453Y380298D01*
X75453D01*
X74454Y379298D01*
Y378299D01*
X75453Y377299D01*
X76453D01*
X75453D01*
X74454Y376299D01*
Y375300D01*
X75453Y374300D01*
X77453D01*
X78452Y375300D01*
X167948Y380798D02*
X171947D01*
Y374800D01*
X167948D01*
X171947Y377799D02*
X169947D01*
X165948Y380798D02*
X161950Y374800D01*
Y380798D02*
X165948Y374800D01*
X159950D02*
Y380798D01*
X156951D01*
X155952Y379798D01*
Y377799D01*
X156951Y376799D01*
X159950D01*
X149954Y374800D02*
X153952D01*
X149954Y378799D01*
Y379798D01*
X150953Y380798D01*
X152953D01*
X153952Y379798D01*
X241448Y381298D02*
X245446D01*
Y375300D01*
X241448D01*
X245446Y378299D02*
X243447D01*
X239448Y381298D02*
X235450Y375300D01*
Y381298D02*
X239448Y375300D01*
X233450D02*
Y381298D01*
X230451D01*
X229452Y380298D01*
Y378299D01*
X230451Y377299D01*
X233450D01*
X227452Y375300D02*
X225453D01*
X226453D01*
Y381298D01*
X227452Y380298D01*
X206008Y211819D02*
X207422D01*
X208836Y210405D01*
Y208992D01*
X206009Y206164D01*
X204595D01*
X203181Y207578D01*
Y208992D01*
X201767Y216060D02*
X203181D01*
X204595Y214647D01*
Y213233D01*
X203888Y212526D01*
X202474D01*
X201060Y213940D01*
X199647D01*
X198940Y213233D01*
Y211819D01*
X200353Y210405D01*
X201767D01*
X196819Y213940D02*
X195405Y215353D01*
X196112Y214647D01*
X200353Y218888D01*
Y217474D01*
X196819Y221008D02*
Y222422D01*
X195405Y223836D01*
X193991D01*
X191164Y221008D01*
Y219595D01*
X192578Y218181D01*
X193991D01*
X196819Y221008D01*
X217241Y215586D02*
X218655D01*
X220069Y214173D01*
Y212759D01*
X217241Y209931D01*
X215827D01*
X214414Y211345D01*
Y212759D01*
X213000Y219828D02*
X214414D01*
X215827Y218414D01*
Y217000D01*
X215121Y216293D01*
X213707D01*
X212293Y217707D01*
X210879D01*
X210173Y217000D01*
Y215586D01*
X211586Y214173D01*
X213000D01*
X208759Y218414D02*
X207345D01*
X205931Y219828D01*
Y221241D01*
X208759Y224069D01*
X210173D01*
X211586Y222655D01*
Y221241D01*
X210879Y220534D01*
X209466D01*
X207345Y222655D01*
X228741Y217586D02*
X230155D01*
X231569Y216173D01*
Y214759D01*
X228741Y211931D01*
X227327D01*
X225914Y213345D01*
Y214759D01*
X224500Y221828D02*
X225914D01*
X227327Y220414D01*
Y219000D01*
X226621Y218293D01*
X225207D01*
X223793Y219707D01*
X222379D01*
X221673Y219000D01*
Y217586D01*
X223086Y216173D01*
X224500D01*
X223086Y223241D02*
Y224655D01*
X221673Y226069D01*
X220259D01*
X219552Y225362D01*
Y223948D01*
X218138D01*
X217431Y223241D01*
Y221828D01*
X218845Y220414D01*
X220259D01*
X220966Y221121D01*
Y222534D01*
X222379D01*
X223086Y223241D01*
X220966Y222534D02*
X219552Y223948D01*
X278499Y277999D02*
X279498Y278999D01*
X281498D01*
X282497Y277999D01*
Y274001D01*
X281498Y273001D01*
X279498D01*
X278499Y274001D01*
X272501Y277999D02*
X273500Y278999D01*
X275500D01*
X276499Y277999D01*
Y277000D01*
X275500Y276000D01*
X273500D01*
X272501Y275000D01*
Y274001D01*
X273500Y273001D01*
X275500D01*
X276499Y274001D01*
X270501Y278999D02*
X266503D01*
Y277999D01*
X270501Y274001D01*
Y273001D01*
X239999Y277499D02*
X240998Y278499D01*
X242998D01*
X243997Y277499D01*
Y273501D01*
X242998Y272501D01*
X240998D01*
X239999Y273501D01*
X234001Y277499D02*
X235000Y278499D01*
X237000D01*
X237999Y277499D01*
Y276500D01*
X237000Y275500D01*
X235000D01*
X234001Y274500D01*
Y273501D01*
X235000Y272501D01*
X237000D01*
X237999Y273501D01*
X228003Y278499D02*
X230002Y277499D01*
X232001Y275500D01*
Y273501D01*
X231002Y272501D01*
X229002D01*
X228003Y273501D01*
Y274500D01*
X229002Y275500D01*
X232001D01*
X278499Y296499D02*
X279498Y297499D01*
X281498D01*
X282497Y296499D01*
Y292501D01*
X281498Y291501D01*
X279498D01*
X278499Y292501D01*
X272501Y296499D02*
X273500Y297499D01*
X275500D01*
X276499Y296499D01*
Y295500D01*
X275500Y294500D01*
X273500D01*
X272501Y293500D01*
Y292501D01*
X273500Y291501D01*
X275500D01*
X276499Y292501D01*
X266503Y297499D02*
X270501D01*
Y294500D01*
X268502Y295500D01*
X267502D01*
X266503Y294500D01*
Y292501D01*
X267502Y291501D01*
X269502D01*
X270501Y292501D01*
X278499Y307499D02*
X279498Y308499D01*
X281498D01*
X282497Y307499D01*
Y303501D01*
X281498Y302501D01*
X279498D01*
X278499Y303501D01*
X272501Y307499D02*
X273500Y308499D01*
X275500D01*
X276499Y307499D01*
Y306500D01*
X275500Y305500D01*
X273500D01*
X272501Y304500D01*
Y303501D01*
X273500Y302501D01*
X275500D01*
X276499Y303501D01*
X267502Y302501D02*
Y308499D01*
X270501Y305500D01*
X266503D01*
X278499Y320499D02*
X279498Y321499D01*
X281498D01*
X282497Y320499D01*
Y316501D01*
X281498Y315501D01*
X279498D01*
X278499Y316501D01*
X272501Y320499D02*
X273500Y321499D01*
X275500D01*
X276499Y320499D01*
Y319500D01*
X275500Y318500D01*
X273500D01*
X272501Y317500D01*
Y316501D01*
X273500Y315501D01*
X275500D01*
X276499Y316501D01*
X270501Y320499D02*
X269502Y321499D01*
X267502D01*
X266503Y320499D01*
Y319500D01*
X267502Y318500D01*
X268502D01*
X267502D01*
X266503Y317500D01*
Y316501D01*
X267502Y315501D01*
X269502D01*
X270501Y316501D01*
X239241Y315086D02*
X240655D01*
X242069Y313672D01*
Y312259D01*
X239241Y309431D01*
X237827D01*
X236414Y310845D01*
Y312259D01*
X235000Y319327D02*
X236414D01*
X237827Y317914D01*
Y316500D01*
X237121Y315793D01*
X235707D01*
X234293Y317207D01*
X232879D01*
X232172Y316500D01*
Y315086D01*
X233586Y313672D01*
X235000D01*
X227224Y320034D02*
X230052Y317207D01*
Y322862D01*
X230759Y323569D01*
X232172D01*
X233586Y322155D01*
Y320741D01*
X278499Y329499D02*
X279498Y330499D01*
X281498D01*
X282497Y329499D01*
Y325501D01*
X281498Y324501D01*
X279498D01*
X278499Y325501D01*
X272501Y329499D02*
X273500Y330499D01*
X275500D01*
X276499Y329499D01*
Y328500D01*
X275500Y327500D01*
X273500D01*
X272501Y326500D01*
Y325501D01*
X273500Y324501D01*
X275500D01*
X276499Y325501D01*
X270501Y324501D02*
X268502D01*
X269502D01*
Y330499D01*
X270501Y329499D01*
X34997Y332499D02*
X35997Y333499D01*
X37996D01*
X38996Y332499D01*
Y328501D01*
X37996Y327501D01*
X35997D01*
X34997Y328501D01*
X32998Y327501D02*
Y331500D01*
X30998Y333499D01*
X28999Y331500D01*
Y327501D01*
Y330500D01*
X32998D01*
X27000Y327501D02*
Y333499D01*
X24001D01*
X23001Y332499D01*
Y330500D01*
X24001Y329500D01*
X27000D01*
X25000D02*
X23001Y327501D01*
X21002Y333499D02*
Y327501D01*
X18003D01*
X17003Y328501D01*
Y332499D01*
X18003Y333499D01*
X21002D01*
X15004Y327501D02*
X13004D01*
X14004D01*
Y333499D01*
X15004Y332499D01*
X67621Y274707D02*
X69034D01*
X70448Y273293D01*
Y271879D01*
X67621Y269052D01*
X66207D01*
X64793Y270466D01*
Y271879D01*
X64086Y279655D02*
X66914Y276828D01*
X64793Y274707D01*
X64086Y276828D01*
X63379Y277534D01*
X61966D01*
X60552Y276121D01*
Y274707D01*
X61966Y273293D01*
X63379D01*
X221758Y312781D02*
X222757Y313780D01*
X224757D01*
X225756Y312781D01*
Y308782D01*
X224757Y307783D01*
X222757D01*
X221758Y308782D01*
X216759Y307783D02*
Y313780D01*
X219758Y310782D01*
X215759D01*
X65201Y297298D02*
X66201Y298298D01*
X68200D01*
X69200Y297298D01*
Y293300D01*
X68200Y292300D01*
X66201D01*
X65201Y293300D01*
X63202Y297298D02*
X62202Y298298D01*
X60203D01*
X59203Y297298D01*
Y296299D01*
X60203Y295299D01*
X61203D01*
X60203D01*
X59203Y294299D01*
Y293300D01*
X60203Y292300D01*
X62202D01*
X63202Y293300D01*
D12*
X81315Y299732D02*
G03*
X81315Y299732I-492J0D01*
G01*
D13*
X73847Y342600D02*
Y370947D01*
X145500Y342600D02*
Y370947D01*
X73847Y342600D02*
X145500D01*
X73847Y370947D02*
X145500D01*
X78658Y288896D02*
X98343D01*
Y277104D02*
Y288896D01*
X78658Y277104D02*
X98343D01*
X78658D02*
Y288896D01*
X109988Y184000D02*
X270500D01*
Y194000D01*
X109988Y184000D02*
Y194000D01*
X270500D01*
X149346Y371446D02*
X221000D01*
X149346Y343100D02*
X221000D01*
Y371446D01*
X149346Y343100D02*
Y371446D01*
X224847Y371947D02*
X296500D01*
X224847Y343600D02*
X296500D01*
Y371947D01*
X224847Y343600D02*
Y371947D01*
D14*
X68375Y267005D02*
X71995Y270624D01*
X77006Y258375D02*
X80625Y261994D01*
X68375Y267005D02*
X77006Y258375D01*
X71995Y270624D02*
X80625Y261994D01*
X188300Y55100D02*
Y59900D01*
X188043Y54843D02*
X188300Y55100D01*
X183575Y54843D02*
X188043D01*
X183575Y60157D02*
X188043D01*
X188300Y59900D01*
X175700D02*
X175957Y60157D01*
X180425D01*
X175957Y54843D02*
X180524D01*
X175700Y55100D02*
X175957Y54843D01*
X175700Y55100D02*
Y59900D01*
X66758Y265652D02*
X70152Y262258D01*
X66394Y265652D02*
X66758D01*
X63165Y262423D02*
X66394Y265652D01*
X66993Y258734D02*
X70152Y261894D01*
Y262258D01*
X61242Y253348D02*
X61606D01*
X64766Y256507D01*
X57848Y257106D02*
X61007Y260265D01*
X57848Y256742D02*
Y257106D01*
Y256742D02*
X61242Y253348D01*
X205375Y308506D02*
X214005Y299875D01*
X208994Y312125D02*
X217624Y303495D01*
X205375Y308506D02*
X208994Y312125D01*
X214005Y299875D02*
X217624Y303495D01*
X298600Y138300D02*
X303400D01*
X298343Y138043D02*
X298600Y138300D01*
X298343Y133476D02*
Y138043D01*
X303657Y133575D02*
Y138043D01*
X303400Y138300D02*
X303657Y138043D01*
X303400Y125700D02*
X303657Y125957D01*
Y130425D01*
X298343Y125957D02*
Y130425D01*
Y125957D02*
X298600Y125700D01*
X303400D01*
X252100Y138300D02*
X256900D01*
X251843Y138043D02*
X252100Y138300D01*
X251843Y133476D02*
Y138043D01*
X257157Y133575D02*
Y138043D01*
X256900Y138300D02*
X257157Y138043D01*
X256900Y125700D02*
X257157Y125957D01*
Y130425D01*
X251843Y125957D02*
Y130425D01*
Y125957D02*
X252100Y125700D01*
X256900D01*
X252100Y77800D02*
X256900D01*
X251843Y77543D02*
X252100Y77800D01*
X251843Y72976D02*
Y77543D01*
X257157Y73075D02*
Y77543D01*
X256900Y77800D02*
X257157Y77543D01*
X256900Y65200D02*
X257157Y65457D01*
Y69925D01*
X251843Y65457D02*
Y69925D01*
Y65457D02*
X252100Y65200D01*
X256900D01*
X106600Y76800D02*
X111400D01*
X106343Y76543D02*
X106600Y76800D01*
X106343Y71976D02*
Y76543D01*
X111657Y72075D02*
Y76543D01*
X111400Y76800D02*
X111657Y76543D01*
X111400Y64200D02*
X111657Y64457D01*
Y68925D01*
X106343Y64457D02*
Y68925D01*
Y64457D02*
X106600Y64200D01*
X111400D01*
X106600Y138300D02*
X111400D01*
X106343Y138043D02*
X106600Y138300D01*
X106343Y133476D02*
Y138043D01*
X111657Y133575D02*
Y138043D01*
X111400Y138300D02*
X111657Y138043D01*
X111400Y125700D02*
X111657Y125957D01*
Y130425D01*
X106343Y125957D02*
Y130425D01*
Y125957D02*
X106600Y125700D01*
X111400D01*
X76100Y138300D02*
X80900D01*
X75843Y138043D02*
X76100Y138300D01*
X75843Y133476D02*
Y138043D01*
X81157Y133575D02*
Y138043D01*
X80900Y138300D02*
X81157Y138043D01*
X80900Y125700D02*
X81157Y125957D01*
Y130425D01*
X75843Y125957D02*
Y130425D01*
Y125957D02*
X76100Y125700D01*
X80900D01*
X58398Y283941D02*
X70602D01*
X58398Y289059D02*
X70602D01*
X58398Y283941D02*
Y289059D01*
X70602Y283941D02*
Y289059D01*
D81*
X82595Y285944D02*
G03*
X82595Y285944I-984J0D01*
G01*
D82*
X52576Y301469D02*
X52580Y313670D01*
D83*
X198067Y228128D02*
Y238364D01*
X190784Y228128D02*
X198067D01*
X190784Y238364D02*
X198067D01*
X190784Y228128D02*
Y238364D01*
X234142Y325882D02*
Y336118D01*
X226858Y325882D02*
X234142D01*
X226858Y336118D02*
X234142D01*
X226858Y325882D02*
Y336118D01*
X201284Y228128D02*
Y238364D01*
X208567D01*
X201284Y228128D02*
X208567D01*
Y238364D01*
X211784Y228128D02*
Y238364D01*
X219067D01*
X211784Y228128D02*
X219067D01*
Y238364D01*
X253642Y270382D02*
Y280618D01*
X246358Y270382D02*
X253642D01*
X246358Y280618D02*
X253642D01*
X246358Y270382D02*
Y280618D01*
X263142Y270382D02*
Y280618D01*
X255858Y270382D02*
X263142D01*
X255858Y280618D02*
X263142D01*
X255858Y270382D02*
Y280618D01*
X251882Y299642D02*
X262118D01*
Y292358D02*
Y299642D01*
X251882Y292358D02*
Y299642D01*
Y292358D02*
X262118D01*
X251882Y309642D02*
X262118D01*
Y302358D02*
Y309642D01*
X251882Y302358D02*
Y309642D01*
Y302358D02*
X262118D01*
X251382Y322642D02*
X261618D01*
Y315358D02*
Y322642D01*
X251382Y315358D02*
Y322642D01*
Y315358D02*
X261618D01*
X251382Y331642D02*
X261618D01*
Y324358D02*
Y331642D01*
X251382Y324358D02*
Y331642D01*
Y324358D02*
X261618D01*
D84*
X112600Y369023D02*
D03*
X107000D02*
D03*
X182500Y369523D02*
D03*
X188100D02*
D03*
X258000Y370023D02*
D03*
X263600D02*
D03*
M02*
